<?xml version="1.0" encoding="UTF-8"?>
<svg id="Capa_2" xmlns="http://www.w3.org/2000/svg" viewBox="0 0 461.961 762.031">
	<path d="M225.533,147.031c14.265,0,26.656,1.893,37.164,5.664,10.508,3.778,17.317,9.57,20.431,17.383,16.861,44.531,33.661,93.299,50.396,146.289,16.733,52.997,33.012,106.58,48.839,160.742,15.565,51.825,30.609,100.916,45.142,147.266,1.557,4.432-2.273,10.81-11.48,19.141-9.211,8.338-21.342,16.541-36.385,24.609-15.05,8.075-30.616,14.002-46.699,17.773-16.089,3.778-30.354,3.388-42.807-1.172-12.453-4.553-20.498-15.295-24.128-32.227l-17.122-97.656c-2.08-11.975-4.348-21.808-6.811-29.492-2.469-7.678-5.643-14.386-9.535-20.117-3.891-5.725-8.561-8.722-14.009-8.984-5.709.525-10.507,3.906-14.399,10.156s-7.005,13.477-9.339,21.68c-2.335,8.203-4.542,18.817-6.616,31.836l-12.842,87.891c-3.636,20.312-13.754,32.812-30.354,37.5-16.606,4.688-34.963,4.56-55.065-.391-20.108-4.943-37.231-11.651-51.368-20.117-14.144-8.459-20.692-15.82-19.652-22.07,16.344-63.019,31.911-127.862,46.698-194.531,10.118-46.094,20.559-91.339,31.327-135.742,10.763-44.396,22.243-86.523,34.44-126.367,3.892-12.5,15.238-22.198,34.051-29.102,18.807-6.896,38.849-10.217,60.125-9.961ZM220.863,306.797h-1.167c-5.71.781-10.185,4.041-13.426,9.766-3.247,5.731-5.643,12.635-7.2,20.703-1.557,8.075-2.596,16.211-3.113,24.414-.523,8.203-.651,17.773-.389,28.711l50.59-1.953c0-10.938-.328-20.44-.973-28.516-.65-8.068-1.818-16.144-3.502-24.219-1.691-8.068-4.221-14.844-7.589-20.312-3.375-5.469-7.783-8.331-13.231-8.594Z" fill="#fff" stroke="#211915" stroke-dasharray="15" stroke-miterlimit="10" stroke-width="30"/>
	<path d="M225.533,147.031c14.265,0,26.656,1.893,37.164,5.664,10.508,3.778,17.317,9.57,20.431,17.383,16.861,44.531,33.661,93.299,50.396,146.289,16.733,52.997,33.012,106.58,48.839,160.742,15.565,51.825,30.609,100.916,45.142,147.266,1.557,4.432-2.273,10.81-11.48,19.141-9.211,8.338-21.342,16.541-36.385,24.609-15.05,8.075-30.616,14.002-46.699,17.773-16.089,3.778-30.354,3.388-42.807-1.172-12.453-4.553-20.498-15.295-24.128-32.227l-17.122-97.656c-2.08-11.975-4.348-21.808-6.811-29.492-2.469-7.678-5.643-14.386-9.535-20.117-3.891-5.725-8.561-8.722-14.009-8.984-5.709.525-10.507,3.906-14.399,10.156s-7.005,13.477-9.339,21.68c-2.335,8.203-4.542,18.817-6.616,31.836l-12.842,87.891c-3.636,20.312-13.754,32.812-30.354,37.5-16.606,4.688-34.963,4.56-55.065-.391-20.108-4.943-37.231-11.651-51.368-20.117-14.144-8.459-20.692-15.82-19.652-22.07,16.344-63.019,31.911-127.862,46.698-194.531,10.118-46.094,20.559-91.339,31.327-135.742,10.763-44.396,22.243-86.523,34.44-126.367,3.892-12.5,15.238-22.198,34.051-29.102,18.807-6.896,38.849-10.217,60.125-9.961ZM220.863,306.797h-1.167c-5.71.781-10.185,4.041-13.426,9.766-3.247,5.731-5.643,12.635-7.2,20.703-1.557,8.075-2.596,16.211-3.113,24.414-.523,8.203-.651,17.773-.389,28.711l50.59-1.953c0-10.938-.328-20.44-.973-28.516-.65-8.068-1.818-16.144-3.502-24.219-1.691-8.068-4.221-14.844-7.589-20.312-3.375-5.469-7.783-8.331-13.231-8.594Z" fill="#fff"/>
</svg>