<?xml version="1.0" encoding="UTF-8"?>
<svg id="Capa_2" xmlns="http://www.w3.org/2000/svg" viewBox="0 0 423.048 762.032">
	<g id="Capa_2-2">
		<path d="M181.948,139.609c29.314,0,53.897,2.997,73.745,8.984,19.847,5.994,36.902,13.672,51.174,23.047,19.458,14.588,33.333,33.203,41.64,55.859,8.3,22.656,9.662,44.336,4.086,65.039-5.582,20.703-19.524,41.083-41.834,61.133l-34.246,30.078c17.378,4.432,39.433,12.372,66.156,23.828,8.039,2.606,16.601,8.466,25.685,17.578,9.078,9.119,16.15,23.047,21.209,41.797,5.06,18.75,5.509,43.75,1.362,75-4.153,29.688-15.311,55.145-33.468,76.367-18.162,21.229-40.667,37.695-67.519,49.414s-55.716,18.23-86.587,19.531c-32.951-.256-63.043-4.748-90.284-13.477-27.241-8.723-45.404-20.703-54.482-35.938-9.084-15.234-17.901-41.857-26.462-79.883-5.971-45.312-9.602-94.336-10.896-147.071-1.301-52.734-1.04-109.045.778-168.945,1.812-54.688,5.509-83.398,11.091-86.133,5.576-2.734,14.137-5.401,25.685-8.008,11.541-2.6,40.667-4.815,87.365-6.641,12.708-1.037,24.645-1.562,35.803-1.562ZM199.071,454.062c-12.976,0-23.872,2.539-32.689,7.617-8.823,5.079-13.231,12.44-13.231,22.071l6.616,85.938c2.59,10.156,9.534,17.059,20.82,20.703,11.286,3.65,23.866,3.65,37.748,0,13.876-3.645,26.073-11.262,36.581-22.852,10.507-11.584,16.405-27.277,17.706-47.07.256-15.363-3.308-27.93-10.702-37.695-7.394-9.766-16.8-16.993-28.214-21.68-11.419-4.688-22.959-7.031-34.634-7.031ZM190.898,223.203h-2.335c-9.084.525-16.928,2.539-23.544,6.055-6.615,3.516-9.923,8.008-9.923,13.477v71.875c0,7.031,3.953,11.268,11.869,12.695,7.911,1.435,17.25.263,28.02-3.516,10.763-3.771,20.297-10.352,28.603-19.727,8.3-9.375,12.708-21.484,13.23-36.328-.522-15.881-5.447-27.276-14.787-34.18-9.34-6.896-19.719-10.352-31.133-10.352Z" fill="#fff" stroke="#1f140f" stroke-dasharray="15" stroke-miterlimit="10" stroke-width="30"/>
		<path d="M181.948,139.609c29.314,0,53.897,2.997,73.745,8.984,19.847,5.994,36.902,13.672,51.174,23.047,19.458,14.588,33.333,33.203,41.64,55.859,8.3,22.656,9.662,44.336,4.086,65.039-5.582,20.703-19.524,41.083-41.834,61.133l-34.246,30.078c17.378,4.432,39.433,12.372,66.156,23.828,8.039,2.606,16.601,8.466,25.685,17.578,9.078,9.119,16.15,23.047,21.209,41.797,5.06,18.75,5.509,43.75,1.362,75-4.153,29.688-15.311,55.145-33.468,76.367-18.162,21.229-40.667,37.695-67.519,49.414s-55.716,18.23-86.587,19.531c-32.951-.256-63.043-4.748-90.284-13.477-27.241-8.723-45.404-20.703-54.482-35.938-9.084-15.234-17.901-41.857-26.462-79.883-5.971-45.312-9.602-94.336-10.896-147.071-1.301-52.734-1.04-109.045.778-168.945,1.812-54.688,5.509-83.398,11.091-86.133,5.576-2.734,14.137-5.401,25.685-8.008,11.541-2.6,40.667-4.815,87.365-6.641,12.708-1.037,24.645-1.562,35.803-1.562ZM199.071,454.062c-12.976,0-23.872,2.539-32.689,7.617-8.823,5.079-13.231,12.44-13.231,22.071l6.616,85.938c2.59,10.156,9.534,17.059,20.82,20.703,11.286,3.65,23.866,3.65,37.748,0,13.876-3.645,26.073-11.262,36.581-22.852,10.507-11.584,16.405-27.277,17.706-47.07.256-15.363-3.308-27.93-10.702-37.695-7.394-9.766-16.8-16.993-28.214-21.68-11.419-4.688-22.959-7.031-34.634-7.031ZM190.898,223.203h-2.335c-9.084.525-16.928,2.539-23.544,6.055-6.615,3.516-9.923,8.008-9.923,13.477v71.875c0,7.031,3.953,11.268,11.869,12.695,7.911,1.435,17.25.263,28.02-3.516,10.763-3.771,20.297-10.352,28.603-19.727,8.3-9.375,12.708-21.484,13.23-36.328-.522-15.881-5.447-27.276-14.787-34.18-9.34-6.896-19.719-10.352-31.133-10.352Z" fill="#fff"/>
	</g>
</svg>