<?xml version="1.0" encoding="UTF-8"?>
<svg id="Capa_2" xmlns="http://www.w3.org/2000/svg" viewBox="0 0 471.303 762.032">
	<g id="LetraC">
		<path d="M239.543,177.109c28.798-1.3,57.206-.977,85.226.977,28.019,1.953,52.469,7.166,73.355,15.625,20.881,8.466,35.219,21.619,43.002,39.453,7.783,17.841,5.965,41.864-5.448,72.07-10.38,13.807-20.887,21.875-31.521,24.219-10.642,2.344-21.276,1.172-31.911-3.516-10.641-4.688-21.275-10.803-31.911-18.359-29.837-13.8-55.588-17.706-77.247-11.719-21.665,5.994-40.083,20.38-55.26,43.164-15.177,22.791-27.569,52.283-37.165,88.477-3.113,18.494-1.751,37.305,4.086,56.446,5.837,19.141,14.654,34.832,26.463,47.07,11.802,12.244,25.228,17.322,40.277,15.234,15.044-2.082,30.354-14.973,45.921-38.672,7.26-13.537,16.473-21.936,27.63-25.195,11.152-3.254,23.41-3.381,36.775-.391,13.359,2.996,27.174,7.098,41.445,12.305,14.01,5.213,23.088,12.891,27.241,23.047,4.146,10.156,5.253,20.184,3.308,30.078-1.946,9.9-4.998,17.059-9.146,21.484-1.301,2.088-2.597,4.297-3.892,6.641-10.641,19.531-23.094,37.371-37.358,53.516-14.271,16.15-34.246,27.344-59.931,33.594s-60.97,4.297-105.85-5.859c-47.477-13.281-84.252-32.031-110.326-56.25-26.074-24.219-44.042-50.646-53.898-79.297-9.862-28.645-14.398-56.25-13.62-82.813,10.374-55.987,23.994-100.714,40.861-134.18,16.861-33.459,34.957-58.722,54.287-75.781,19.324-17.053,37.876-28.839,55.649-35.352,17.768-6.506,32.622-10.675,44.559-12.5,5.965-1.3,10.762-2.472,14.398-3.516Z" fill="#fff" stroke="#1f140f" stroke-dasharray="15" stroke-miterlimit="10" stroke-width="30"/>
		<path d="M239.543,177.109c28.798-1.3,57.206-.977,85.226.977,28.019,1.953,52.469,7.166,73.355,15.625,20.881,8.466,35.219,21.619,43.002,39.453,7.783,17.841,5.965,41.864-5.448,72.07-10.38,13.807-20.887,21.875-31.521,24.219-10.642,2.344-21.276,1.172-31.911-3.516-10.641-4.688-21.275-10.803-31.911-18.359-29.837-13.8-55.588-17.706-77.247-11.719-21.665,5.994-40.083,20.38-55.26,43.164-15.177,22.791-27.569,52.283-37.165,88.477-3.113,18.494-1.751,37.305,4.086,56.446,5.837,19.141,14.654,34.832,26.463,47.07,11.802,12.244,25.228,17.322,40.277,15.234,15.044-2.082,30.354-14.973,45.921-38.672,7.26-13.537,16.473-21.936,27.63-25.195,11.152-3.254,23.41-3.381,36.775-.391,13.359,2.996,27.174,7.098,41.445,12.305,14.01,5.213,23.088,12.891,27.241,23.047,4.146,10.156,5.253,20.184,3.308,30.078-1.946,9.9-4.998,17.059-9.146,21.484-1.301,2.088-2.597,4.297-3.892,6.641-10.641,19.531-23.094,37.371-37.358,53.516-14.271,16.15-34.246,27.344-59.931,33.594s-60.97,4.297-105.85-5.859c-47.477-13.281-84.252-32.031-110.326-56.25-26.074-24.219-44.042-50.646-53.898-79.297-9.862-28.645-14.398-56.25-13.62-82.813,10.374-55.987,23.994-100.714,40.861-134.18,16.861-33.459,34.957-58.722,54.287-75.781,19.324-17.053,37.876-28.839,55.649-35.352,17.768-6.506,32.622-10.675,44.559-12.5,5.965-1.3,10.762-2.472,14.398-3.516Z" fill="#fff"/>
	</g>
</svg>