<?xml version="1.0" encoding="UTF-8"?>
<svg id="Capa_2" xmlns="http://www.w3.org/2000/svg" viewBox="0 0 434.333 762.032">
	<g id="LetraD">
		<path d="M173.387,132.578c17.378,0,32.166,1.435,44.364,4.297,3.629-1.562,14.204,1.044,31.716,7.812,17.512,6.775,37.358,19.275,59.54,37.5,22.183,18.231,42.157,43.622,59.931,76.172,17.768,32.557,28.73,73.828,32.884,123.828,2.59,48.438-3.697,91.602-18.874,129.493-15.178,37.891-35.158,69.988-59.931,96.289-24.778,26.307-50.396,46.229-76.858,59.766-26.462,13.543-49.684,20.057-69.658,19.531-22.054-1.818-45.337-10.09-69.854-24.805-24.517-14.709-41.707-29.748-51.563-45.117-7.528-13.537-12.647-41.992-15.372-85.352s-3.636-91.272-2.724-143.75c.906-52.472,3.046-99.023,6.421-139.648,3.369-40.625,7.26-64.709,11.675-72.266,11.675-16.144,28.664-27.472,50.979-33.984,22.31-6.506,44.753-9.766,67.324-9.766ZM194.79,311.094c-11.936.263-18.29,6.385-19.068,18.359l3.113,158.594c.517,11.463,5.12,18.164,13.815,20.117,8.689,1.953,18.679-.451,29.964-7.227,11.286-6.77,21.209-17.639,29.771-32.617,8.562-14.972,12.97-33.79,13.231-56.446-.262-22.912-4.348-41.857-12.258-56.836-7.917-14.972-17.318-26.104-28.214-33.398-10.896-7.287-21.015-10.803-30.354-10.547Z" fill="#fff" stroke="#1f140f" stroke-dasharray="15" stroke-miterlimit="10" stroke-width="30"/>
		<path d="M173.387,132.578c17.378,0,32.166,1.435,44.364,4.297,3.629-1.562,14.204,1.044,31.716,7.812,17.512,6.775,37.358,19.275,59.54,37.5,22.183,18.231,42.157,43.622,59.931,76.172,17.768,32.557,28.73,73.828,32.884,123.828,2.59,48.438-3.697,91.602-18.874,129.493-15.178,37.891-35.158,69.988-59.931,96.289-24.778,26.307-50.396,46.229-76.858,59.766-26.462,13.543-49.684,20.057-69.658,19.531-22.054-1.818-45.337-10.09-69.854-24.805-24.517-14.709-41.707-29.748-51.563-45.117-7.528-13.537-12.647-41.992-15.372-85.352s-3.636-91.272-2.724-143.75c.906-52.472,3.046-99.023,6.421-139.648,3.369-40.625,7.26-64.709,11.675-72.266,11.675-16.144,28.664-27.472,50.979-33.984,22.31-6.506,44.753-9.766,67.324-9.766ZM194.79,311.094c-11.936.263-18.29,6.385-19.068,18.359l3.113,158.594c.517,11.463,5.12,18.164,13.815,20.117,8.689,1.953,18.679-.451,29.964-7.227,11.286-6.77,21.209-17.639,29.771-32.617,8.562-14.972,12.97-33.79,13.231-56.446-.262-22.912-4.348-41.857-12.258-56.836-7.917-14.972-17.318-26.104-28.214-33.398-10.896-7.287-21.015-10.803-30.354-10.547Z" fill="#fff"/>
	</g>
</svg>