<?xml version="1.0" encoding="UTF-8"?>
<svg id="Capa_2" xmlns="http://www.w3.org/2000/svg" viewBox="0 0 349.886 762.032">
	<g id="LetraE">
		<path d="M184.672,170.859c38.138-2.081,65.634-2.734,82.501-1.953,15.305,1.825,25.49,8.789,30.549,20.898,5.06,12.109,6.743,25.977,5.06,41.602-1.69,15.625-5.06,29.755-10.118,42.383-5.06,12.635-9.924,20.508-14.594,23.633-14.788,2.606-30.293,3.778-46.504,3.516-16.217-.256-36.131-1.562-59.735-3.906v71.094c16.6-.256,30.609-.128,42.029.391,11.413.525,22.309,1.825,32.689,3.906,13.486,20.312,21.337,39.062,23.544,56.25,2.201,17.188.645,31.122-4.67,41.797-5.32,10.682-12.52,16.406-21.599,17.188-21.275,0-46.181.135-74.717.391v68.359c46.437-2.344,86.392-3.125,119.86-2.344,15.821,1.043,25.685,7.488,29.576,19.336,3.892,11.854,4.146,25.391.778,40.625-3.375,15.234-8.112,28.455-14.204,39.648-6.1,11.199-11.092,16.797-14.983,16.797-12.197.262-24.517.652-36.97,1.172-29.059,1.043-58.051,1.629-86.976,1.758-28.931.135-57.011-1.496-84.252-4.883-5.71.262-11.286-6.445-16.734-20.117s-10.641-32.227-15.566-55.664c-4.931-23.438-9.212-49.805-12.842-79.102-3.636-29.297-6.421-59.571-8.367-90.821s-2.724-61.584-2.335-91.016c.389-29.425,2.201-55.987,5.448-79.688,3.241-23.693,8.105-42.578,14.593-56.641,6.482-14.062,15.043-21.094,25.685-21.094,37.359-.256,74.973-1.428,112.855-3.516Z" fill="#fff" stroke="#1f140f" stroke-dasharray="15" stroke-miterlimit="10" stroke-width="30"/>
		<path d="M184.672,170.859c38.138-2.081,65.634-2.734,82.501-1.953,15.305,1.825,25.49,8.789,30.549,20.898,5.06,12.109,6.743,25.977,5.06,41.602-1.69,15.625-5.06,29.755-10.118,42.383-5.06,12.635-9.924,20.508-14.594,23.633-14.788,2.606-30.293,3.778-46.504,3.516-16.217-.256-36.131-1.562-59.735-3.906v71.094c16.6-.256,30.609-.128,42.029.391,11.413.525,22.309,1.825,32.689,3.906,13.486,20.312,21.337,39.062,23.544,56.25,2.201,17.188.645,31.122-4.67,41.797-5.32,10.682-12.52,16.406-21.599,17.188-21.275,0-46.181.135-74.717.391v68.359c46.437-2.344,86.392-3.125,119.86-2.344,15.821,1.043,25.685,7.488,29.576,19.336,3.892,11.854,4.146,25.391.778,40.625-3.375,15.234-8.112,28.455-14.204,39.648-6.1,11.199-11.092,16.797-14.983,16.797-12.197.262-24.517.652-36.97,1.172-29.059,1.043-58.051,1.629-86.976,1.758-28.931.135-57.011-1.496-84.252-4.883-5.71.262-11.286-6.445-16.734-20.117s-10.641-32.227-15.566-55.664c-4.931-23.438-9.212-49.805-12.842-79.102-3.636-29.297-6.421-59.571-8.367-90.821s-2.724-61.584-2.335-91.016c.389-29.425,2.201-55.987,5.448-79.688,3.241-23.693,8.105-42.578,14.593-56.641,6.482-14.062,15.043-21.094,25.685-21.094,37.359-.256,74.973-1.428,112.855-3.516Z" fill="#fff"/>
	</g>
</svg>