<?xml version="1.0" encoding="UTF-8"?>
<svg id="Capa_2" xmlns="http://www.w3.org/2000/svg" viewBox="0 0 382.965 762.032">
	<g id="LetraF">
		<path d="M27.842,224.766c1.295-10.412,3.502-19.396,6.616-26.953,3.113-7.55,8.494-15.1,16.15-22.656,7.649-7.55,18.29-13.867,31.911-18.945s31.193-7.617,52.731-7.617c72.383-.256,127.509,3.064,165.391,9.961,37.876,6.903,56.944,19.208,57.206,36.914,1.033,14.844,1.617,30.469,1.751,46.875.128,16.406-1.106,30.078-3.697,41.016-2.857,7.557-11.936,11.2-27.24,10.938-15.312-.256-33.213-1.818-53.704-4.688-20.236-2.862-39.11-4.553-56.622-5.078-17.512-.519-30.032,2.606-37.553,9.375-5.193,5.731-8.628,11.591-10.313,17.578-1.69,5.994-2.14,11.719-1.362,17.188s2.073,10.419,3.892,14.844c1.812,4.432,4.408,9.119,7.783,14.062,15.043-1.818,27.952-2.862,38.72-3.125,10.763-.256,21.599.263,32.495,1.562,10.896,1.307,20.103,3.974,27.63,8.008,7.521,4.041,11.675,9.961,12.453,17.773.255,3.906.517,8.075.778,12.5.517,9.9.839,19.989.973,30.273.128,10.291-.522,19.794-1.945,28.516-1.43,8.729-4.221,15.887-8.367,21.485-4.153,5.604-10.252,8.398-18.29,8.398-12.198,0-25.04-.061-38.526-.195-13.493-.129-29.576-.324-48.255-.586v71.094c-1.04,11.719-1.818,25.135-2.335,40.234-.778,25-2.208,45.312-4.281,60.938-.778,5.213-8.367,11.133-22.766,17.773-14.399,6.641-31.005,11.395-49.812,14.258-18.813,2.869-35.286,1.172-49.423-5.078-14.144-6.25-21.598-19.66-22.376-40.234-4.67-70.568-6.75-141.857-6.227-213.868.517-72.003,2.724-139.514,6.616-202.539Z" fill="#fff" stroke="#1f140f" stroke-dasharray="15" stroke-miterlimit="10" stroke-width="30"/>
		<path d="M27.842,224.766c1.295-10.412,3.502-19.396,6.616-26.953,3.113-7.55,8.494-15.1,16.15-22.656,7.649-7.55,18.29-13.867,31.911-18.945s31.193-7.617,52.731-7.617c72.383-.256,127.509,3.064,165.391,9.961,37.876,6.903,56.944,19.208,57.206,36.914,1.033,14.844,1.617,30.469,1.751,46.875.128,16.406-1.106,30.078-3.697,41.016-2.857,7.557-11.936,11.2-27.24,10.938-15.312-.256-33.213-1.818-53.704-4.688-20.236-2.862-39.11-4.553-56.622-5.078-17.512-.519-30.032,2.606-37.553,9.375-5.193,5.731-8.628,11.591-10.313,17.578-1.69,5.994-2.14,11.719-1.362,17.188s2.073,10.419,3.892,14.844c1.812,4.432,4.408,9.119,7.783,14.062,15.043-1.818,27.952-2.862,38.72-3.125,10.763-.256,21.599.263,32.495,1.562,10.896,1.307,20.103,3.974,27.63,8.008,7.521,4.041,11.675,9.961,12.453,17.773.255,3.906.517,8.075.778,12.5.517,9.9.839,19.989.973,30.273.128,10.291-.522,19.794-1.945,28.516-1.43,8.729-4.221,15.887-8.367,21.485-4.153,5.604-10.252,8.398-18.29,8.398-12.198,0-25.04-.061-38.526-.195-13.493-.129-29.576-.324-48.255-.586v71.094c-1.04,11.719-1.818,25.135-2.335,40.234-.778,25-2.208,45.312-4.281,60.938-.778,5.213-8.367,11.133-22.766,17.773-14.399,6.641-31.005,11.395-49.812,14.258-18.813,2.869-35.286,1.172-49.423-5.078-14.144-6.25-21.598-19.66-22.376-40.234-4.67-70.568-6.75-141.857-6.227-213.868.517-72.003,2.724-139.514,6.616-202.539Z" fill="#fff"/>
	</g>
</svg>