<?xml version="1.0" encoding="UTF-8"?>
<svg id="Capa_2" xmlns="http://www.w3.org/2000/svg" viewBox="0 0 484.146 762.032">
	<g id="LetraG">
		<path d="M225.533,168.125c35.024-7.031,67.579-9.826,97.679-8.398,30.093,1.435,53.314,10.419,69.658,26.953,16.345,16.541,21.404,43.945,15.178,82.227-8.307,16.406-17.646,26.893-28.02,31.445-10.38,4.56-21.403,5.536-33.078,2.93-11.675-2.6-23.738-6.769-36.191-12.5-33.212-8.068-60.319-6.896-81.334,3.516-21.014,10.419-37.037,28.778-48.061,55.078-11.03,26.307-17.84,58.984-20.431,98.047.517,19.532,5.643,38.477,15.372,56.836s21.854,32.617,36.386,42.773c14.526,10.156,29.314,12.695,44.363,7.617,15.044-5.078,28.02-21.289,38.916-48.633.517-1.301.906-2.6,1.167-3.906,1.296-3.906,2.335-8.918,3.113-15.039.778-6.115.128-11.779-1.945-16.992-1.818-3.381-4.348-6.506-7.589-9.375-3.247-2.862-6.555-5.334-9.923-7.422-3.375-2.081-7.528-4.425-12.453-7.031-6.227-1.818-10.058-7.287-11.48-16.406-1.429-9.112-.845-19.201,1.751-30.273,2.591-11.065,6.871-20.568,12.843-28.516,5.965-7.94,13.23-11.523,21.792-10.742,25.162-2.081,46.565-2.93,64.211-2.539,17.64.391,34.635,2.674,50.979,6.836,16.345,4.169,28.798,11.2,37.359,21.094,8.038,10.938,12.258,25.33,12.647,43.164.389,17.841-1.168,35.81-4.67,53.907-3.502,18.104-6.944,33.008-10.312,44.727-.778,6.775-2.469,11.98-5.06,15.625-.778,2.605-1.69,5.213-2.724,7.812-6.75,22.137-15.828,42.908-27.241,62.305-11.419,19.402-29.643,34.832-54.676,46.289-25.04,11.463-61.554,16.406-109.548,14.844-51.369-3.906-92.753-15.625-124.141-35.156-31.394-19.531-55.005-43.029-70.827-70.508-15.828-27.473-25.946-54.883-30.354-82.227-.523-59.375,4.536-107.874,15.177-145.508,10.635-37.628,24.127-67.053,40.472-88.281,16.344-21.222,32.944-36.914,49.812-47.07,16.861-10.156,31.388-17.443,43.585-21.875,5.704-2.344,10.246-4.425,13.621-6.25,14.526-3.381,29.187-6.506,43.974-9.375Z" fill="#fff" stroke="#1f140f" stroke-dasharray="15" stroke-miterlimit="10" stroke-width="30"/>
		<path d="M225.533,168.125c35.024-7.031,67.579-9.826,97.679-8.398,30.093,1.435,53.314,10.419,69.658,26.953,16.345,16.541,21.404,43.945,15.178,82.227-8.307,16.406-17.646,26.893-28.02,31.445-10.38,4.56-21.403,5.536-33.078,2.93-11.675-2.6-23.738-6.769-36.191-12.5-33.212-8.068-60.319-6.896-81.334,3.516-21.014,10.419-37.037,28.778-48.061,55.078-11.03,26.307-17.84,58.984-20.431,98.047.517,19.532,5.643,38.477,15.372,56.836s21.854,32.617,36.386,42.773c14.526,10.156,29.314,12.695,44.363,7.617,15.044-5.078,28.02-21.289,38.916-48.633.517-1.301.906-2.6,1.167-3.906,1.296-3.906,2.335-8.918,3.113-15.039.778-6.115.128-11.779-1.945-16.992-1.818-3.381-4.348-6.506-7.589-9.375-3.247-2.862-6.555-5.334-9.923-7.422-3.375-2.081-7.528-4.425-12.453-7.031-6.227-1.818-10.058-7.287-11.48-16.406-1.429-9.112-.845-19.201,1.751-30.273,2.591-11.065,6.871-20.568,12.843-28.516,5.965-7.94,13.23-11.523,21.792-10.742,25.162-2.081,46.565-2.93,64.211-2.539,17.64.391,34.635,2.674,50.979,6.836,16.345,4.169,28.798,11.2,37.359,21.094,8.038,10.938,12.258,25.33,12.647,43.164.389,17.841-1.168,35.81-4.67,53.907-3.502,18.104-6.944,33.008-10.312,44.727-.778,6.775-2.469,11.98-5.06,15.625-.778,2.605-1.69,5.213-2.724,7.812-6.75,22.137-15.828,42.908-27.241,62.305-11.419,19.402-29.643,34.832-54.676,46.289-25.04,11.463-61.554,16.406-109.548,14.844-51.369-3.906-92.753-15.625-124.141-35.156-31.394-19.531-55.005-43.029-70.827-70.508-15.828-27.473-25.946-54.883-30.354-82.227-.523-59.375,4.536-107.874,15.177-145.508,10.635-37.628,24.127-67.053,40.472-88.281,16.344-21.222,32.944-36.914,49.812-47.07,16.861-10.156,31.388-17.443,43.585-21.875,5.704-2.344,10.246-4.425,13.621-6.25,14.526-3.381,29.187-6.506,43.974-9.375Z" fill="#fff"/>
	</g>
</svg>