<?xml version="1.0" encoding="UTF-8"?>
<svg id="Capa_2" xmlns="http://www.w3.org/2000/svg" viewBox="0 0 469.357 762.032">
	<g id="LetraH">
		<path d="M53.721,147.617c16.21-5.078,34.635-5.273,55.26-.586,20.625,4.688,38.654,11.2,54.092,19.531,15.433,8.338,23.283,15.369,23.544,21.094l6.227,147.266c4.925,9.119,9.729,16.602,14.399,22.461s10.051,10.877,16.149,15.039c6.093,4.169,12.647,5.994,19.652,5.469,5.704-.519,10.18-2.404,13.427-5.664,3.24-3.253,5.703-7.159,7.394-11.719,1.685-4.553,2.724-9.045,3.113-13.477.389-4.425.45-9.631.194-15.625l-2.724-142.578c.778-6.25,7.978-12.628,21.598-19.141,13.621-6.506,29.509-11.328,47.672-14.453,18.156-3.125,34.373-2.472,48.645,1.953,14.265,4.432,22.31,14.325,24.128,29.688,9.34,68.494,16.345,143.359,21.014,224.609,4.67,81.25,7.522,156.122,8.562,224.61-.261,5.469-7.722,12.305-22.376,20.508-14.66,8.203-32.045,14.844-52.147,19.922-20.108,5.078-38.398,5.73-54.871,1.953-16.478-3.771-26.656-14.648-30.548-32.617l-3.503-90.234c-.262-8.85-2.529-18.225-6.811-28.125-4.28-9.895-10.963-15.234-20.041-16.016-10.118.781-20.759,5.799-31.911,15.039-11.158,9.246-16.734,18.945-16.734,29.102l4.67,100.391c.255,13.025-6.877,22.205-21.403,27.539-14.533,5.34-31.656,7.684-51.369,7.031-19.719-.646-37.298-3.381-52.731-8.203-15.438-4.816-23.933-10.607-25.49-17.383-9.084-76.037-15.828-156.965-20.236-242.774-4.415-85.803-5.71-164.258-3.892-235.352,1.812-21.094,10.83-34.18,27.046-39.258Z" fill="#fff" stroke="#1f140f" stroke-dasharray="15" stroke-miterlimit="10" stroke-width="30"/>
		<path d="M53.721,147.617c16.21-5.078,34.635-5.273,55.26-.586,20.625,4.688,38.654,11.2,54.092,19.531,15.433,8.338,23.283,15.369,23.544,21.094l6.227,147.266c4.925,9.119,9.729,16.602,14.399,22.461s10.051,10.877,16.149,15.039c6.093,4.169,12.647,5.994,19.652,5.469,5.704-.519,10.18-2.404,13.427-5.664,3.24-3.253,5.703-7.159,7.394-11.719,1.685-4.553,2.724-9.045,3.113-13.477.389-4.425.45-9.631.194-15.625l-2.724-142.578c.778-6.25,7.978-12.628,21.598-19.141,13.621-6.506,29.509-11.328,47.672-14.453,18.156-3.125,34.373-2.472,48.645,1.953,14.265,4.432,22.31,14.325,24.128,29.688,9.34,68.494,16.345,143.359,21.014,224.609,4.67,81.25,7.522,156.122,8.562,224.61-.261,5.469-7.722,12.305-22.376,20.508-14.66,8.203-32.045,14.844-52.147,19.922-20.108,5.078-38.398,5.73-54.871,1.953-16.478-3.771-26.656-14.648-30.548-32.617l-3.503-90.234c-.262-8.85-2.529-18.225-6.811-28.125-4.28-9.895-10.963-15.234-20.041-16.016-10.118.781-20.759,5.799-31.911,15.039-11.158,9.246-16.734,18.945-16.734,29.102l4.67,100.391c.255,13.025-6.877,22.205-21.403,27.539-14.533,5.34-31.656,7.684-51.369,7.031-19.719-.646-37.298-3.381-52.731-8.203-15.438-4.816-23.933-10.607-25.49-17.383-9.084-76.037-15.828-156.965-20.236-242.774-4.415-85.803-5.71-164.258-3.892-235.352,1.812-21.094,10.83-34.18,27.046-39.258Z" fill="#fff"/>
	</g>
</svg>