<?xml version="1.0" encoding="UTF-8"?>
<svg id="Capa_2" xmlns="http://www.w3.org/2000/svg" viewBox="0 0 223.8 762.032">
	<g id="LetraI">
		<path d="M49.246,196.836c16.6-10.284,35.541-15.948,56.817-16.992,21.27-1.037,39.822,3.26,55.649,12.891,15.822,9.638,23.866,25.525,24.127,47.656l1.946,100.781v24.219c-.261,23.438-.194,48.768.195,75.977.389,27.215,1.751,53.711,4.086,79.493l4.67,81.641c.255,11.199-6.421,21.289-20.042,30.273s-29.965,14.648-49.034,16.992c-19.068,2.344-36.581-.977-52.536-9.961-15.955-8.984-26.14-25.842-30.549-50.586-8.823-60.156-15.372-119.465-19.652-177.93-4.281-58.459-5.387-115.948-3.308-172.461,1.812-17.706,11.024-31.701,27.63-41.992Z" fill="#fff" stroke="#1f140f" stroke-dasharray="15" stroke-miterlimit="10" stroke-width="30"/>
		<path d="M49.246,196.836c16.6-10.284,35.541-15.948,56.817-16.992,21.27-1.037,39.822,3.26,55.649,12.891,15.822,9.638,23.866,25.525,24.127,47.656l1.946,100.781v24.219c-.261,23.438-.194,48.768.195,75.977.389,27.215,1.751,53.711,4.086,79.493l4.67,81.641c.255,11.199-6.421,21.289-20.042,30.273s-29.965,14.648-49.034,16.992c-19.068,2.344-36.581-.977-52.536-9.961-15.955-8.984-26.14-25.842-30.549-50.586-8.823-60.156-15.372-119.465-19.652-177.93-4.281-58.459-5.387-115.948-3.308-172.461,1.812-17.706,11.024-31.701,27.63-41.992Z" fill="#fff"/>
	</g>
</svg>