<?xml version="1.0" encoding="UTF-8"?>
<svg id="Capa_2" xmlns="http://www.w3.org/2000/svg" viewBox="0 0 410.595 762.032">
	<g id="J">
		<path d="M99.836,163.828h184.849c12.971.263,24.384.135,34.246-.391,12.709-.781,22.96-.519,30.743.781,7.783,1.307,13.487,5.469,17.123,12.5,3.63,7.031,5.704,18.885,6.227,35.547v290.235c1.812,42.449-6.749,77.088-25.685,103.906-18.94,26.824-43.913,45.898-74.912,57.227-31.005,11.328-63.433,15.105-97.289,11.328-33.856-3.771-64.733-15.295-92.619-34.57-27.892-19.27-48.322-46.094-61.292-80.469-2.335-13.801-3.502-27.99-3.502-42.578v-2.344c-1.301-22.131,1.812-39.514,9.34-52.149,7.521-12.628,17.64-21.484,30.354-26.562,12.708-5.078,26.329-7.482,40.861-7.227,14.01,0,26.718,2.021,38.137,6.055,11.414,4.041,20.625,12.177,27.63,24.414,7.005,12.245,10.635,30.34,10.896,54.297.778,17.969,4.147,30.34,10.118,37.109,5.965,6.775,11.414,10.027,16.345,9.766,5.448,0,11.48-2.99,18.095-8.984,6.616-5.988,10.18-16.406,10.702-31.25l-4.67-224.219-102.737-1.562c-16.606-.256-29.321-6.964-38.137-20.117-8.823-13.146-14.01-28.448-15.566-45.898-1.557-17.443.255-32.678,5.448-45.703,5.187-13.019,13.62-19.396,25.295-19.141Z" fill="#fff" stroke="#1f140f" stroke-dasharray="15" stroke-miterlimit="10" stroke-width="30"/>
		<path d="M99.836,163.828h184.849c12.971.263,24.384.135,34.246-.391,12.709-.781,22.96-.519,30.743.781,7.783,1.307,13.487,5.469,17.123,12.5,3.63,7.031,5.704,18.885,6.227,35.547v290.235c1.812,42.449-6.749,77.088-25.685,103.906-18.94,26.824-43.913,45.898-74.912,57.227-31.005,11.328-63.433,15.105-97.289,11.328-33.856-3.771-64.733-15.295-92.619-34.57-27.892-19.27-48.322-46.094-61.292-80.469-2.335-13.801-3.502-27.99-3.502-42.578v-2.344c-1.301-22.131,1.812-39.514,9.34-52.149,7.521-12.628,17.64-21.484,30.354-26.562,12.708-5.078,26.329-7.482,40.861-7.227,14.01,0,26.718,2.021,38.137,6.055,11.414,4.041,20.625,12.177,27.63,24.414,7.005,12.245,10.635,30.34,10.896,54.297.778,17.969,4.147,30.34,10.118,37.109,5.965,6.775,11.414,10.027,16.345,9.766,5.448,0,11.48-2.99,18.095-8.984,6.616-5.988,10.18-16.406,10.702-31.25l-4.67-224.219-102.737-1.562c-16.606-.256-29.321-6.964-38.137-20.117-8.823-13.146-14.01-28.448-15.566-45.898-1.557-17.443.255-32.678,5.448-45.703,5.187-13.019,13.62-19.396,25.295-19.141Z" fill="#fff"/>
	</g>
</svg>