<?xml version="1.0" encoding="UTF-8"?>
<svg id="Capa_2" xmlns="http://www.w3.org/2000/svg" viewBox="0 0 427.718 762.032">
	<g id="LetraK">
		<path d="M43.408,154.062c15.566-5.469,33.401-7.422,53.509-5.859,20.102,1.562,37.748,5.664,52.925,12.305,15.177,6.641,23.021,14.648,23.544,24.023l-1.946,109.375,139.318-129.297c9.34-9.112,20.819-9.112,34.44,0,13.62,9.119,25.684,23.377,36.191,42.773,10.507,19.403,15.627,39.911,15.371,61.523l-123.362,137.891,103.516,141.797c7.005,10.682,7.005,20.77,0,30.273-7.005,9.51-17.707,18.104-32.105,25.781-14.398,7.684-28.992,14.129-43.78,19.336-14.788,5.213-26.335,8.729-34.635,10.547l-101.958-141.797,3.502,159.766c-10.118,3.65-23.155,7.031-39.11,10.156s-32.172,5.145-48.645,6.055c-16.478.916-30.293-.195-41.445-3.32-11.158-3.125-16.868-9.24-17.123-18.359l-3.502-462.5c1.295-14.844,9.729-25,25.295-30.469Z" fill="#fff" stroke="#1f140f" stroke-dasharray="15" stroke-miterlimit="10" stroke-width="30"/>
		<path d="M43.408,154.062c15.566-5.469,33.401-7.422,53.509-5.859,20.102,1.562,37.748,5.664,52.925,12.305,15.177,6.641,23.021,14.648,23.544,24.023l-1.946,109.375,139.318-129.297c9.34-9.112,20.819-9.112,34.44,0,13.62,9.119,25.684,23.377,36.191,42.773,10.507,19.403,15.627,39.911,15.371,61.523l-123.362,137.891,103.516,141.797c7.005,10.682,7.005,20.77,0,30.273-7.005,9.51-17.707,18.104-32.105,25.781-14.398,7.684-28.992,14.129-43.78,19.336-14.788,5.213-26.335,8.729-34.635,10.547l-101.958-141.797,3.502,159.766c-10.118,3.65-23.155,7.031-39.11,10.156s-32.172,5.145-48.645,6.055c-16.478.916-30.293-.195-41.445-3.32-11.158-3.125-16.868-9.24-17.123-18.359l-3.502-462.5c1.295-14.844,9.729-25,25.295-30.469Z" fill="#fff"/>
	</g>
</svg>