<?xml version="1.0" encoding="UTF-8"?>
<svg id="Capa_2" xmlns="http://www.w3.org/2000/svg" viewBox="0 0 421.491 762.032">
	<g id="LetraL">
		<path d="M29.788,497.032c-3.113-53.644-4.804-104.816-5.059-153.516.255-9.112.389-20.703.389-34.766.255-24.219.517-49.279.778-75.195.255-25.909.517-44.592.778-56.055.778-11.456,6.81-19.141,18.096-23.047s25.228-5.139,41.834-3.711c16.6,1.435,33.272,4.364,50.006,8.789,16.734,4.432,30.743,9.375,42.029,14.844s17.317,10.291,18.096,14.453c-.261,23.438-1.04,54.041-2.335,91.797-1.301,35.419-2.274,71.552-2.918,108.398-.651,36.854-.523,68.945.389,96.29.906,27.344,3.308,44.666,7.199,51.953,7.783,7.557,22.182,10.742,43.196,9.57,21.015-1.172,43.975-3.711,68.881-7.617,17.379-2.6,33.596-4.688,48.645-6.25,5.704,0,11.931,6.316,18.68,18.945,6.743,12.635,11.803,27.801,15.177,45.508,3.369,17.713,2.853,33.984-1.557,48.828-4.414,14.844-14.787,24.354-31.132,28.516-49.557,13.025-118.693,19.402-207.42,19.141-21.537,0-39.372-2.668-53.509-8.008-14.144-5.334-25.362-12.109-33.662-20.312-8.306-8.203-14.399-16.34-18.291-24.414-3.892-8.068-6.877-17.834-8.95-29.297-3.113-22.912-6.227-61.193-9.34-114.844Z" fill="#fff" stroke="#1f140f" stroke-dasharray="15" stroke-miterlimit="10" stroke-width="30"/>
		<path d="M29.788,497.032c-3.113-53.644-4.804-104.816-5.059-153.516.255-9.112.389-20.703.389-34.766.255-24.219.517-49.279.778-75.195.255-25.909.517-44.592.778-56.055.778-11.456,6.81-19.141,18.096-23.047s25.228-5.139,41.834-3.711c16.6,1.435,33.272,4.364,50.006,8.789,16.734,4.432,30.743,9.375,42.029,14.844s17.317,10.291,18.096,14.453c-.261,23.438-1.04,54.041-2.335,91.797-1.301,35.419-2.274,71.552-2.918,108.398-.651,36.854-.523,68.945.389,96.29.906,27.344,3.308,44.666,7.199,51.953,7.783,7.557,22.182,10.742,43.196,9.57,21.015-1.172,43.975-3.711,68.881-7.617,17.379-2.6,33.596-4.688,48.645-6.25,5.704,0,11.931,6.316,18.68,18.945,6.743,12.635,11.803,27.801,15.177,45.508,3.369,17.713,2.853,33.984-1.557,48.828-4.414,14.844-14.787,24.354-31.132,28.516-49.557,13.025-118.693,19.402-207.42,19.141-21.537,0-39.372-2.668-53.509-8.008-14.144-5.334-25.362-12.109-33.662-20.312-8.306-8.203-14.399-16.34-18.291-24.414-3.892-8.068-6.877-17.834-8.95-29.297-3.113-22.912-6.227-61.193-9.34-114.844Z" fill="#fff"/>
	</g>
</svg>