<?xml version="1.0" encoding="UTF-8"?>
<svg id="Capa_2" xmlns="http://www.w3.org/2000/svg" viewBox="0 0 537.07 762.032">
<g id="LetraM">
	<path d="M39.906,191.758c11.675-7.422,26.329-13.537,43.975-18.359,17.64-4.815,35.413-7.354,53.314-7.617,17.901-.256,33.079,2.674,45.532,8.789,12.453,6.122,19.068,16.346,19.847,30.664,2.852,28.125,6.093,48.114,9.729,59.961,3.63,11.854,8.755,24.677,15.372,38.477,6.615,13.807,15.11,21.094,25.489,21.875,10.118-.519,18.874-8.068,26.269-22.656,7.394-14.581,13.426-31.445,18.096-50.586s9.206-43.683,13.62-73.633c1.034-9.631,10.246-18.097,27.63-25.391,17.379-7.287,37.554-12.237,60.515-14.844,22.96-2.6,43.391-1.69,61.292,2.734,17.9,4.432,28.019,13.544,30.354,27.344,3.369,38.281,5.06,81.445,5.06,129.492s-.65,97.461-1.946,148.242c-1.817,70.838-2.079,135.809-.778,194.922-1.039,8.594-9.212,17.254-24.517,25.977-15.311,8.729-33.146,15.625-53.509,20.703-20.37,5.078-38.526,6.189-54.482,3.32-15.955-2.863-24.845-11.848-26.657-26.953l-5.059-214.454c-7.005,12.244-13.298,22.266-18.874,30.079-5.582,7.812-11.809,14.715-18.68,20.703-6.877,5.994-13.814,9.375-20.819,10.156-7.005,0-14.144-2.6-21.404-7.812-7.266-5.207-14.076-11.328-20.431-18.359-6.36-7.031-13.425-16.016-21.208-26.954l-2.724,198.829c-1.04,4.949-9.474,11.133-25.295,18.555-15.828,7.422-34.185,13.477-55.066,18.164-20.887,4.688-39.438,5.664-55.649,2.93-16.217-2.734-25.362-11.652-27.436-26.758-6.488-67.707-11.352-146.418-14.593-236.133-3.247-89.709-4.475-162.305-3.697-217.773-.523-8.331,5.059-16.211,16.733-23.633Z" fill="#fff" stroke="#1f140f" stroke-dasharray="15" stroke-miterlimit="10" stroke-width="30"/>
	<path d="M39.906,191.758c11.675-7.422,26.329-13.537,43.975-18.359,17.64-4.815,35.413-7.354,53.314-7.617,17.901-.256,33.079,2.674,45.532,8.789,12.453,6.122,19.068,16.346,19.847,30.664,2.852,28.125,6.093,48.114,9.729,59.961,3.63,11.854,8.755,24.677,15.372,38.477,6.615,13.807,15.11,21.094,25.489,21.875,10.118-.519,18.874-8.068,26.269-22.656,7.394-14.581,13.426-31.445,18.096-50.586s9.206-43.683,13.62-73.633c1.034-9.631,10.246-18.097,27.63-25.391,17.379-7.287,37.554-12.237,60.515-14.844,22.96-2.6,43.391-1.69,61.292,2.734,17.9,4.432,28.019,13.544,30.354,27.344,3.369,38.281,5.06,81.445,5.06,129.492s-.65,97.461-1.946,148.242c-1.817,70.838-2.079,135.809-.778,194.922-1.039,8.594-9.212,17.254-24.517,25.977-15.311,8.729-33.146,15.625-53.509,20.703-20.37,5.078-38.526,6.189-54.482,3.32-15.955-2.863-24.845-11.848-26.657-26.953l-5.059-214.454c-7.005,12.244-13.298,22.266-18.874,30.079-5.582,7.812-11.809,14.715-18.68,20.703-6.877,5.994-13.814,9.375-20.819,10.156-7.005,0-14.144-2.6-21.404-7.812-7.266-5.207-14.076-11.328-20.431-18.359-6.36-7.031-13.425-16.016-21.208-26.954l-2.724,198.829c-1.04,4.949-9.474,11.133-25.295,18.555-15.828,7.422-34.185,13.477-55.066,18.164-20.887,4.688-39.438,5.664-55.649,2.93-16.217-2.734-25.362-11.652-27.436-26.758-6.488-67.707-11.352-146.418-14.593-236.133-3.247-89.709-4.475-162.305-3.697-217.773-.523-8.331,5.059-16.211,16.733-23.633Z" fill="#fff"/>
</g>
</svg>