<?xml version="1.0" encoding="UTF-8"?>
<svg id="Capa_2" xmlns="http://www.w3.org/2000/svg" viewBox="0 0 447.175 762.032">
	<g id="LetraN">
		<path d="M38.739,639.61L18.892,188.828c-.523-7.55,5.576-13.995,18.291-19.336,12.708-5.334,28.019-9.045,45.92-11.133,17.901-2.081,34.306-2.148,49.228-.195,14.916,1.953,24.188,6.189,27.825,12.695l49.812,139.844c3.63,7.031,6.743,14.453,9.339,22.266,3.63,12.5,8.951,23.377,15.955,32.617,7.005,9.247,18.808,13.611,35.414,13.086l-1.557-48.438-5.448-150.781c-.523-7.55,5.965-13.928,19.457-19.141,13.487-5.206,29.637-8.722,48.45-10.547,18.808-1.818,35.735-1.172,50.785,1.953,15.043,3.125,23.738,9.51,26.073,19.141,4.147,76.825,6.811,154.169,7.978,232.031,1.168,77.87-.328,156.512-4.475,235.938-.523,12.244-6.227,22.266-17.123,30.078s-24.39,12.371-40.473,13.672c-16.089,1.307-32.172-1.428-48.255-8.203-16.09-6.77-29.576-18.615-40.473-35.547l-89.505-148.828c1.034,31.25,1.946,57.422,2.724,78.516s1.49,40.76,2.14,58.984c.645,18.23,1.101,30.604,1.362,37.109-5.448,9.9-15.566,16.541-30.354,19.922-14.788,3.387-30.743,3.973-47.866,1.758-17.123-2.209-31.978-7.287-44.558-15.234-12.587-7.941-19.525-18.42-20.82-31.445Z" fill="#fff" stroke="#1f140f" stroke-dasharray="15" stroke-miterlimit="10" stroke-width="30"/>
		<path d="M38.739,639.61L18.892,188.828c-.523-7.55,5.576-13.995,18.291-19.336,12.708-5.334,28.019-9.045,45.92-11.133,17.901-2.081,34.306-2.148,49.228-.195,14.916,1.953,24.188,6.189,27.825,12.695l49.812,139.844c3.63,7.031,6.743,14.453,9.339,22.266,3.63,12.5,8.951,23.377,15.955,32.617,7.005,9.247,18.808,13.611,35.414,13.086l-1.557-48.438-5.448-150.781c-.523-7.55,5.965-13.928,19.457-19.141,13.487-5.206,29.637-8.722,48.45-10.547,18.808-1.818,35.735-1.172,50.785,1.953,15.043,3.125,23.738,9.51,26.073,19.141,4.147,76.825,6.811,154.169,7.978,232.031,1.168,77.87-.328,156.512-4.475,235.938-.523,12.244-6.227,22.266-17.123,30.078s-24.39,12.371-40.473,13.672c-16.089,1.307-32.172-1.428-48.255-8.203-16.09-6.77-29.576-18.615-40.473-35.547l-89.505-148.828c1.034,31.25,1.946,57.422,2.724,78.516s1.49,40.76,2.14,58.984c.645,18.23,1.101,30.604,1.362,37.109-5.448,9.9-15.566,16.541-30.354,19.922-14.788,3.387-30.743,3.973-47.866,1.758-17.123-2.209-31.978-7.287-44.558-15.234-12.587-7.941-19.525-18.42-20.82-31.445Z" fill="#fff"/>
	</g>
</svg>