<?xml version="1.0" encoding="UTF-8"?>
<svg id="Capa_2" xmlns="http://www.w3.org/2000/svg" viewBox="0 0 428.885 762.032">
	<g id="LetraP">
		<path d="M153.929,122.031c4.147.525,8.817.916,14.01,1.172,16.861,1.044,37.225,3.583,61.098,7.617,23.866,4.041,47.927,11.523,72.188,22.461,24.255,10.938,45.336,27.479,63.237,49.609,17.901,22.138,29.442,51.825,34.635,89.062,1.296,44.531-5.059,80.408-19.068,107.617-14.01,27.216-37.231,45.575-69.659,55.078-32.434,9.51-75.886,10.352-130.367,2.539l29.187,221.485c-22.833,6.775-42.485,11.98-58.957,15.625-16.479,3.643-32.884,6.055-49.229,7.227-16.344,1.172-29.965-.264-40.861-4.297-10.896-4.035-16.217-12.043-15.956-24.023L15.389,142.344c8.562-3.125,18.351-6.115,29.381-8.984,11.024-2.862,27.302-5.334,48.839-7.422,21.531-2.081,41.64-3.381,60.319-3.906ZM170.273,249.766c-7.783-.519-11.419,2.088-10.896,7.812l5.837,72.266c1.295,8.338,6.287,10.877,14.982,7.617,8.689-3.253,17.445-9.57,26.268-18.945,8.817-9.375,14.01-19.269,15.566-29.688.517-7.031-2.208-13.477-8.172-19.336-5.971-5.859-13.104-10.547-21.404-14.062-8.306-3.516-15.7-5.401-22.182-5.664Z" fill="#fff" stroke="#1f140f" stroke-dasharray="15" stroke-miterlimit="10" stroke-width="30"/>
		<path d="M153.929,122.031c4.147.525,8.817.916,14.01,1.172,16.861,1.044,37.225,3.583,61.098,7.617,23.866,4.041,47.927,11.523,72.188,22.461,24.255,10.938,45.336,27.479,63.237,49.609,17.901,22.138,29.442,51.825,34.635,89.062,1.296,44.531-5.059,80.408-19.068,107.617-14.01,27.216-37.231,45.575-69.659,55.078-32.434,9.51-75.886,10.352-130.367,2.539l29.187,221.485c-22.833,6.775-42.485,11.98-58.957,15.625-16.479,3.643-32.884,6.055-49.229,7.227-16.344,1.172-29.965-.264-40.861-4.297-10.896-4.035-16.217-12.043-15.956-24.023L15.389,142.344c8.562-3.125,18.351-6.115,29.381-8.984,11.024-2.862,27.302-5.334,48.839-7.422,21.531-2.081,41.64-3.381,60.319-3.906ZM170.273,249.766c-7.783-.519-11.419,2.088-10.896,7.812l5.837,72.266c1.295,8.338,6.287,10.877,14.982,7.617,8.689-3.253,17.445-9.57,26.268-18.945,8.817-9.375,14.01-19.269,15.566-29.688.517-7.031-2.208-13.477-8.172-19.336-5.971-5.859-13.104-10.547-21.404-14.062-8.306-3.516-15.7-5.401-22.182-5.664Z" fill="#fff"/>
	</g>
</svg>