<?xml version="1.0" encoding="UTF-8"?>
<svg id="Capa_2" xmlns="http://www.w3.org/2000/svg" viewBox="0 0 577.932 762.032">
	<g id="LetraP">
		<path d="M297.527,165c12.708,0,25.685,1.172,38.915,3.516,42.808,5.469,78.221,19.013,106.24,40.625,28.02,21.619,49.095,48.047,63.237,79.297,14.138,31.25,21.727,63.867,22.767,97.852,1.033,33.984-4.153,66.083-15.566,96.29-1.04,2.088-1.946,4.297-2.725,6.641-3.113,8.074-7.461,16.932-13.036,26.562-5.582,9.637-14.983,21.484-28.214,35.547-2.08,2.605-.584,6.512,4.475,11.719,5.06,5.213,11.347,10.938,18.874,17.188,5.966,4.949,11.608,9.961,16.929,15.039,5.314,5.078,9.272,9.832,11.869,14.258-5.448,10.938-10.446,20.312-14.982,28.125-4.542,7.812-9.474,15.369-14.788,22.656-5.32,7.293-10.507,12.957-15.566,16.992-5.059,4.041-9.534,5.145-13.426,3.32-7.783-4.688-15.505-10.742-23.154-18.164-7.656-7.422-14.728-14.777-21.209-22.07-6.488-7.031-12.064-12.695-16.734-16.992s-7.917-5.92-9.729-4.883c-20.236,13.807-42.746,25.721-67.519,35.742-24.778,10.027-51.697,16.736-80.75,20.117-36.842,6.512-70.893,3.65-102.153-8.594-31.266-12.238-57.4-35.998-78.415-71.289-21.015-35.285-34.635-84.045-40.861-146.29-1.04-47.656,10.83-93.029,35.608-136.133,24.772-43.097,58.179-78.32,100.208-105.664s88.594-41.144,139.707-41.406ZM348.507,339.609c-14.533-.781-34.635,8.203-60.319,26.953-45.403,41.406-74.657,75.653-87.754,102.735-13.104,27.088-12.715,43.885,1.167,50.391,13.875,6.512,38.459-.256,73.745-20.312,1.295-.781,3.113-1.562,5.448-2.344,2.334-.52,4.213-1.232,5.643-2.148,1.423-.91,1.751-1.887.973-2.93-7.527-8.85-9.99-17.707-7.394-26.563,2.59-8.85,8.104-16.406,16.539-22.656,8.428-6.25,17.572-9.766,27.436-10.547,9.856-.781,18.29,2.734,25.295,10.547,1.557,1.562,3.174,1.502,4.864-.195,1.685-1.69,3.436-3.967,5.254-6.836,1.812-2.6,3.63-4.815,5.448-6.641,10.896-14.318,17.317-28.253,19.263-41.797,1.946-13.537-.134-24.805-6.227-33.789-6.099-8.984-15.895-13.604-29.381-13.867Z" fill="#fff" stroke="#1f140f" stroke-dasharray="15" stroke-miterlimit="10" stroke-width="30"/>
		<path d="M297.527,165c12.708,0,25.685,1.172,38.915,3.516,42.808,5.469,78.221,19.013,106.24,40.625,28.02,21.619,49.095,48.047,63.237,79.297,14.138,31.25,21.727,63.867,22.767,97.852,1.033,33.984-4.153,66.083-15.566,96.29-1.04,2.088-1.946,4.297-2.725,6.641-3.113,8.074-7.461,16.932-13.036,26.562-5.582,9.637-14.983,21.484-28.214,35.547-2.08,2.605-.584,6.512,4.475,11.719,5.06,5.213,11.347,10.938,18.874,17.188,5.966,4.949,11.608,9.961,16.929,15.039,5.314,5.078,9.272,9.832,11.869,14.258-5.448,10.938-10.446,20.312-14.982,28.125-4.542,7.812-9.474,15.369-14.788,22.656-5.32,7.293-10.507,12.957-15.566,16.992-5.059,4.041-9.534,5.145-13.426,3.32-7.783-4.688-15.505-10.742-23.154-18.164-7.656-7.422-14.728-14.777-21.209-22.07-6.488-7.031-12.064-12.695-16.734-16.992s-7.917-5.92-9.729-4.883c-20.236,13.807-42.746,25.721-67.519,35.742-24.778,10.027-51.697,16.736-80.75,20.117-36.842,6.512-70.893,3.65-102.153-8.594-31.266-12.238-57.4-35.998-78.415-71.289-21.015-35.285-34.635-84.045-40.861-146.29-1.04-47.656,10.83-93.029,35.608-136.133,24.772-43.097,58.179-78.32,100.208-105.664s88.594-41.144,139.707-41.406ZM348.507,339.609c-14.533-.781-34.635,8.203-60.319,26.953-45.403,41.406-74.657,75.653-87.754,102.735-13.104,27.088-12.715,43.885,1.167,50.391,13.875,6.512,38.459-.256,73.745-20.312,1.295-.781,3.113-1.562,5.448-2.344,2.334-.52,4.213-1.232,5.643-2.148,1.423-.91,1.751-1.887.973-2.93-7.527-8.85-9.99-17.707-7.394-26.563,2.59-8.85,8.104-16.406,16.539-22.656,8.428-6.25,17.572-9.766,27.436-10.547,9.856-.781,18.29,2.734,25.295,10.547,1.557,1.562,3.174,1.502,4.864-.195,1.685-1.69,3.436-3.967,5.254-6.836,1.812-2.6,3.63-4.815,5.448-6.641,10.896-14.318,17.317-28.253,19.263-41.797,1.946-13.537-.134-24.805-6.227-33.789-6.099-8.984-15.895-13.604-29.381-13.867Z" fill="#fff"/>
	</g>
</svg>