<?xml version="1.0" encoding="UTF-8"?>
<svg id="Capa_2" xmlns="http://www.w3.org/2000/svg" viewBox="0 0 402.422 762.032">
	<g id="LetraR">
		<path d="M160.155,125.547c35.802.263,67.713,6.971,95.732,20.117,28.019,13.153,48.188,33.271,60.514,60.352,12.319,27.088,12.708,61.658,1.167,103.711-11.547,42.06-39.243,92.127-83.085,150.195l131.535,106.25c1.557,14.324-2.919,27.869-13.426,40.625-10.507,12.762-23.483,24.354-38.916,34.766-15.438,10.418-29.904,19.275-43.391,26.562l-117.525-96.094,22.182,123.828c-4.415,2.08-13.365,5.334-26.852,9.766-13.493,4.424-28.214,8.33-44.169,11.719-15.956,3.381-29.965,4.357-42.029,2.93-12.064-1.436-18.875-6.836-20.431-16.211-10.896-73.438-17.317-146.35-19.263-218.75-1.946-72.394-2.402-144.532-1.362-216.407.517-37.5.778-75,.778-112.5,44.364-20.831,90.54-31.115,138.54-30.859ZM150.426,259.531c-8.823-.519-12.976,2.344-12.453,8.594l6.616,80.859c1.557,9.375,7.133,12.244,16.734,8.594,9.595-3.644,19.324-10.742,29.187-21.289,9.857-10.547,15.694-21.545,17.512-33.008.517-7.812-2.529-14.972-9.145-21.484-6.616-6.506-14.533-11.779-23.739-15.82-9.212-4.034-17.451-6.183-24.711-6.445Z" fill="#fff" stroke="#1f140f" stroke-dasharray="15" stroke-miterlimit="10" stroke-width="30"/>
		<path d="M160.155,125.547c35.802.263,67.713,6.971,95.732,20.117,28.019,13.153,48.188,33.271,60.514,60.352,12.319,27.088,12.708,61.658,1.167,103.711-11.547,42.06-39.243,92.127-83.085,150.195l131.535,106.25c1.557,14.324-2.919,27.869-13.426,40.625-10.507,12.762-23.483,24.354-38.916,34.766-15.438,10.418-29.904,19.275-43.391,26.562l-117.525-96.094,22.182,123.828c-4.415,2.08-13.365,5.334-26.852,9.766-13.493,4.424-28.214,8.33-44.169,11.719-15.956,3.381-29.965,4.357-42.029,2.93-12.064-1.436-18.875-6.836-20.431-16.211-10.896-73.438-17.317-146.35-19.263-218.75-1.946-72.394-2.402-144.532-1.362-216.407.517-37.5.778-75,.778-112.5,44.364-20.831,90.54-31.115,138.54-30.859ZM150.426,259.531c-8.823-.519-12.976,2.344-12.453,8.594l6.616,80.859c1.557,9.375,7.133,12.244,16.734,8.594,9.595-3.644,19.324-10.742,29.187-21.289,9.857-10.547,15.694-21.545,17.512-33.008.517-7.812-2.529-14.972-9.145-21.484-6.616-6.506-14.533-11.779-23.739-15.82-9.212-4.034-17.451-6.183-24.711-6.445Z" fill="#fff"/>
	</g>
</svg>