<?xml version="1.0" encoding="UTF-8"?>
<svg id="Capa_2" xmlns="http://www.w3.org/2000/svg" viewBox="0 0 396.195 762.032">
	<g id="LetraS">
		<path d="M341.308,252.695c-6.36,14.197-14.922,27.216-25.685,39.062-10.769,11.854-19.652,19.471-26.657,22.852-16.867-7.287-31.589-13.281-44.169-17.969-12.587-4.688-25.362-8.594-38.332-11.719-7.783-1.818-15.761-2.014-23.933-.586-8.172,1.435-13.17,4.755-14.982,9.961-1.818,7.812-.912,14.393,2.724,19.727,3.63,5.341,9.34,10.352,17.123,15.039,11.93,7.031,25.685,14.325,41.25,21.875,22.048,10.419,43.646,22.596,64.795,36.523,21.142,13.935,37.681,31.775,49.617,53.516,11.93,21.747,14.788,49.159,8.562,82.227-7.783,43.494-21.403,76.893-40.861,100.195-19.458,23.309-42.096,38.807-67.908,46.484-25.818,7.684-52.475,9.766-79.971,6.25-27.502-3.516-53.253-10.352-77.248-20.508-24-10.156-43.914-21.484-59.735-33.984-.262-6.77.389-16.211,1.946-28.32s4.214-24.475,7.978-37.109c3.758-12.629,8.884-22.912,15.372-30.859,6.482-7.941,14.526-10.871,24.128-8.789,18.418,12.762,34.635,22.852,48.645,30.273,14.009,7.422,28.603,13.152,43.78,17.188,15.177,4.041,29.12,4.102,41.834.195,12.708-3.906,22.182-14.191,28.408-30.859,5.448-16.145,4.214-29.553-3.697-40.234-7.917-10.676-19.98-19.66-36.191-26.954-16.217-7.287-33.796-14.19-52.731-20.703-21.014-7.031-40.539-14.776-58.568-23.242-18.035-8.459-31.072-19.336-39.11-32.617-13.231-19.269-19.98-43.42-20.236-72.461-.262-29.034,5.059-57.227,15.955-84.57,10.896-27.344,26.329-48.175,46.31-62.5,26.718-16.925,56.817-24.67,90.285-23.242,33.467,1.435,64.989,8.729,94.565,21.875,29.575,13.153,52.013,28.711,67.323,46.68,5.966,10.682,5.771,23.114-.583,37.305Z" fill="#fff" stroke="#1f140f" stroke-dasharray="15" stroke-miterlimit="10" stroke-width="30"/>
		<path d="M341.308,252.695c-6.36,14.197-14.922,27.216-25.685,39.062-10.769,11.854-19.652,19.471-26.657,22.852-16.867-7.287-31.589-13.281-44.169-17.969-12.587-4.688-25.362-8.594-38.332-11.719-7.783-1.818-15.761-2.014-23.933-.586-8.172,1.435-13.17,4.755-14.982,9.961-1.818,7.812-.912,14.393,2.724,19.727,3.63,5.341,9.34,10.352,17.123,15.039,11.93,7.031,25.685,14.325,41.25,21.875,22.048,10.419,43.646,22.596,64.795,36.523,21.142,13.935,37.681,31.775,49.617,53.516,11.93,21.747,14.788,49.159,8.562,82.227-7.783,43.494-21.403,76.893-40.861,100.195-19.458,23.309-42.096,38.807-67.908,46.484-25.818,7.684-52.475,9.766-79.971,6.25-27.502-3.516-53.253-10.352-77.248-20.508-24-10.156-43.914-21.484-59.735-33.984-.262-6.77.389-16.211,1.946-28.32s4.214-24.475,7.978-37.109c3.758-12.629,8.884-22.912,15.372-30.859,6.482-7.941,14.526-10.871,24.128-8.789,18.418,12.762,34.635,22.852,48.645,30.273,14.009,7.422,28.603,13.152,43.78,17.188,15.177,4.041,29.12,4.102,41.834.195,12.708-3.906,22.182-14.191,28.408-30.859,5.448-16.145,4.214-29.553-3.697-40.234-7.917-10.676-19.98-19.66-36.191-26.954-16.217-7.287-33.796-14.19-52.731-20.703-21.014-7.031-40.539-14.776-58.568-23.242-18.035-8.459-31.072-19.336-39.11-32.617-13.231-19.269-19.98-43.42-20.236-72.461-.262-29.034,5.059-57.227,15.955-84.57,10.896-27.344,26.329-48.175,46.31-62.5,26.718-16.925,56.817-24.67,90.285-23.242,33.467,1.435,64.989,8.729,94.565,21.875,29.575,13.153,52.013,28.711,67.323,46.68,5.966,10.682,5.771,23.114-.583,37.305Z" fill="#fff"/>
	</g>
</svg>