<?xml version="1.0" encoding="UTF-8"?>
<svg id="Capa_2" xmlns="http://www.w3.org/2000/svg" viewBox="0 0 506.327 762.032">
	<g id="LetraT">
		<path d="M16.167,266.758c-1.295-12.109-1.362-25.256-.195-39.453,1.167-14.19,3.436-31.836,6.811-52.93l428.461-16.406c9.595,2.606,15.237,10.224,16.928,22.852,1.685,12.635,1.423,26.562-.778,41.797-2.207,15.234-4.475,28.32-6.81,39.258-1.04,4.432-1.69,8.075-1.946,10.938l-117.914,3.516-21.403,367.579c-.523,4.168-6.75,8.924-18.68,14.258-11.937,5.34-25.818,9.766-41.64,13.281-15.828,3.516-29.838,4.559-42.029,3.125-12.198-1.428-18.68-6.836-19.458-16.211l-14.009-371.094-157.219,3.516c-5.448-3.906-8.823-11.914-10.118-24.023Z" fill="#fff" stroke="#1f140f" stroke-dasharray="15" stroke-miterlimit="10" stroke-width="30"/>
		<path d="M16.167,266.758c-1.295-12.109-1.362-25.256-.195-39.453,1.167-14.19,3.436-31.836,6.811-52.93l428.461-16.406c9.595,2.606,15.237,10.224,16.928,22.852,1.685,12.635,1.423,26.562-.778,41.797-2.207,15.234-4.475,28.32-6.81,39.258-1.04,4.432-1.69,8.075-1.946,10.938l-117.914,3.516-21.403,367.579c-.523,4.168-6.75,8.924-18.68,14.258-11.937,5.34-25.818,9.766-41.64,13.281-15.828,3.516-29.838,4.559-42.029,3.125-12.198-1.428-18.68-6.836-19.458-16.211l-14.009-371.094-157.219,3.516c-5.448-3.906-8.823-11.914-10.118-24.023Z" fill="#fff"/>
	</g>
</svg>