<?xml version="1.0" encoding="UTF-8"?>
<svg id="Capa_2" xmlns="http://www.w3.org/2000/svg" viewBox="0 0 466.633 762.032">
	<g id="LetraU">
		<path d="M43.408,161.094c15.305-4.688,33.012-7.812,53.12-9.375,20.102-1.562,37.748-.195,52.925,4.102,15.177,4.297,22.893,12.695,23.155,25.195l-4.67,296.094c0,9.637.517,17.969,1.557,25,1.034,7.031,3.046,14.197,6.032,21.484,2.979,7.293,7.327,13.543,13.037,18.75,5.704,5.213,13.359,8.338,22.96,9.375,11.93.781,21.208-1.887,27.825-8.008,6.615-6.115,11.413-13.732,14.398-22.852,2.979-9.113,4.73-17.707,5.254-25.781.517-8.068.778-13.281.778-15.625s.645-18.225,1.945-47.657c1.295-29.425,2.725-62.5,4.281-99.219s3.502-83.331,5.837-139.844c1.034-15.1,9.146-24.347,24.322-27.734,15.177-3.381,32.622-3.125,52.342.781,19.713,3.906,36.97,9.119,51.758,15.625,14.788,6.513,22.31,11.854,22.571,16.016-.778,28.388-1.302,56.775-1.557,85.156,0,42.969-1.04,86.005-3.113,129.102-2.08,43.104-6.75,86.659-14.01,130.665-7.005,28.906-20.498,54.559-40.473,76.953-19.98,22.4-43.002,39.648-69.075,51.758s-51.563,17.518-76.469,16.211c-55.005-4.426-99.758-18.42-134.259-41.992-34.507-23.566-52.925-53.576-55.26-90.039-7.005-64.062-10.963-127.6-11.87-190.625-.912-63.019-.067-125.781,2.53-188.281.778-5.469,8.817-10.547,24.127-15.234Z" fill="#fff" stroke="#1f140f" stroke-dasharray="15" stroke-miterlimit="10" stroke-width="30"/>
		<path d="M43.408,161.094c15.305-4.688,33.012-7.812,53.12-9.375,20.102-1.562,37.748-.195,52.925,4.102,15.177,4.297,22.893,12.695,23.155,25.195l-4.67,296.094c0,9.637.517,17.969,1.557,25,1.034,7.031,3.046,14.197,6.032,21.484,2.979,7.293,7.327,13.543,13.037,18.75,5.704,5.213,13.359,8.338,22.96,9.375,11.93.781,21.208-1.887,27.825-8.008,6.615-6.115,11.413-13.732,14.398-22.852,2.979-9.113,4.73-17.707,5.254-25.781.517-8.068.778-13.281.778-15.625s.645-18.225,1.945-47.657c1.295-29.425,2.725-62.5,4.281-99.219s3.502-83.331,5.837-139.844c1.034-15.1,9.146-24.347,24.322-27.734,15.177-3.381,32.622-3.125,52.342.781,19.713,3.906,36.97,9.119,51.758,15.625,14.788,6.513,22.31,11.854,22.571,16.016-.778,28.388-1.302,56.775-1.557,85.156,0,42.969-1.04,86.005-3.113,129.102-2.08,43.104-6.75,86.659-14.01,130.665-7.005,28.906-20.498,54.559-40.473,76.953-19.98,22.4-43.002,39.648-69.075,51.758s-51.563,17.518-76.469,16.211c-55.005-4.426-99.758-18.42-134.259-41.992-34.507-23.566-52.925-53.576-55.26-90.039-7.005-64.062-10.963-127.6-11.87-190.625-.912-63.019-.067-125.781,2.53-188.281.778-5.469,8.817-10.547,24.127-15.234Z" fill="#fff"/>
	</g>
</svg>