<?xml version="1.0" encoding="UTF-8"?>
<svg id="Capa_2" xmlns="http://www.w3.org/2000/svg" viewBox="0 0 596.611 762.032">
	<g id="LetraV">
		<path d="M36.209,169.492c12.842-8.722,29.381-14.123,49.618-16.211,20.236-2.081,38.782-1.758,55.649.977,16.862,2.734,26.979,6.836,30.354,12.305l61.486,240.625c2.59,13.807,5.381,25.195,8.367,34.18,2.979,8.984,7.005,16.864,12.063,23.633,5.059,6.776,11.219,10.292,18.485,10.547,7.005-.256,13.292-4.035,18.874-11.329,5.575-7.287,10.312-15.753,14.204-25.391,3.892-9.631,7.783-22.003,11.675-37.109l62.653-225.781c2.335-5.206,10.763-9.112,25.296-11.719,14.526-2.6,31.582-3.32,51.174-2.148,19.586,1.172,38.198,4.627,55.844,10.352,17.64,5.731,30.744,14.258,39.305,25.586,8.562,11.328,8.817,25.977.778,43.945-18.162,62.244-41.901,124.158-71.216,185.742-29.32,61.59-62.265,122.852-98.846,183.79-15.565,22.918-34.963,41.15-58.179,54.688-23.222,13.543-47.026,19.141-71.41,16.797-24.389-4.162-45.275-14.123-62.654-29.883-17.384-15.754-29.187-31.701-35.413-47.852-1.818-4.426-9.212-26.496-22.182-66.211-12.976-39.709-27.825-85.022-44.559-135.938-16.734-50.909-37.943-115.686-63.627-194.336-4.67-17.443-.584-30.529,12.258-39.258Z" fill="#fff" stroke="#1f140f" stroke-dasharray="15" stroke-miterlimit="10" stroke-width="30"/>
		<path d="M36.209,169.492c12.842-8.722,29.381-14.123,49.618-16.211,20.236-2.081,38.782-1.758,55.649.977,16.862,2.734,26.979,6.836,30.354,12.305l61.486,240.625c2.59,13.807,5.381,25.195,8.367,34.18,2.979,8.984,7.005,16.864,12.063,23.633,5.059,6.776,11.219,10.292,18.485,10.547,7.005-.256,13.292-4.035,18.874-11.329,5.575-7.287,10.312-15.753,14.204-25.391,3.892-9.631,7.783-22.003,11.675-37.109l62.653-225.781c2.335-5.206,10.763-9.112,25.296-11.719,14.526-2.6,31.582-3.32,51.174-2.148,19.586,1.172,38.198,4.627,55.844,10.352,17.64,5.731,30.744,14.258,39.305,25.586,8.562,11.328,8.817,25.977.778,43.945-18.162,62.244-41.901,124.158-71.216,185.742-29.32,61.59-62.265,122.852-98.846,183.79-15.565,22.918-34.963,41.15-58.179,54.688-23.222,13.543-47.026,19.141-71.41,16.797-24.389-4.162-45.275-14.123-62.654-29.883-17.384-15.754-29.187-31.701-35.413-47.852-1.818-4.426-9.212-26.496-22.182-66.211-12.976-39.709-27.825-85.022-44.559-135.938-16.734-50.909-37.943-115.686-63.627-194.336-4.67-17.443-.584-30.529,12.258-39.258Z" fill="#fff"/>
	</g>
</svg>