<?xml version="1.0" encoding="UTF-8"?>
<svg id="Capa_2" xmlns="http://www.w3.org/2000/svg" viewBox="0 0 677.945 762.032">
	<g id="LetraW">
		<path d="M253.163,238.438c5.965-9.631,16.667-16.534,32.105-20.703,15.433-4.162,32.233-6.055,50.396-5.664,18.157.391,34.502,2.869,49.034,7.422,14.526,4.56,24.128,10.877,28.798,18.945,18.679,76.307,30.415,119.531,35.219,129.688,4.797,10.156,15.109,16.669,30.938,19.531l7.783-46.094,24.128-143.75c1.033-7.031,8.428-11.779,22.182-14.258,13.748-2.472,29.704-2.734,47.866-.781,18.156,1.953,34.052,5.927,47.672,11.914,13.62,5.994,20.559,13.807,20.819,23.438-10.896,73.438-23.416,147.138-37.553,221.094-14.144,73.963-30.811,148.047-50.007,222.266-2.858,11.463-10.186,19.793-21.987,25-11.809,5.213-25.49,6.836-41.057,4.883s-30.293-7.746-44.169-17.383c-13.882-9.631-27.308-22.656-40.277-39.062l-78.999-101.172-83.279,100c-11.42,17.188-24.067,30.604-37.943,40.234-13.882,9.637-28.603,15.43-44.169,17.383-15.566,1.953-29.254.33-41.056-4.883-11.809-5.207-19.135-13.537-21.987-25-19.202-74.219-35.869-148.303-50.006-222.266-14.144-73.956-26.657-147.656-37.554-221.094.255-9.631,7.199-17.443,20.82-23.438,13.621-5.987,29.509-9.961,47.671-11.914,18.157-1.953,34.179-1.69,48.061.781,13.876,2.479,21.209,7.227,21.987,14.258l24.128,143.75,7.783,46.094c15.822-2.862,26.201-9.375,31.132-19.531,4.926-10.156,15.433-53.381,31.521-129.688Z" fill="#fff" stroke="#1f140f" stroke-dasharray="15" stroke-miterlimit="10" stroke-width="30"/>
		<path d="M253.163,238.438c5.965-9.631,16.667-16.534,32.105-20.703,15.433-4.162,32.233-6.055,50.396-5.664,18.157.391,34.502,2.869,49.034,7.422,14.526,4.56,24.128,10.877,28.798,18.945,18.679,76.307,30.415,119.531,35.219,129.688,4.797,10.156,15.109,16.669,30.938,19.531l7.783-46.094,24.128-143.75c1.033-7.031,8.428-11.779,22.182-14.258,13.748-2.472,29.704-2.734,47.866-.781,18.156,1.953,34.052,5.927,47.672,11.914,13.62,5.994,20.559,13.807,20.819,23.438-10.896,73.438-23.416,147.138-37.553,221.094-14.144,73.963-30.811,148.047-50.007,222.266-2.858,11.463-10.186,19.793-21.987,25-11.809,5.213-25.49,6.836-41.057,4.883s-30.293-7.746-44.169-17.383c-13.882-9.631-27.308-22.656-40.277-39.062l-78.999-101.172-83.279,100c-11.42,17.188-24.067,30.604-37.943,40.234-13.882,9.637-28.603,15.43-44.169,17.383-15.566,1.953-29.254.33-41.056-4.883-11.809-5.207-19.135-13.537-21.987-25-19.202-74.219-35.869-148.303-50.006-222.266-14.144-73.956-26.657-147.656-37.554-221.094.255-9.631,7.199-17.443,20.82-23.438,13.621-5.987,29.509-9.961,47.671-11.914,18.157-1.953,34.179-1.69,48.061.781,13.876,2.479,21.209,7.227,21.987,14.258l24.128,143.75,7.783,46.094c15.822-2.862,26.201-9.375,31.132-19.531,4.926-10.156,15.433-53.381,31.521-129.688Z" fill="#fff"/>
	</g>
</svg>