<?xml version="1.0" encoding="UTF-8"?>
<svg id="Capa_2" xmlns="http://www.w3.org/2000/svg" viewBox="0 0 578.71 762.032">
	<g id="LetraX">
		<path d="M204.13,275.938c9.595,11.2,18.156,20.312,25.685,27.344,7.521,7.031,15.627,13.281,24.322,18.75,8.688,5.469,17.184,8.203,25.489,8.203,8.3-.519,16.6-3.644,24.906-9.375,8.3-5.725,15.955-12.305,22.96-19.727s14.916-16.857,23.738-28.32l59.931-80.078c9.856-15.881,20.235-24.737,31.132-26.562,10.896-1.818,21.599.135,32.105,5.859,10.508,5.731,19.908,11.981,28.214,18.75.778.781,1.557,1.435,2.335,1.953,8.817,6.513,16.667,15.039,23.544,25.586,6.871,10.547,10.958,21.68,12.259,33.398,1.295,11.719-2.079,22.656-10.118,32.812l-94.565,110.156c-7.527,7.557-13.62,14.197-18.29,19.922-4.67,5.731-8.823,11.914-12.453,18.555-3.636,6.641-5.582,12.83-5.837,18.555.255,5.994,1.945,11.719,5.059,17.188,3.113,5.469,6.677,10.352,10.702,14.648,4.02,4.297,9.272,9.051,15.761,14.258l57.206,60.156c10.635,13.543,17.378,24.48,20.236,32.812,2.852,8.338,2.268,16.016-1.752,23.047-4.025,7.031-10.701,15.105-20.041,24.219-9.085,9.9-18.035,17.322-26.852,22.266-8.823,4.949-18.874,5.73-30.16,2.344-11.285-3.381-25.101-12.5-41.445-27.344l-68.491-78.906c-4.153-4.943-7.978-8.984-11.48-12.109-3.502-3.125-7.266-5.92-11.285-8.398-4.025-2.473-8.111-3.711-12.259-3.711-4.152.262-8.822,2.02-14.009,5.273-5.193,3.26-10.252,6.971-15.178,11.133-4.931,4.168-10.641,9.637-17.123,16.406l-77.052,94.531c-12.714,9.119-24.322,12.439-34.83,9.961-10.507-2.473-20.303-8.137-29.381-16.992-6.488-5.725-12.781-12.951-18.874-21.68-6.099-8.723-9.474-18.42-10.118-29.102-.65-10.676,3.825-22.004,13.426-33.984l79.777-103.125c3.369-4.425,6.16-8.526,8.367-12.305,2.201-3.771,4.02-7.812,5.448-12.109,1.423-4.297,2.007-8.526,1.751-12.695-.262-4.162-1.818-8.398-4.67-12.695-2.858-4.297-5.971-8.264-9.34-11.914-3.375-3.644-7.655-7.812-12.842-12.5l-112.855-118.75c-10.896-10.156-16.673-19.854-17.318-29.102-.65-9.24,1.946-17.834,7.783-25.781,5.837-7.94,12.903-15.039,21.209-21.289,7.783-6.25,16.6-11.193,26.463-14.844,9.856-3.644,20.297-4.034,31.327-1.172,11.024,2.869,22.115,11.072,33.272,24.609l64.211,71.875Z" fill="#fff" stroke="#1f140f" stroke-dasharray="15" stroke-miterlimit="10" stroke-width="30"/>
		<path d="M204.13,275.938c9.595,11.2,18.156,20.312,25.685,27.344,7.521,7.031,15.627,13.281,24.322,18.75,8.688,5.469,17.184,8.203,25.489,8.203,8.3-.519,16.6-3.644,24.906-9.375,8.3-5.725,15.955-12.305,22.96-19.727s14.916-16.857,23.738-28.32l59.931-80.078c9.856-15.881,20.235-24.737,31.132-26.562,10.896-1.818,21.599.135,32.105,5.859,10.508,5.731,19.908,11.981,28.214,18.75.778.781,1.557,1.435,2.335,1.953,8.817,6.513,16.667,15.039,23.544,25.586,6.871,10.547,10.958,21.68,12.259,33.398,1.295,11.719-2.079,22.656-10.118,32.812l-94.565,110.156c-7.527,7.557-13.62,14.197-18.29,19.922-4.67,5.731-8.823,11.914-12.453,18.555-3.636,6.641-5.582,12.83-5.837,18.555.255,5.994,1.945,11.719,5.059,17.188,3.113,5.469,6.677,10.352,10.702,14.648,4.02,4.297,9.272,9.051,15.761,14.258l57.206,60.156c10.635,13.543,17.378,24.48,20.236,32.812,2.852,8.338,2.268,16.016-1.752,23.047-4.025,7.031-10.701,15.105-20.041,24.219-9.085,9.9-18.035,17.322-26.852,22.266-8.823,4.949-18.874,5.73-30.16,2.344-11.285-3.381-25.101-12.5-41.445-27.344l-68.491-78.906c-4.153-4.943-7.978-8.984-11.48-12.109-3.502-3.125-7.266-5.92-11.285-8.398-4.025-2.473-8.111-3.711-12.259-3.711-4.152.262-8.822,2.02-14.009,5.273-5.193,3.26-10.252,6.971-15.178,11.133-4.931,4.168-10.641,9.637-17.123,16.406l-77.052,94.531c-12.714,9.119-24.322,12.439-34.83,9.961-10.507-2.473-20.303-8.137-29.381-16.992-6.488-5.725-12.781-12.951-18.874-21.68-6.099-8.723-9.474-18.42-10.118-29.102-.65-10.676,3.825-22.004,13.426-33.984l79.777-103.125c3.369-4.425,6.16-8.526,8.367-12.305,2.201-3.771,4.02-7.812,5.448-12.109,1.423-4.297,2.007-8.526,1.751-12.695-.262-4.162-1.818-8.398-4.67-12.695-2.858-4.297-5.971-8.264-9.34-11.914-3.375-3.644-7.655-7.812-12.842-12.5l-112.855-118.75c-10.896-10.156-16.673-19.854-17.318-29.102-.65-9.24,1.946-17.834,7.783-25.781,5.837-7.94,12.903-15.039,21.209-21.289,7.783-6.25,16.6-11.193,26.463-14.844,9.856-3.644,20.297-4.034,31.327-1.172,11.024,2.869,22.115,11.072,33.272,24.609l64.211,71.875Z" fill="#fff"/>
	</g>
</svg>