<?xml version="1.0" encoding="UTF-8"?>
<svg id="Capa_2" xmlns="http://www.w3.org/2000/svg" viewBox="0 0 509.829 762.032">
	<g id="LetraY">
		<path d="M29.593,194.297c12.064-13.281,28.275-23.956,48.645-32.031,20.364-8.068,39.822-11.719,58.374-10.938,18.546.781,31.455,7.557,38.721,20.312l36.191,70.703c5.448,9.638,10.374,17.646,14.788,24.023,4.408,6.385,9.272,11.914,14.594,16.602,5.314,4.688,10.701,7.166,16.149,7.422,5.187-.256,10.179-2.734,14.982-7.422,4.798-4.688,9.206-10.156,13.231-16.406,4.02-6.25,8.233-14.19,12.647-23.828l36.191-82.422c3.369-10.938,10.763-16.992,22.183-18.164,11.413-1.172,24.577,1.044,39.499,6.641,14.916,5.604,28.992,13.086,42.224,22.461s23.282,19.275,30.159,29.688c6.871,10.419,8.105,19.794,3.697,28.125-10.641,17.713-22.96,35.028-36.97,51.953-14.01,16.932-28.02,33.075-42.029,48.438-18.162,19.794-33.729,38.221-46.698,55.273-12.977,17.06-20.37,32.489-22.182,46.289-2.597,27.344-5.193,62.762-7.783,106.25-2.335,41.406-4.932,78.125-7.783,110.156-1.302,9.9-5.516,17.449-12.647,22.656-7.139,5.213-15.312,8.924-24.518,11.133-9.212,2.215-17.451,3.711-24.711,4.492-9.602,1.307-20.108,1.307-31.521,0-11.419-1.301-21.404-4.748-29.965-10.352-8.561-5.598-13.231-13.867-14.009-24.805-.778-24.475-1.946-53.254-3.502-86.328-2.597-52.082-4.281-97.004-5.059-134.766-.778-16.144-7.85-32.812-21.209-50-13.365-17.188-29.254-35.021-47.672-53.516-13.754-13.537-27.046-27.734-39.888-42.578-12.842-14.844-23.933-30.334-33.273-46.484-5.965-15.1-2.919-29.297,9.145-42.578Z" fill="#fff" stroke="#1f140f" stroke-dasharray="15" stroke-miterlimit="10" stroke-width="30"/>
		<path d="M29.593,194.297c12.064-13.281,28.275-23.956,48.645-32.031,20.364-8.068,39.822-11.719,58.374-10.938,18.546.781,31.455,7.557,38.721,20.312l36.191,70.703c5.448,9.638,10.374,17.646,14.788,24.023,4.408,6.385,9.272,11.914,14.594,16.602,5.314,4.688,10.701,7.166,16.149,7.422,5.187-.256,10.179-2.734,14.982-7.422,4.798-4.688,9.206-10.156,13.231-16.406,4.02-6.25,8.233-14.19,12.647-23.828l36.191-82.422c3.369-10.938,10.763-16.992,22.183-18.164,11.413-1.172,24.577,1.044,39.499,6.641,14.916,5.604,28.992,13.086,42.224,22.461s23.282,19.275,30.159,29.688c6.871,10.419,8.105,19.794,3.697,28.125-10.641,17.713-22.96,35.028-36.97,51.953-14.01,16.932-28.02,33.075-42.029,48.438-18.162,19.794-33.729,38.221-46.698,55.273-12.977,17.06-20.37,32.489-22.182,46.289-2.597,27.344-5.193,62.762-7.783,106.25-2.335,41.406-4.932,78.125-7.783,110.156-1.302,9.9-5.516,17.449-12.647,22.656-7.139,5.213-15.312,8.924-24.518,11.133-9.212,2.215-17.451,3.711-24.711,4.492-9.602,1.307-20.108,1.307-31.521,0-11.419-1.301-21.404-4.748-29.965-10.352-8.561-5.598-13.231-13.867-14.009-24.805-.778-24.475-1.946-53.254-3.502-86.328-2.597-52.082-4.281-97.004-5.059-134.766-.778-16.144-7.85-32.812-21.209-50-13.365-17.188-29.254-35.021-47.672-53.516-13.754-13.537-27.046-27.734-39.888-42.578-12.842-14.844-23.933-30.334-33.273-46.484-5.965-15.1-2.919-29.297,9.145-42.578Z" fill="#fff"/>
	</g>
</svg>