<?xml version="1.0" encoding="UTF-8"?>
<svg id="Capa_2" xmlns="http://www.w3.org/2000/svg" viewBox="0 0 467.411 762.032">
	<g id="LetraZ">
		<path d="M349.674,166.953c30.61-1.037,53.054,3.906,67.324,14.844,14.265,10.938,19.847,26.044,16.733,45.312-3.113,19.275-15.311,40.888-36.58,64.844l-141.264,189.063c-7.783,8.074-14.594,16.541-20.431,25.391-5.838,8.855-7.528,16.406-5.06,22.656,2.463,6.25,12.125,9.375,28.992,9.375l131.924-1.172c14.788,3.387,24.578,9.705,29.382,18.945,4.798,9.246,6.354,19.727,4.67,31.445-1.69,11.719-4.804,23.047-9.34,33.984-4.542,10.938-11.091,23.828-19.652,38.672l-318.719-3.906c-26.986-.256-44.042-5.92-51.174-16.992-7.139-11.066-7.722-25.061-1.751-41.992,5.965-16.926,15.043-34.24,27.241-51.953,12.191-17.707,23.994-33.332,35.413-46.875l123.363-150.391c4.67-5.987,9.729-12.109,15.177-18.359,8.3-9.112,15.109-17.639,20.431-25.586,5.314-7.94,6.159-14.062,2.529-18.359-3.637-4.297-14.66-5.664-33.078-4.102l-123.363,1.953c-4.153-.781-10.185-7.227-18.096-19.336-7.917-12.109-14.465-26.104-19.652-41.992-5.193-15.881-5.643-29.62-1.362-41.211,4.281-11.584,16.539-17.12,36.775-16.602l259.567,2.344Z" fill="#fff" stroke="#1f140f" stroke-dasharray="15" stroke-miterlimit="10" stroke-width="30"/>
		<path d="M349.674,166.953c30.61-1.037,53.054,3.906,67.324,14.844,14.265,10.938,19.847,26.044,16.733,45.312-3.113,19.275-15.311,40.888-36.58,64.844l-141.264,189.063c-7.783,8.074-14.594,16.541-20.431,25.391-5.838,8.855-7.528,16.406-5.06,22.656,2.463,6.25,12.125,9.375,28.992,9.375l131.924-1.172c14.788,3.387,24.578,9.705,29.382,18.945,4.798,9.246,6.354,19.727,4.67,31.445-1.69,11.719-4.804,23.047-9.34,33.984-4.542,10.938-11.091,23.828-19.652,38.672l-318.719-3.906c-26.986-.256-44.042-5.92-51.174-16.992-7.139-11.066-7.722-25.061-1.751-41.992,5.965-16.926,15.043-34.24,27.241-51.953,12.191-17.707,23.994-33.332,35.413-46.875l123.363-150.391c4.67-5.987,9.729-12.109,15.177-18.359,8.3-9.112,15.109-17.639,20.431-25.586,5.314-7.94,6.159-14.062,2.529-18.359-3.637-4.297-14.66-5.664-33.078-4.102l-123.363,1.953c-4.153-.781-10.185-7.227-18.096-19.336-7.917-12.109-14.465-26.104-19.652-41.992-5.193-15.881-5.643-29.62-1.362-41.211,4.281-11.584,16.539-17.12,36.775-16.602l259.567,2.344Z" fill="#fff"/>
	</g>
</svg>