<?xml version="1.0" encoding="UTF-8"?>
	<svg id="Capa_2" xmlns="http://www.w3.org/2000/svg" viewBox="0 0 1722.052 762.032">
	<g id="Gato">
		<path d="M225.533,168.125c35.024-7.031,67.579-9.826,97.679-8.398,30.093,1.435,53.314,10.419,69.658,26.953,16.345,16.541,21.404,43.945,15.178,82.227-8.307,16.406-17.646,26.893-28.02,31.445-10.38,4.56-21.403,5.536-33.078,2.93-11.675-2.6-23.738-6.769-36.191-12.5-33.212-8.068-60.319-6.896-81.334,3.516-21.014,10.419-37.037,28.778-48.061,55.078-11.03,26.307-17.84,58.984-20.431,98.047.517,19.532,5.643,38.477,15.372,56.836s21.854,32.617,36.386,42.773c14.526,10.156,29.314,12.695,44.363,7.617,15.044-5.078,28.02-21.289,38.916-48.633.517-1.301.906-2.6,1.167-3.906,1.296-3.906,2.335-8.918,3.113-15.039.778-6.115.128-11.779-1.945-16.992-1.818-3.381-4.348-6.506-7.589-9.375-3.247-2.862-6.555-5.334-9.923-7.422-3.375-2.081-7.528-4.425-12.453-7.031-6.227-1.818-10.058-7.287-11.48-16.406-1.429-9.112-.845-19.201,1.751-30.273,2.591-11.065,6.871-20.568,12.843-28.516,5.965-7.94,13.23-11.523,21.792-10.742,25.162-2.081,46.565-2.93,64.211-2.539,17.64.391,34.635,2.674,50.979,6.836,16.345,4.169,28.798,11.2,37.359,21.094,8.038,10.938,12.258,25.33,12.647,43.164.389,17.841-1.168,35.81-4.67,53.907-3.502,18.104-6.944,33.008-10.312,44.727-.778,6.775-2.469,11.98-5.06,15.625-.778,2.605-1.69,5.213-2.724,7.812-6.75,22.137-15.828,42.908-27.241,62.305-11.419,19.402-29.643,34.832-54.676,46.289-25.04,11.463-61.554,16.406-109.548,14.844-51.369-3.906-92.753-15.625-124.141-35.156-31.394-19.531-55.005-43.029-70.827-70.508-15.828-27.473-25.946-54.883-30.354-82.227-.523-59.375,4.536-107.874,15.177-145.508,10.635-37.628,24.127-67.053,40.472-88.281,16.344-21.222,32.944-36.914,49.812-47.07,16.861-10.156,31.388-17.443,43.585-21.875,5.704-2.344,10.246-4.425,13.621-6.25,14.526-3.381,29.187-6.506,43.974-9.375Z" fill="#fff" stroke="#1f140f" stroke-dasharray="15" stroke-miterlimit="10" stroke-width="30"/>
		<path d="M679.679,147.031c14.266,0,26.657,1.893,37.165,5.664,10.507,3.778,17.317,9.57,20.431,17.383,16.861,44.531,33.662,93.299,50.396,146.289,16.733,52.997,33.012,106.58,48.839,160.743,15.566,51.824,30.609,100.916,45.143,147.266,1.557,4.432-2.274,10.809-11.48,19.141-9.212,8.338-21.343,16.541-36.386,24.609-15.05,8.074-30.616,14.002-46.699,17.773-16.089,3.777-30.354,3.387-42.807-1.172-12.453-4.553-20.498-15.295-24.128-32.227l-17.123-97.656c-2.079-11.975-4.348-21.809-6.811-29.492-2.469-7.678-5.643-14.387-9.534-20.117-3.892-5.725-8.562-8.723-14.01-8.984-5.709.525-10.507,3.906-14.398,10.156s-7.005,13.477-9.34,21.68-4.542,18.816-6.615,31.836l-12.843,87.891c-3.636,20.312-13.754,32.812-30.354,37.5-16.606,4.688-34.964,4.559-55.066-.391-20.108-4.943-37.231-11.652-51.368-20.117-14.144-8.459-20.692-15.82-19.652-22.07,16.345-63.02,31.91-127.863,46.698-194.532,10.118-46.094,20.559-91.339,31.327-135.742,10.763-44.396,22.243-86.523,34.44-126.367,3.892-12.5,15.238-22.198,34.052-29.102,18.807-6.896,38.849-10.217,60.124-9.961ZM675.009,306.797h-1.167c-5.71.781-10.185,4.041-13.426,9.766-3.247,5.731-5.643,12.635-7.199,20.703-1.557,8.075-2.597,16.211-3.113,24.414-.523,8.203-.651,17.773-.39,28.711l50.591-1.953c0-10.938-.329-20.44-.974-28.516-.65-8.068-1.817-16.144-3.502-24.219-1.69-8.068-4.22-14.844-7.589-20.312-3.374-5.469-7.783-8.331-13.231-8.594Z" fill="#fff" stroke="#1f140f" stroke-dasharray="15" stroke-miterlimit="10" stroke-width="30"/>
		<path d="M824.444,266.758c-1.295-12.109-1.361-25.256-.194-39.453,1.168-14.19,3.436-31.836,6.811-52.93l428.461-16.406c9.595,2.606,15.238,10.224,16.929,22.852,1.684,12.635,1.423,26.562-.778,41.797-2.208,15.234-4.476,28.32-6.811,39.258-1.04,4.432-1.69,8.075-1.946,10.938l-117.914,3.516-21.403,367.579c-.523,4.168-6.75,8.924-18.68,14.258-11.937,5.34-25.818,9.766-41.64,13.281-15.828,3.516-29.837,4.559-42.029,3.125-12.197-1.428-18.679-6.836-19.457-16.211l-14.01-371.094-157.22,3.516c-5.448-3.906-8.822-11.914-10.118-24.023Z" fill="#fff" stroke="#1f140f" stroke-dasharray="15" stroke-miterlimit="10" stroke-width="30"/>
		<path d="M1485.231,197.422c11.152.263,22.571,1.307,34.246,3.125,37.614,4.95,68.747,16.932,93.397,35.938,24.645,19.013,43.196,42.188,55.649,69.531s19.068,55.994,19.847,85.938c.778,29.95-3.764,58.203-13.62,84.766-4.67,10.938-13.231,24.939-25.685,41.992-12.453,17.059-28.67,34.57-48.645,52.539-19.98,17.969-43.585,33.729-70.826,47.266-27.241,13.543-57.856,22.4-91.841,26.562-32.434,5.994-62.398,3.582-89.896-7.227-27.502-10.803-50.462-31.701-68.88-62.695-18.425-30.988-30.488-73.828-36.192-128.516-.778-42.188,9.662-82.227,31.327-120.117,21.659-37.891,50.979-68.811,87.949-92.773,36.971-23.956,78.026-36.065,123.168-36.328ZM1529.984,350.938c-12.714-.519-30.487,7.422-53.314,23.828-35.802,32.812-59.674,60.352-71.604,82.617-11.936,22.266-13.882,37.5-5.837,45.704,8.038,8.203,23.866,7.557,47.477-1.953,23.605-9.504,53.053-29.621,88.339-60.352,9.595-12.756,16.017-25.977,19.263-39.648,3.241-13.672,2.919-25.323-.973-34.961-3.892-9.631-11.675-14.709-23.35-15.234Z" fill="#fff" stroke="#1f140f" stroke-dasharray="15" stroke-miterlimit="10" stroke-width="30"/>
		<path d="M225.533,168.125c35.024-7.031,67.579-9.826,97.679-8.398,30.093,1.435,53.314,10.419,69.658,26.953,16.345,16.541,21.404,43.945,15.178,82.227-8.307,16.406-17.646,26.893-28.02,31.445-10.38,4.56-21.403,5.536-33.078,2.93-11.675-2.6-23.738-6.769-36.191-12.5-33.212-8.068-60.319-6.896-81.334,3.516-21.014,10.419-37.037,28.778-48.061,55.078-11.03,26.307-17.84,58.984-20.431,98.047.517,19.532,5.643,38.477,15.372,56.836s21.854,32.617,36.386,42.773c14.526,10.156,29.314,12.695,44.363,7.617,15.044-5.078,28.02-21.289,38.916-48.633.517-1.301.906-2.6,1.167-3.906,1.296-3.906,2.335-8.918,3.113-15.039.778-6.115.128-11.779-1.945-16.992-1.818-3.381-4.348-6.506-7.589-9.375-3.247-2.862-6.555-5.334-9.923-7.422-3.375-2.081-7.528-4.425-12.453-7.031-6.227-1.818-10.058-7.287-11.48-16.406-1.429-9.112-.845-19.201,1.751-30.273,2.591-11.065,6.871-20.568,12.843-28.516,5.965-7.94,13.23-11.523,21.792-10.742,25.162-2.081,46.565-2.93,64.211-2.539,17.64.391,34.635,2.674,50.979,6.836,16.345,4.169,28.798,11.2,37.359,21.094,8.038,10.938,12.258,25.33,12.647,43.164.389,17.841-1.168,35.81-4.67,53.907-3.502,18.104-6.944,33.008-10.312,44.727-.778,6.775-2.469,11.98-5.06,15.625-.778,2.605-1.69,5.213-2.724,7.812-6.75,22.137-15.828,42.908-27.241,62.305-11.419,19.402-29.643,34.832-54.676,46.289-25.04,11.463-61.554,16.406-109.548,14.844-51.369-3.906-92.753-15.625-124.141-35.156-31.394-19.531-55.005-43.029-70.827-70.508-15.828-27.473-25.946-54.883-30.354-82.227-.523-59.375,4.536-107.874,15.177-145.508,10.635-37.628,24.127-67.053,40.472-88.281,16.344-21.222,32.944-36.914,49.812-47.07,16.861-10.156,31.388-17.443,43.585-21.875,5.704-2.344,10.246-4.425,13.621-6.25,14.526-3.381,29.187-6.506,43.974-9.375Z" fill="#fff"/><path d="M679.679,147.031c14.266,0,26.657,1.893,37.165,5.664,10.507,3.778,17.317,9.57,20.431,17.383,16.861,44.531,33.662,93.299,50.396,146.289,16.733,52.997,33.012,106.58,48.839,160.743,15.566,51.824,30.609,100.916,45.143,147.266,1.557,4.432-2.274,10.809-11.48,19.141-9.212,8.338-21.343,16.541-36.386,24.609-15.05,8.074-30.616,14.002-46.699,17.773-16.089,3.777-30.354,3.387-42.807-1.172-12.453-4.553-20.498-15.295-24.128-32.227l-17.123-97.656c-2.079-11.975-4.348-21.809-6.811-29.492-2.469-7.678-5.643-14.387-9.534-20.117-3.892-5.725-8.562-8.723-14.01-8.984-5.709.525-10.507,3.906-14.398,10.156s-7.005,13.477-9.34,21.68-4.542,18.816-6.615,31.836l-12.843,87.891c-3.636,20.312-13.754,32.812-30.354,37.5-16.606,4.688-34.964,4.559-55.066-.391-20.108-4.943-37.231-11.652-51.368-20.117-14.144-8.459-20.692-15.82-19.652-22.07,16.345-63.02,31.91-127.863,46.698-194.532,10.118-46.094,20.559-91.339,31.327-135.742,10.763-44.396,22.243-86.523,34.44-126.367,3.892-12.5,15.238-22.198,34.052-29.102,18.807-6.896,38.849-10.217,60.124-9.961ZM675.009,306.797h-1.167c-5.71.781-10.185,4.041-13.426,9.766-3.247,5.731-5.643,12.635-7.199,20.703-1.557,8.075-2.597,16.211-3.113,24.414-.523,8.203-.651,17.773-.39,28.711l50.591-1.953c0-10.938-.329-20.44-.974-28.516-.65-8.068-1.817-16.144-3.502-24.219-1.69-8.068-4.22-14.844-7.589-20.312-3.374-5.469-7.783-8.331-13.231-8.594Z" fill="#fff"/>
		<path d="M824.444,266.758c-1.295-12.109-1.361-25.256-.194-39.453,1.168-14.19,3.436-31.836,6.811-52.93l428.461-16.406c9.595,2.606,15.238,10.224,16.929,22.852,1.684,12.635,1.423,26.562-.778,41.797-2.208,15.234-4.476,28.32-6.811,39.258-1.04,4.432-1.69,8.075-1.946,10.938l-117.914,3.516-21.403,367.579c-.523,4.168-6.75,8.924-18.68,14.258-11.937,5.34-25.818,9.766-41.64,13.281-15.828,3.516-29.837,4.559-42.029,3.125-12.197-1.428-18.679-6.836-19.457-16.211l-14.01-371.094-157.22,3.516c-5.448-3.906-8.822-11.914-10.118-24.023Z" fill="#fff"/>
		<path d="M1485.231,197.422c11.152.263,22.571,1.307,34.246,3.125,37.614,4.95,68.747,16.932,93.397,35.938,24.645,19.013,43.196,42.188,55.649,69.531s19.068,55.994,19.847,85.938c.778,29.95-3.764,58.203-13.62,84.766-4.67,10.938-13.231,24.939-25.685,41.992-12.453,17.059-28.67,34.57-48.645,52.539-19.98,17.969-43.585,33.729-70.826,47.266-27.241,13.543-57.856,22.4-91.841,26.562-32.434,5.994-62.398,3.582-89.896-7.227-27.502-10.803-50.462-31.701-68.88-62.695-18.425-30.988-30.488-73.828-36.192-128.516-.778-42.188,9.662-82.227,31.327-120.117,21.659-37.891,50.979-68.811,87.949-92.773,36.971-23.956,78.026-36.065,123.168-36.328ZM1529.984,350.938c-12.714-.519-30.487,7.422-53.314,23.828-35.802,32.812-59.674,60.352-71.604,82.617-11.936,22.266-13.882,37.5-5.837,45.704,8.038,8.203,23.866,7.557,47.477-1.953,23.605-9.504,53.053-29.621,88.339-60.352,9.595-12.756,16.017-25.977,19.263-39.648,3.241-13.672,2.919-25.323-.973-34.961-3.892-9.631-11.675-14.709-23.35-15.234Z" fill="#fff"/>
	</g>
</svg>