<?xml version="1.0" encoding="UTF-8"?>
<svg id="Capa_2" xmlns="http://www.w3.org/2000/svg" viewBox="0 0 1759.41 762.032">
	<g id="Lobo">
		<path d="M29.788,497.032c-3.113-53.644-4.804-104.816-5.059-153.516.255-9.112.389-20.703.389-34.766.255-24.219.517-49.279.778-75.195.255-25.909.517-44.592.778-56.055.778-11.456,6.81-19.141,18.096-23.047s25.228-5.139,41.834-3.711c16.6,1.435,33.272,4.364,50.006,8.789,16.734,4.432,30.743,9.375,42.029,14.844s17.317,10.291,18.096,14.453c-.261,23.438-1.04,54.041-2.335,91.797-1.301,35.419-2.274,71.552-2.918,108.398-.651,36.854-.523,68.945.389,96.29.906,27.344,3.308,44.666,7.199,51.953,7.783,7.557,22.182,10.742,43.196,9.57,21.015-1.172,43.975-3.711,68.881-7.617,17.379-2.6,33.596-4.688,48.645-6.25,5.704,0,11.931,6.316,18.68,18.945,6.743,12.635,11.803,27.801,15.177,45.508,3.369,17.713,2.853,33.984-1.557,48.828-4.414,14.844-14.787,24.354-31.132,28.516-49.557,13.025-118.693,19.402-207.42,19.141-21.537,0-39.372-2.668-53.509-8.008-14.144-5.334-25.362-12.109-33.662-20.312-8.306-8.203-14.399-16.34-18.291-24.414-3.892-8.068-6.877-17.834-8.95-29.297-3.113-22.912-6.227-61.193-9.34-114.844Z" fill="#fff" stroke="#1f140f" stroke-dasharray="15" stroke-miterlimit="10" stroke-width="30"/>
		<path d="M657.107,197.422c11.152.263,22.571,1.307,34.246,3.125,37.614,4.95,68.747,16.932,93.397,35.938,24.645,19.013,43.196,42.188,55.649,69.531s19.068,55.994,19.847,85.938c.778,29.95-3.764,58.203-13.62,84.766-4.67,10.938-13.231,24.939-25.685,41.992-12.453,17.059-28.67,34.57-48.645,52.539-19.98,17.969-43.585,33.729-70.826,47.266-27.241,13.543-57.856,22.4-91.841,26.562-32.434,5.994-62.398,3.582-89.896-7.227-27.502-10.803-50.463-31.701-68.881-62.695-18.424-30.988-30.487-73.828-36.191-128.516-.778-42.188,9.662-82.227,31.327-120.117,21.659-37.891,50.979-68.811,87.949-92.773,36.971-23.956,78.026-36.065,123.168-36.328ZM701.86,350.938c-12.714-.519-30.487,7.422-53.314,23.828-35.802,32.812-59.674,60.352-71.604,82.617-11.936,22.266-13.882,37.5-5.837,45.704,8.038,8.203,23.866,7.557,47.477-1.953,23.605-9.504,53.053-29.621,88.339-60.352,9.595-12.756,16.017-25.977,19.263-39.648,3.241-13.672,2.919-25.323-.973-34.961-3.892-9.631-11.675-14.709-23.35-15.234Z" fill="#fff" stroke="#1f140f" stroke-dasharray="15" stroke-miterlimit="10" stroke-width="30"/>
		<path d="M1045.875,139.609c29.314,0,53.897,2.997,73.745,8.984,19.847,5.994,36.902,13.672,51.174,23.047,19.458,14.588,33.334,33.203,41.64,55.859,8.3,22.656,9.662,44.336,4.086,65.039-5.582,20.703-19.524,41.083-41.834,61.133l-34.246,30.078c17.379,4.432,39.433,12.372,66.157,23.828,8.038,2.606,16.6,8.466,25.684,17.578,9.078,9.119,16.15,23.047,21.209,41.797,5.06,18.75,5.51,43.75,1.362,75-4.153,29.688-15.311,55.145-33.468,76.367-18.162,21.229-40.666,37.695-67.519,49.414-26.852,11.719-55.716,18.23-86.587,19.531-32.95-.256-63.043-4.748-90.284-13.477-27.241-8.723-45.403-20.703-54.481-35.938-9.085-15.234-17.901-41.857-26.463-79.883-5.972-45.312-9.602-94.336-10.896-147.071-1.302-52.734-1.04-109.045.778-168.945,1.812-54.688,5.509-83.398,11.091-86.133,5.576-2.734,14.138-5.401,25.685-8.008,11.541-2.6,40.667-4.815,87.365-6.641,12.709-1.037,24.645-1.562,35.803-1.562ZM1062.998,454.062c-12.977,0-23.873,2.539-32.689,7.617-8.823,5.079-13.231,12.44-13.231,22.071l6.615,85.938c2.591,10.156,9.535,17.059,20.82,20.703,11.285,3.65,23.866,3.65,37.748,0,13.876-3.645,26.073-11.262,36.581-22.852,10.507-11.584,16.405-27.277,17.706-47.07.256-15.363-3.308-27.93-10.701-37.695-7.395-9.766-16.801-16.993-28.214-21.68-11.42-4.688-22.961-7.031-34.635-7.031ZM1054.825,223.203h-2.335c-9.084.525-16.928,2.539-23.544,6.055-6.615,3.516-9.923,8.008-9.923,13.477v71.875c0,7.031,3.952,11.268,11.869,12.695,7.91,1.435,17.25.263,28.019-3.516,10.763-3.771,20.297-10.352,28.604-19.727,8.3-9.375,12.708-21.484,13.231-36.328-.523-15.881-5.448-27.276-14.788-34.18-9.34-6.896-19.72-10.352-31.133-10.352Z" fill="#fff" stroke="#1f140f" stroke-dasharray="15" stroke-miterlimit="10" stroke-width="30"/>
		<path d="M1522.591,197.422c11.152.263,22.571,1.307,34.246,3.125,37.614,4.95,68.747,16.932,93.397,35.938,24.645,19.013,43.196,42.188,55.649,69.531s19.068,55.994,19.847,85.938c.778,29.95-3.764,58.203-13.62,84.766-4.67,10.938-13.231,24.939-25.685,41.992-12.453,17.059-28.67,34.57-48.645,52.539-19.98,17.969-43.585,33.729-70.826,47.266-27.241,13.543-57.856,22.4-91.841,26.562-32.434,5.994-62.398,3.582-89.896-7.227-27.502-10.803-50.462-31.701-68.88-62.695-18.425-30.988-30.488-73.828-36.192-128.516-.778-42.188,9.662-82.227,31.327-120.117,21.659-37.891,50.979-68.811,87.949-92.773,36.971-23.956,78.026-36.065,123.168-36.328ZM1567.344,350.938c-12.714-.519-30.487,7.422-53.314,23.828-35.802,32.812-59.674,60.352-71.604,82.617-11.936,22.266-13.882,37.5-5.837,45.704,8.038,8.203,23.866,7.557,47.477-1.953,23.605-9.504,53.053-29.621,88.339-60.352,9.595-12.756,16.017-25.977,19.263-39.648,3.241-13.672,2.919-25.323-.973-34.961-3.892-9.631-11.675-14.709-23.35-15.234Z" fill="#fff" stroke="#1f140f" stroke-dasharray="15" stroke-miterlimit="10" stroke-width="30"/>
		<path d="M29.788,497.032c-3.113-53.644-4.804-104.816-5.059-153.516.255-9.112.389-20.703.389-34.766.255-24.219.517-49.279.778-75.195.255-25.909.517-44.592.778-56.055.778-11.456,6.81-19.141,18.096-23.047s25.228-5.139,41.834-3.711c16.6,1.435,33.272,4.364,50.006,8.789,16.734,4.432,30.743,9.375,42.029,14.844s17.317,10.291,18.096,14.453c-.261,23.438-1.04,54.041-2.335,91.797-1.301,35.419-2.274,71.552-2.918,108.398-.651,36.854-.523,68.945.389,96.29.906,27.344,3.308,44.666,7.199,51.953,7.783,7.557,22.182,10.742,43.196,9.57,21.015-1.172,43.975-3.711,68.881-7.617,17.379-2.6,33.596-4.688,48.645-6.25,5.704,0,11.931,6.316,18.68,18.945,6.743,12.635,11.803,27.801,15.177,45.508,3.369,17.713,2.853,33.984-1.557,48.828-4.414,14.844-14.787,24.354-31.132,28.516-49.557,13.025-118.693,19.402-207.42,19.141-21.537,0-39.372-2.668-53.509-8.008-14.144-5.334-25.362-12.109-33.662-20.312-8.306-8.203-14.399-16.34-18.291-24.414-3.892-8.068-6.877-17.834-8.95-29.297-3.113-22.912-6.227-61.193-9.34-114.844Z" fill="#fff"/><path d="M657.107,197.422c11.152.263,22.571,1.307,34.246,3.125,37.614,4.95,68.747,16.932,93.397,35.938,24.645,19.013,43.196,42.188,55.649,69.531s19.068,55.994,19.847,85.938c.778,29.95-3.764,58.203-13.62,84.766-4.67,10.938-13.231,24.939-25.685,41.992-12.453,17.059-28.67,34.57-48.645,52.539-19.98,17.969-43.585,33.729-70.826,47.266-27.241,13.543-57.856,22.4-91.841,26.562-32.434,5.994-62.398,3.582-89.896-7.227-27.502-10.803-50.463-31.701-68.881-62.695-18.424-30.988-30.487-73.828-36.191-128.516-.778-42.188,9.662-82.227,31.327-120.117,21.659-37.891,50.979-68.811,87.949-92.773,36.971-23.956,78.026-36.065,123.168-36.328ZM701.86,350.938c-12.714-.519-30.487,7.422-53.314,23.828-35.802,32.812-59.674,60.352-71.604,82.617-11.936,22.266-13.882,37.5-5.837,45.704,8.038,8.203,23.866,7.557,47.477-1.953,23.605-9.504,53.053-29.621,88.339-60.352,9.595-12.756,16.017-25.977,19.263-39.648,3.241-13.672,2.919-25.323-.973-34.961-3.892-9.631-11.675-14.709-23.35-15.234Z" fill="#fff"/>
		<path d="M1045.875,139.609c29.314,0,53.897,2.997,73.745,8.984,19.847,5.994,36.902,13.672,51.174,23.047,19.458,14.588,33.334,33.203,41.64,55.859,8.3,22.656,9.662,44.336,4.086,65.039-5.582,20.703-19.524,41.083-41.834,61.133l-34.246,30.078c17.379,4.432,39.433,12.372,66.157,23.828,8.038,2.606,16.6,8.466,25.684,17.578,9.078,9.119,16.15,23.047,21.209,41.797,5.06,18.75,5.51,43.75,1.362,75-4.153,29.688-15.311,55.145-33.468,76.367-18.162,21.229-40.666,37.695-67.519,49.414-26.852,11.719-55.716,18.23-86.587,19.531-32.95-.256-63.043-4.748-90.284-13.477-27.241-8.723-45.403-20.703-54.481-35.938-9.085-15.234-17.901-41.857-26.463-79.883-5.972-45.312-9.602-94.336-10.896-147.071-1.302-52.734-1.04-109.045.778-168.945,1.812-54.688,5.509-83.398,11.091-86.133,5.576-2.734,14.138-5.401,25.685-8.008,11.541-2.6,40.667-4.815,87.365-6.641,12.709-1.037,24.645-1.562,35.803-1.562ZM1062.998,454.062c-12.977,0-23.873,2.539-32.689,7.617-8.823,5.079-13.231,12.44-13.231,22.071l6.615,85.938c2.591,10.156,9.535,17.059,20.82,20.703,11.285,3.65,23.866,3.65,37.748,0,13.876-3.645,26.073-11.262,36.581-22.852,10.507-11.584,16.405-27.277,17.706-47.07.256-15.363-3.308-27.93-10.701-37.695-7.395-9.766-16.801-16.993-28.214-21.68-11.42-4.688-22.961-7.031-34.635-7.031ZM1054.825,223.203h-2.335c-9.084.525-16.928,2.539-23.544,6.055-6.615,3.516-9.923,8.008-9.923,13.477v71.875c0,7.031,3.952,11.268,11.869,12.695,7.91,1.435,17.25.263,28.019-3.516,10.763-3.771,20.297-10.352,28.604-19.727,8.3-9.375,12.708-21.484,13.231-36.328-.523-15.881-5.448-27.276-14.788-34.18-9.34-6.896-19.72-10.352-31.133-10.352Z" fill="#fff"/>
		<path d="M1522.591,197.422c11.152.263,22.571,1.307,34.246,3.125,37.614,4.95,68.747,16.932,93.397,35.938,24.645,19.013,43.196,42.188,55.649,69.531s19.068,55.994,19.847,85.938c.778,29.95-3.764,58.203-13.62,84.766-4.67,10.938-13.231,24.939-25.685,41.992-12.453,17.059-28.67,34.57-48.645,52.539-19.98,17.969-43.585,33.729-70.826,47.266-27.241,13.543-57.856,22.4-91.841,26.562-32.434,5.994-62.398,3.582-89.896-7.227-27.502-10.803-50.462-31.701-68.88-62.695-18.425-30.988-30.488-73.828-36.192-128.516-.778-42.188,9.662-82.227,31.327-120.117,21.659-37.891,50.979-68.811,87.949-92.773,36.971-23.956,78.026-36.065,123.168-36.328ZM1567.344,350.938c-12.714-.519-30.487,7.422-53.314,23.828-35.802,32.812-59.674,60.352-71.604,82.617-11.936,22.266-13.882,37.5-5.837,45.704,8.038,8.203,23.866,7.557,47.477-1.953,23.605-9.504,53.053-29.621,88.339-60.352,9.595-12.756,16.017-25.977,19.263-39.648,3.241-13.672,2.919-25.323-.973-34.961-3.892-9.631-11.675-14.709-23.35-15.234Z" fill="#fff"/>
	</g>
</svg>