<?xml version="1.0" encoding="UTF-8"?>
<svg id="Capa_2" xmlns="http://www.w3.org/2000/svg" viewBox="0 0 1666.791 762.032">
	<g id="Pato">
		<path d="M153.929,122.031c4.147.525,8.817.916,14.01,1.172,16.861,1.044,37.225,3.583,61.098,7.617,23.866,4.041,47.927,11.523,72.188,22.461,24.255,10.938,45.336,27.479,63.237,49.609,17.901,22.138,29.442,51.825,34.635,89.062,1.296,44.531-5.059,80.408-19.068,107.617-14.01,27.216-37.231,45.575-69.659,55.078-32.434,9.51-75.886,10.352-130.367,2.539l29.187,221.485c-22.833,6.775-42.485,11.98-58.957,15.625-16.479,3.643-32.884,6.055-49.229,7.227-16.344,1.172-29.965-.264-40.861-4.297-10.896-4.035-16.217-12.043-15.956-24.023L15.389,142.344c8.562-3.125,18.351-6.115,29.381-8.984,11.024-2.862,27.302-5.334,48.839-7.422,21.531-2.081,41.64-3.381,60.319-3.906ZM170.273,249.766c-7.783-.519-11.419,2.088-10.896,7.812l5.837,72.266c1.295,8.338,6.287,10.877,14.982,7.617,8.689-3.253,17.445-9.57,26.268-18.945,8.817-9.375,14.01-19.269,15.566-29.688.517-7.031-2.208-13.477-8.172-19.336-5.971-5.859-13.104-10.547-21.404-14.062-8.306-3.516-15.7-5.401-22.182-5.664Z" fill="#fff" stroke="#1f140f" stroke-dasharray="15" stroke-miterlimit="10" stroke-width="30"/>
		<path d="M624.418,147.031c14.266,0,26.658,1.893,37.166,5.664,10.506,3.778,17.316,9.57,20.43,17.383,16.861,44.531,33.662,93.299,50.396,146.289,16.732,52.997,33.012,106.58,48.838,160.743,15.566,51.824,30.609,100.916,45.143,147.266,1.557,4.432-2.273,10.809-11.48,19.141-9.211,8.338-21.342,16.541-36.385,24.609-15.051,8.074-30.617,14.002-46.699,17.773-16.09,3.777-30.354,3.387-42.807-1.172-12.453-4.553-20.498-15.295-24.129-32.227l-17.123-97.656c-2.078-11.975-4.348-21.809-6.811-29.492-2.469-7.678-5.643-14.387-9.533-20.117-3.893-5.725-8.562-8.723-14.01-8.984-5.709.525-10.508,3.906-14.398,10.156-3.893,6.25-7.006,13.477-9.34,21.68-2.336,8.203-4.543,18.816-6.615,31.836l-12.844,87.891c-3.635,20.312-13.754,32.812-30.354,37.5-16.605,4.688-34.963,4.559-55.065-.391-20.108-4.943-37.231-11.652-51.369-20.117-14.144-8.459-20.692-15.82-19.652-22.07,16.345-63.02,31.911-127.863,46.699-194.532,10.118-46.094,20.559-91.339,31.327-135.742,10.763-44.396,22.242-86.523,34.439-126.367,3.893-12.5,15.238-22.198,34.053-29.102,18.807-6.896,38.848-10.217,60.123-9.961ZM619.748,306.797h-1.166c-5.711.781-10.186,4.041-13.426,9.766-3.248,5.731-5.643,12.635-7.199,20.703-1.557,8.075-2.598,16.211-3.113,24.414-.523,8.203-.652,17.773-.391,28.711l50.592-1.953c0-10.938-.33-20.44-.975-28.516-.65-8.068-1.816-16.144-3.502-24.219-1.689-8.068-4.219-14.844-7.588-20.312-3.375-5.469-7.783-8.331-13.232-8.594Z" fill="#fff" stroke="#1f140f" stroke-dasharray="15" stroke-miterlimit="10" stroke-width="30"/>
		<path d="M769.185,266.758c-1.295-12.109-1.361-25.256-.194-39.453,1.168-14.19,3.436-31.836,6.811-52.93l428.461-16.406c9.595,2.606,15.238,10.224,16.929,22.852,1.684,12.635,1.423,26.562-.778,41.797-2.208,15.234-4.476,28.32-6.811,39.258-1.04,4.432-1.69,8.075-1.946,10.938l-117.914,3.516-21.403,367.579c-.523,4.168-6.75,8.924-18.68,14.258-11.937,5.34-25.818,9.766-41.64,13.281-15.828,3.516-29.837,4.559-42.029,3.125-12.197-1.428-18.679-6.836-19.457-16.211l-14.01-371.094-157.22,3.516c-5.448-3.906-8.822-11.914-10.118-24.023Z" fill="#fff" stroke="#1f140f" stroke-dasharray="15" stroke-miterlimit="10" stroke-width="30"/>
		<path d="M1429.972,197.422c11.152.263,22.571,1.307,34.246,3.125,37.614,4.95,68.747,16.932,93.397,35.938,24.645,19.013,43.196,42.188,55.649,69.531s19.068,55.994,19.847,85.938c.778,29.95-3.764,58.203-13.62,84.766-4.67,10.938-13.231,24.939-25.685,41.992-12.453,17.059-28.67,34.57-48.645,52.539-19.98,17.969-43.585,33.729-70.826,47.266-27.241,13.543-57.856,22.4-91.841,26.562-32.434,5.994-62.398,3.582-89.896-7.227-27.502-10.803-50.462-31.701-68.88-62.695-18.425-30.988-30.488-73.828-36.192-128.516-.778-42.188,9.662-82.227,31.327-120.117,21.659-37.891,50.979-68.811,87.949-92.773,36.971-23.956,78.026-36.065,123.168-36.328ZM1474.725,350.938c-12.714-.519-30.487,7.422-53.314,23.828-35.802,32.812-59.674,60.352-71.604,82.617-11.936,22.266-13.882,37.5-5.837,45.704,8.038,8.203,23.866,7.557,47.477-1.953,23.605-9.504,53.053-29.621,88.339-60.352,9.595-12.756,16.017-25.977,19.263-39.648,3.241-13.672,2.919-25.323-.973-34.961-3.892-9.631-11.675-14.709-23.35-15.234Z" fill="#fff" stroke="#1f140f" stroke-dasharray="15" stroke-miterlimit="10" stroke-width="30"/>
		<path d="M153.929,122.031c4.147.525,8.817.916,14.01,1.172,16.861,1.044,37.225,3.583,61.098,7.617,23.866,4.041,47.927,11.523,72.188,22.461,24.255,10.938,45.336,27.479,63.237,49.609,17.901,22.138,29.442,51.825,34.635,89.062,1.296,44.531-5.059,80.408-19.068,107.617-14.01,27.216-37.231,45.575-69.659,55.078-32.434,9.51-75.886,10.352-130.367,2.539l29.187,221.485c-22.833,6.775-42.485,11.98-58.957,15.625-16.479,3.643-32.884,6.055-49.229,7.227-16.344,1.172-29.965-.264-40.861-4.297-10.896-4.035-16.217-12.043-15.956-24.023L15.389,142.344c8.562-3.125,18.351-6.115,29.381-8.984,11.024-2.862,27.302-5.334,48.839-7.422,21.531-2.081,41.64-3.381,60.319-3.906ZM170.273,249.766c-7.783-.519-11.419,2.088-10.896,7.812l5.837,72.266c1.295,8.338,6.287,10.877,14.982,7.617,8.689-3.253,17.445-9.57,26.268-18.945,8.817-9.375,14.01-19.269,15.566-29.688.517-7.031-2.208-13.477-8.172-19.336-5.971-5.859-13.104-10.547-21.404-14.062-8.306-3.516-15.7-5.401-22.182-5.664Z" fill="#fff"/>
		<path d="M624.418,147.031c14.266,0,26.658,1.893,37.166,5.664,10.506,3.778,17.316,9.57,20.43,17.383,16.861,44.531,33.662,93.299,50.396,146.289,16.732,52.997,33.012,106.58,48.838,160.743,15.566,51.824,30.609,100.916,45.143,147.266,1.557,4.432-2.273,10.809-11.48,19.141-9.211,8.338-21.342,16.541-36.385,24.609-15.051,8.074-30.617,14.002-46.699,17.773-16.09,3.777-30.354,3.387-42.807-1.172-12.453-4.553-20.498-15.295-24.129-32.227l-17.123-97.656c-2.078-11.975-4.348-21.809-6.811-29.492-2.469-7.678-5.643-14.387-9.533-20.117-3.893-5.725-8.562-8.723-14.01-8.984-5.709.525-10.508,3.906-14.398,10.156-3.893,6.25-7.006,13.477-9.34,21.68-2.336,8.203-4.543,18.816-6.615,31.836l-12.844,87.891c-3.635,20.312-13.754,32.812-30.354,37.5-16.605,4.688-34.963,4.559-55.065-.391-20.108-4.943-37.231-11.652-51.369-20.117-14.144-8.459-20.692-15.82-19.652-22.07,16.345-63.02,31.911-127.863,46.699-194.532,10.118-46.094,20.559-91.339,31.327-135.742,10.763-44.396,22.242-86.523,34.439-126.367,3.893-12.5,15.238-22.198,34.053-29.102,18.807-6.896,38.848-10.217,60.123-9.961ZM619.748,306.797h-1.166c-5.711.781-10.186,4.041-13.426,9.766-3.248,5.731-5.643,12.635-7.199,20.703-1.557,8.075-2.598,16.211-3.113,24.414-.523,8.203-.652,17.773-.391,28.711l50.592-1.953c0-10.938-.33-20.44-.975-28.516-.65-8.068-1.816-16.144-3.502-24.219-1.689-8.068-4.219-14.844-7.588-20.312-3.375-5.469-7.783-8.331-13.232-8.594Z" fill="#fff"/>
		<path d="M769.185,266.758c-1.295-12.109-1.361-25.256-.194-39.453,1.168-14.19,3.436-31.836,6.811-52.93l428.461-16.406c9.595,2.606,15.238,10.224,16.929,22.852,1.684,12.635,1.423,26.562-.778,41.797-2.208,15.234-4.476,28.32-6.811,39.258-1.04,4.432-1.69,8.075-1.946,10.938l-117.914,3.516-21.403,367.579c-.523,4.168-6.75,8.924-18.68,14.258-11.937,5.34-25.818,9.766-41.64,13.281-15.828,3.516-29.837,4.559-42.029,3.125-12.197-1.428-18.679-6.836-19.457-16.211l-14.01-371.094-157.22,3.516c-5.448-3.906-8.822-11.914-10.118-24.023Z" fill="#fff"/><path d="M1429.972,197.422c11.152.263,22.571,1.307,34.246,3.125,37.614,4.95,68.747,16.932,93.397,35.938,24.645,19.013,43.196,42.188,55.649,69.531s19.068,55.994,19.847,85.938c.778,29.95-3.764,58.203-13.62,84.766-4.67,10.938-13.231,24.939-25.685,41.992-12.453,17.059-28.67,34.57-48.645,52.539-19.98,17.969-43.585,33.729-70.826,47.266-27.241,13.543-57.856,22.4-91.841,26.562-32.434,5.994-62.398,3.582-89.896-7.227-27.502-10.803-50.462-31.701-68.88-62.695-18.425-30.988-30.488-73.828-36.192-128.516-.778-42.188,9.662-82.227,31.327-120.117,21.659-37.891,50.979-68.811,87.949-92.773,36.971-23.956,78.026-36.065,123.168-36.328ZM1474.725,350.938c-12.714-.519-30.487,7.422-53.314,23.828-35.802,32.812-59.674,60.352-71.604,82.617-11.936,22.266-13.882,37.5-5.837,45.704,8.038,8.203,23.866,7.557,47.477-1.953,23.605-9.504,53.053-29.621,88.339-60.352,9.595-12.756,16.017-25.977,19.263-39.648,3.241-13.672,2.919-25.323-.973-34.961-3.892-9.631-11.675-14.709-23.35-15.234Z" fill="#fff"/>
	</g>
</svg>