<?xml version="1.0" encoding="UTF-8"?>
<svg id="Capa_2" xmlns="http://www.w3.org/2000/svg" viewBox="0 0 1966.053 762.032">
	<g id="Perro">
		<path d="M153.929,122.031c4.147.525,8.817.916,14.01,1.172,16.861,1.044,37.225,3.583,61.098,7.617,23.866,4.041,47.927,11.523,72.188,22.461,24.255,10.938,45.336,27.479,63.237,49.609,17.901,22.138,29.442,51.825,34.635,89.062,1.296,44.531-5.059,80.408-19.068,107.617-14.01,27.216-37.231,45.575-69.659,55.078-32.434,9.51-75.886,10.352-130.367,2.539l29.187,221.485c-22.833,6.775-42.485,11.98-58.957,15.625-16.479,3.643-32.884,6.055-49.229,7.227-16.344,1.172-29.965-.264-40.861-4.297-10.896-4.035-16.217-12.043-15.956-24.023L15.389,142.344c8.562-3.125,18.351-6.115,29.381-8.984,11.024-2.862,27.302-5.334,48.839-7.422,21.531-2.081,41.64-3.381,60.319-3.906ZM170.273,249.766c-7.783-.519-11.419,2.088-10.896,7.812l5.837,72.266c1.295,8.338,6.287,10.877,14.982,7.617,8.689-3.253,17.445-9.57,26.268-18.945,8.817-9.375,14.01-19.269,15.566-29.688.517-7.031-2.208-13.477-8.172-19.336-5.971-5.859-13.104-10.547-21.404-14.062-8.306-3.516-15.7-5.401-22.182-5.664Z" fill="#fff" stroke="#1f140f" stroke-dasharray="15" stroke-miterlimit="10" stroke-width="30"/>
		<path d="M583.557,170.859c38.139-2.081,65.635-2.734,82.502-1.953,15.305,1.825,25.49,8.789,30.549,20.898s6.742,25.977,5.059,41.602c-1.689,15.625-5.059,29.755-10.117,42.383-5.061,12.635-9.924,20.508-14.594,23.633-14.789,2.606-30.293,3.778-46.504,3.516-16.217-.256-36.131-1.562-59.736-3.906v71.094c16.6-.256,30.609-.128,42.029.391,11.414.525,22.309,1.825,32.689,3.906,13.486,20.312,21.336,39.062,23.543,56.25,2.201,17.188.645,31.122-4.67,41.797-5.32,10.682-12.52,16.406-21.598,17.188-21.275,0-46.182.135-74.719.391v68.359c46.438-2.344,86.395-3.125,119.861-2.344,15.822,1.043,25.684,7.488,29.576,19.336,3.891,11.854,4.146,25.391.777,40.625-3.375,15.234-8.111,28.455-14.203,39.648-6.1,11.199-11.092,16.797-14.982,16.797-12.199.262-24.518.652-36.971,1.172-29.059,1.043-58.051,1.629-86.977,1.758-28.932.135-57.012-1.496-84.252-4.883-5.71.262-11.286-6.445-16.734-20.117s-10.641-32.227-15.566-55.664c-4.931-23.438-9.212-49.805-12.842-79.102-3.636-29.297-6.421-59.571-8.367-90.821-1.945-31.25-2.724-61.584-2.335-91.016.39-29.425,2.201-55.987,5.448-79.688,3.241-23.693,8.105-42.578,14.594-56.641,6.481-14.062,15.043-21.094,25.685-21.094,37.358-.256,74.974-1.428,112.854-3.516Z" fill="#fff" stroke="#1f140f" stroke-dasharray="15" stroke-miterlimit="10" stroke-width="30"/><path d="M878.927,125.547c35.803.263,67.713,6.971,95.732,20.117,28.02,13.153,48.188,33.271,60.514,60.352,12.319,27.088,12.708,61.658,1.168,103.711-11.548,42.06-39.244,92.127-83.085,150.195l131.534,106.25c1.557,14.324-2.918,27.869-13.426,40.625-10.507,12.762-23.483,24.354-38.915,34.766-15.438,10.418-29.904,19.275-43.392,26.562l-117.524-96.094,22.182,123.828c-4.415,2.08-13.365,5.334-26.852,9.766-13.493,4.424-28.214,8.33-44.17,11.719-15.955,3.381-29.965,4.357-42.028,2.93-12.064-1.436-18.874-6.836-20.431-16.211-10.896-73.438-17.317-146.35-19.264-218.75-1.945-72.394-2.401-144.532-1.362-216.407.518-37.5.778-75,.778-112.5,44.364-20.831,90.54-31.115,138.54-30.859ZM869.198,259.531c-8.823-.519-12.977,2.344-12.453,8.594l6.615,80.859c1.557,9.375,7.133,12.244,16.733,8.594,9.596-3.644,19.324-10.742,29.188-21.289,9.856-10.547,15.693-21.545,17.512-33.008.517-7.812-2.529-14.972-9.146-21.484-6.615-6.506-14.532-11.779-23.738-15.82-9.212-4.034-17.451-6.183-24.711-6.445Z" fill="#fff" stroke="#1f140f" stroke-dasharray="15" stroke-miterlimit="10" stroke-width="30"/>
		<path d="M1251.35,125.547c35.803.263,67.713,6.971,95.732,20.117,28.02,13.153,48.188,33.271,60.514,60.352,12.319,27.088,12.708,61.658,1.168,103.711-11.548,42.06-39.244,92.127-83.085,150.195l131.534,106.25c1.557,14.324-2.918,27.869-13.426,40.625-10.507,12.762-23.483,24.354-38.915,34.766-15.438,10.418-29.904,19.275-43.392,26.562l-117.524-96.094,22.182,123.828c-4.415,2.08-13.365,5.334-26.852,9.766-13.493,4.424-28.214,8.33-44.17,11.719-15.955,3.381-29.965,4.357-42.028,2.93-12.064-1.436-18.874-6.836-20.431-16.211-10.896-73.438-17.317-146.35-19.264-218.75-1.945-72.394-2.401-144.532-1.362-216.407.518-37.5.778-75,.778-112.5,44.364-20.831,90.54-31.115,138.54-30.859ZM1241.621,259.531c-8.823-.519-12.977,2.344-12.453,8.594l6.615,80.859c1.557,9.375,7.133,12.244,16.733,8.594,9.596-3.644,19.324-10.742,29.188-21.289,9.856-10.547,15.693-21.545,17.512-33.008.517-7.812-2.529-14.972-9.146-21.484-6.615-6.506-14.532-11.779-23.738-15.82-9.212-4.034-17.451-6.183-24.711-6.445Z" fill="#fff" stroke="#1f140f" stroke-dasharray="15" stroke-miterlimit="10" stroke-width="30"/>
		<path d="M1729.232,197.422c11.152.263,22.571,1.307,34.246,3.125,37.614,4.95,68.747,16.932,93.397,35.938,24.645,19.013,43.196,42.188,55.649,69.531s19.068,55.994,19.847,85.938c.778,29.95-3.764,58.203-13.62,84.766-4.67,10.938-13.231,24.939-25.685,41.992-12.453,17.059-28.67,34.57-48.645,52.539-19.98,17.969-43.585,33.729-70.826,47.266-27.241,13.543-57.856,22.4-91.841,26.562-32.434,5.994-62.398,3.582-89.896-7.227-27.502-10.803-50.462-31.701-68.88-62.695-18.425-30.988-30.488-73.828-36.192-128.516-.778-42.188,9.662-82.227,31.327-120.117,21.659-37.891,50.979-68.811,87.949-92.773,36.971-23.956,78.026-36.065,123.168-36.328ZM1773.985,350.938c-12.714-.519-30.487,7.422-53.314,23.828-35.802,32.812-59.674,60.352-71.604,82.617-11.936,22.266-13.882,37.5-5.837,45.704,8.038,8.203,23.866,7.557,47.477-1.953,23.605-9.504,53.053-29.621,88.339-60.352,9.595-12.756,16.017-25.977,19.263-39.648,3.241-13.672,2.919-25.323-.973-34.961-3.892-9.631-11.675-14.709-23.35-15.234Z" fill="#fff" stroke="#1f140f" stroke-dasharray="15" stroke-miterlimit="10" stroke-width="30"/>
		<path d="M153.929,122.031c4.147.525,8.817.916,14.01,1.172,16.861,1.044,37.225,3.583,61.098,7.617,23.866,4.041,47.927,11.523,72.188,22.461,24.255,10.938,45.336,27.479,63.237,49.609,17.901,22.138,29.442,51.825,34.635,89.062,1.296,44.531-5.059,80.408-19.068,107.617-14.01,27.216-37.231,45.575-69.659,55.078-32.434,9.51-75.886,10.352-130.367,2.539l29.187,221.485c-22.833,6.775-42.485,11.98-58.957,15.625-16.479,3.643-32.884,6.055-49.229,7.227-16.344,1.172-29.965-.264-40.861-4.297-10.896-4.035-16.217-12.043-15.956-24.023L15.389,142.344c8.562-3.125,18.351-6.115,29.381-8.984,11.024-2.862,27.302-5.334,48.839-7.422,21.531-2.081,41.64-3.381,60.319-3.906ZM170.273,249.766c-7.783-.519-11.419,2.088-10.896,7.812l5.837,72.266c1.295,8.338,6.287,10.877,14.982,7.617,8.689-3.253,17.445-9.57,26.268-18.945,8.817-9.375,14.01-19.269,15.566-29.688.517-7.031-2.208-13.477-8.172-19.336-5.971-5.859-13.104-10.547-21.404-14.062-8.306-3.516-15.7-5.401-22.182-5.664Z" fill="#fff"/><path d="M583.557,170.859c38.139-2.081,65.635-2.734,82.502-1.953,15.305,1.825,25.49,8.789,30.549,20.898s6.742,25.977,5.059,41.602c-1.689,15.625-5.059,29.755-10.117,42.383-5.061,12.635-9.924,20.508-14.594,23.633-14.789,2.606-30.293,3.778-46.504,3.516-16.217-.256-36.131-1.562-59.736-3.906v71.094c16.6-.256,30.609-.128,42.029.391,11.414.525,22.309,1.825,32.689,3.906,13.486,20.312,21.336,39.062,23.543,56.25,2.201,17.188.645,31.122-4.67,41.797-5.32,10.682-12.52,16.406-21.598,17.188-21.275,0-46.182.135-74.719.391v68.359c46.438-2.344,86.395-3.125,119.861-2.344,15.822,1.043,25.684,7.488,29.576,19.336,3.891,11.854,4.146,25.391.777,40.625-3.375,15.234-8.111,28.455-14.203,39.648-6.1,11.199-11.092,16.797-14.982,16.797-12.199.262-24.518.652-36.971,1.172-29.059,1.043-58.051,1.629-86.977,1.758-28.932.135-57.012-1.496-84.252-4.883-5.71.262-11.286-6.445-16.734-20.117s-10.641-32.227-15.566-55.664c-4.931-23.438-9.212-49.805-12.842-79.102-3.636-29.297-6.421-59.571-8.367-90.821-1.945-31.25-2.724-61.584-2.335-91.016.39-29.425,2.201-55.987,5.448-79.688,3.241-23.693,8.105-42.578,14.594-56.641,6.481-14.062,15.043-21.094,25.685-21.094,37.358-.256,74.974-1.428,112.854-3.516Z" fill="#fff"/>
		<path d="M878.927,125.547c35.803.263,67.713,6.971,95.732,20.117,28.02,13.153,48.188,33.271,60.514,60.352,12.319,27.088,12.708,61.658,1.168,103.711-11.548,42.06-39.244,92.127-83.085,150.195l131.534,106.25c1.557,14.324-2.918,27.869-13.426,40.625-10.507,12.762-23.483,24.354-38.915,34.766-15.438,10.418-29.904,19.275-43.392,26.562l-117.524-96.094,22.182,123.828c-4.415,2.08-13.365,5.334-26.852,9.766-13.493,4.424-28.214,8.33-44.17,11.719-15.955,3.381-29.965,4.357-42.028,2.93-12.064-1.436-18.874-6.836-20.431-16.211-10.896-73.438-17.317-146.35-19.264-218.75-1.945-72.394-2.401-144.532-1.362-216.407.518-37.5.778-75,.778-112.5,44.364-20.831,90.54-31.115,138.54-30.859ZM869.198,259.531c-8.823-.519-12.977,2.344-12.453,8.594l6.615,80.859c1.557,9.375,7.133,12.244,16.733,8.594,9.596-3.644,19.324-10.742,29.188-21.289,9.856-10.547,15.693-21.545,17.512-33.008.517-7.812-2.529-14.972-9.146-21.484-6.615-6.506-14.532-11.779-23.738-15.82-9.212-4.034-17.451-6.183-24.711-6.445Z" fill="#fff"/>
		<path d="M1251.35,125.547c35.803.263,67.713,6.971,95.732,20.117,28.02,13.153,48.188,33.271,60.514,60.352,12.319,27.088,12.708,61.658,1.168,103.711-11.548,42.06-39.244,92.127-83.085,150.195l131.534,106.25c1.557,14.324-2.918,27.869-13.426,40.625-10.507,12.762-23.483,24.354-38.915,34.766-15.438,10.418-29.904,19.275-43.392,26.562l-117.524-96.094,22.182,123.828c-4.415,2.08-13.365,5.334-26.852,9.766-13.493,4.424-28.214,8.33-44.17,11.719-15.955,3.381-29.965,4.357-42.028,2.93-12.064-1.436-18.874-6.836-20.431-16.211-10.896-73.438-17.317-146.35-19.264-218.75-1.945-72.394-2.401-144.532-1.362-216.407.518-37.5.778-75,.778-112.5,44.364-20.831,90.54-31.115,138.54-30.859ZM1241.621,259.531c-8.823-.519-12.977,2.344-12.453,8.594l6.615,80.859c1.557,9.375,7.133,12.244,16.733,8.594,9.596-3.644,19.324-10.742,29.188-21.289,9.856-10.547,15.693-21.545,17.512-33.008.517-7.812-2.529-14.972-9.146-21.484-6.615-6.506-14.532-11.779-23.738-15.82-9.212-4.034-17.451-6.183-24.711-6.445Z" fill="#fff"/><path d="M1729.232,197.422c11.152.263,22.571,1.307,34.246,3.125,37.614,4.95,68.747,16.932,93.397,35.938,24.645,19.013,43.196,42.188,55.649,69.531s19.068,55.994,19.847,85.938c.778,29.95-3.764,58.203-13.62,84.766-4.67,10.938-13.231,24.939-25.685,41.992-12.453,17.059-28.67,34.57-48.645,52.539-19.98,17.969-43.585,33.729-70.826,47.266-27.241,13.543-57.856,22.4-91.841,26.562-32.434,5.994-62.398,3.582-89.896-7.227-27.502-10.803-50.462-31.701-68.88-62.695-18.425-30.988-30.488-73.828-36.192-128.516-.778-42.188,9.662-82.227,31.327-120.117,21.659-37.891,50.979-68.811,87.949-92.773,36.971-23.956,78.026-36.065,123.168-36.328ZM1773.985,350.938c-12.714-.519-30.487,7.422-53.314,23.828-35.802,32.812-59.674,60.352-71.604,82.617-11.936,22.266-13.882,37.5-5.837,45.704,8.038,8.203,23.866,7.557,47.477-1.953,23.605-9.504,53.053-29.621,88.339-60.352,9.595-12.756,16.017-25.977,19.263-39.648,3.241-13.672,2.919-25.323-.973-34.961-3.892-9.631-11.675-14.709-23.35-15.234Z" fill="#fff"/>
	</g>
</svg>