<?xml version="1.0" encoding="UTF-8"?>
<svg id="Capa_2" xmlns="http://www.w3.org/2000/svg" viewBox="0 0 1758.632 762.032">
	<g id="Toro">
		<path d="M16.167,266.758c-1.295-12.109-1.362-25.256-.195-39.453,1.167-14.19,3.436-31.836,6.811-52.93l428.461-16.406c9.595,2.606,15.237,10.224,16.928,22.852,1.685,12.635,1.423,26.562-.778,41.797-2.207,15.234-4.475,28.32-6.81,39.258-1.04,4.432-1.69,8.075-1.946,10.938l-117.914,3.516-21.403,367.579c-.523,4.168-6.75,8.924-18.68,14.258-11.937,5.34-25.818,9.766-41.64,13.281-15.828,3.516-29.838,4.559-42.029,3.125-12.198-1.428-18.68-6.836-19.458-16.211l-14.009-371.094-157.219,3.516c-5.448-3.906-8.823-11.914-10.118-24.023Z" fill="#fff" stroke="#1f140f" stroke-dasharray="15" stroke-miterlimit="10" stroke-width="30"/>
		<path d="M676.954,197.422c11.152.263,22.571,1.307,34.246,3.125,37.614,4.95,68.747,16.932,93.397,35.938,24.645,19.013,43.196,42.188,55.649,69.531s19.068,55.994,19.847,85.938c.778,29.95-3.764,58.203-13.62,84.766-4.67,10.938-13.231,24.939-25.685,41.992-12.453,17.059-28.67,34.57-48.645,52.539-19.98,17.969-43.585,33.729-70.826,47.266-27.241,13.543-57.856,22.4-91.841,26.562-32.434,5.994-62.398,3.582-89.896-7.227-27.502-10.803-50.463-31.701-68.881-62.695-18.424-30.988-30.487-73.828-36.191-128.516-.778-42.188,9.662-82.227,31.327-120.117,21.659-37.891,50.979-68.811,87.949-92.773,36.971-23.956,78.026-36.065,123.168-36.328ZM721.707,350.938c-12.714-.519-30.487,7.422-53.314,23.828-35.802,32.812-59.674,60.352-71.604,82.617-11.936,22.266-13.882,37.5-5.837,45.704,8.038,8.203,23.866,7.557,47.477-1.953,23.605-9.504,53.053-29.621,88.339-60.352,9.595-12.756,16.017-25.977,19.263-39.648,3.241-13.672,2.919-25.323-.973-34.961-3.892-9.631-11.675-14.709-23.35-15.234Z" fill="#fff" stroke="#1f140f" stroke-dasharray="15" stroke-miterlimit="10" stroke-width="30"/>
		<path d="M1043.929,125.547c35.803.263,67.713,6.971,95.732,20.117,28.02,13.153,48.188,33.271,60.514,60.352,12.319,27.088,12.708,61.658,1.168,103.711-11.548,42.06-39.244,92.127-83.085,150.195l131.534,106.25c1.557,14.324-2.918,27.869-13.426,40.625-10.507,12.762-23.483,24.354-38.915,34.766-15.438,10.418-29.904,19.275-43.392,26.562l-117.524-96.094,22.182,123.828c-4.415,2.08-13.365,5.334-26.852,9.766-13.493,4.424-28.214,8.33-44.17,11.719-15.955,3.381-29.965,4.357-42.028,2.93-12.064-1.436-18.874-6.836-20.431-16.211-10.896-73.438-17.317-146.35-19.264-218.75-1.945-72.394-2.401-144.532-1.362-216.407.518-37.5.778-75,.778-112.5,44.364-20.831,90.54-31.115,138.54-30.859ZM1034.2,259.531c-8.823-.519-12.977,2.344-12.453,8.594l6.615,80.859c1.557,9.375,7.133,12.244,16.733,8.594,9.596-3.644,19.324-10.742,29.188-21.289,9.856-10.547,15.693-21.545,17.512-33.008.517-7.812-2.529-14.972-9.146-21.484-6.615-6.506-14.532-11.779-23.738-15.82-9.212-4.034-17.451-6.183-24.711-6.445Z" fill="#fff" stroke="#1f140f" stroke-dasharray="15" stroke-miterlimit="10" stroke-width="30"/>
		<path d="M1521.812,197.422c11.152.263,22.571,1.307,34.246,3.125,37.614,4.95,68.747,16.932,93.397,35.938,24.645,19.013,43.196,42.188,55.649,69.531s19.068,55.994,19.847,85.938c.778,29.95-3.764,58.203-13.62,84.766-4.67,10.938-13.231,24.939-25.685,41.992-12.453,17.059-28.67,34.57-48.645,52.539-19.98,17.969-43.585,33.729-70.826,47.266-27.241,13.543-57.856,22.4-91.841,26.562-32.434,5.994-62.398,3.582-89.896-7.227-27.502-10.803-50.462-31.701-68.88-62.695-18.425-30.988-30.488-73.828-36.192-128.516-.778-42.188,9.662-82.227,31.327-120.117,21.659-37.891,50.979-68.811,87.949-92.773,36.971-23.956,78.026-36.065,123.168-36.328ZM1566.565,350.938c-12.714-.519-30.487,7.422-53.314,23.828-35.802,32.812-59.674,60.352-71.604,82.617-11.936,22.266-13.882,37.5-5.837,45.704,8.038,8.203,23.866,7.557,47.477-1.953,23.605-9.504,53.053-29.621,88.339-60.352,9.595-12.756,16.017-25.977,19.263-39.648,3.241-13.672,2.919-25.323-.973-34.961-3.892-9.631-11.675-14.709-23.35-15.234Z" fill="#fff" stroke="#1f140f" stroke-dasharray="15" stroke-miterlimit="10" stroke-width="30"/>
		<path d="M16.167,266.758c-1.295-12.109-1.362-25.256-.195-39.453,1.167-14.19,3.436-31.836,6.811-52.93l428.461-16.406c9.595,2.606,15.237,10.224,16.928,22.852,1.685,12.635,1.423,26.562-.778,41.797-2.207,15.234-4.475,28.32-6.81,39.258-1.04,4.432-1.69,8.075-1.946,10.938l-117.914,3.516-21.403,367.579c-.523,4.168-6.75,8.924-18.68,14.258-11.937,5.34-25.818,9.766-41.64,13.281-15.828,3.516-29.838,4.559-42.029,3.125-12.198-1.428-18.68-6.836-19.458-16.211l-14.009-371.094-157.219,3.516c-5.448-3.906-8.823-11.914-10.118-24.023Z" fill="#fff"/><path d="M676.954,197.422c11.152.263,22.571,1.307,34.246,3.125,37.614,4.95,68.747,16.932,93.397,35.938,24.645,19.013,43.196,42.188,55.649,69.531s19.068,55.994,19.847,85.938c.778,29.95-3.764,58.203-13.62,84.766-4.67,10.938-13.231,24.939-25.685,41.992-12.453,17.059-28.67,34.57-48.645,52.539-19.98,17.969-43.585,33.729-70.826,47.266-27.241,13.543-57.856,22.4-91.841,26.562-32.434,5.994-62.398,3.582-89.896-7.227-27.502-10.803-50.463-31.701-68.881-62.695-18.424-30.988-30.487-73.828-36.191-128.516-.778-42.188,9.662-82.227,31.327-120.117,21.659-37.891,50.979-68.811,87.949-92.773,36.971-23.956,78.026-36.065,123.168-36.328ZM721.707,350.938c-12.714-.519-30.487,7.422-53.314,23.828-35.802,32.812-59.674,60.352-71.604,82.617-11.936,22.266-13.882,37.5-5.837,45.704,8.038,8.203,23.866,7.557,47.477-1.953,23.605-9.504,53.053-29.621,88.339-60.352,9.595-12.756,16.017-25.977,19.263-39.648,3.241-13.672,2.919-25.323-.973-34.961-3.892-9.631-11.675-14.709-23.35-15.234Z" fill="#fff"/>
		<path d="M1043.929,125.547c35.803.263,67.713,6.971,95.732,20.117,28.02,13.153,48.188,33.271,60.514,60.352,12.319,27.088,12.708,61.658,1.168,103.711-11.548,42.06-39.244,92.127-83.085,150.195l131.534,106.25c1.557,14.324-2.918,27.869-13.426,40.625-10.507,12.762-23.483,24.354-38.915,34.766-15.438,10.418-29.904,19.275-43.392,26.562l-117.524-96.094,22.182,123.828c-4.415,2.08-13.365,5.334-26.852,9.766-13.493,4.424-28.214,8.33-44.17,11.719-15.955,3.381-29.965,4.357-42.028,2.93-12.064-1.436-18.874-6.836-20.431-16.211-10.896-73.438-17.317-146.35-19.264-218.75-1.945-72.394-2.401-144.532-1.362-216.407.518-37.5.778-75,.778-112.5,44.364-20.831,90.54-31.115,138.54-30.859ZM1034.2,259.531c-8.823-.519-12.977,2.344-12.453,8.594l6.615,80.859c1.557,9.375,7.133,12.244,16.733,8.594,9.596-3.644,19.324-10.742,29.188-21.289,9.856-10.547,15.693-21.545,17.512-33.008.517-7.812-2.529-14.972-9.146-21.484-6.615-6.506-14.532-11.779-23.738-15.82-9.212-4.034-17.451-6.183-24.711-6.445Z" fill="#fff"/>
		<path d="M1521.812,197.422c11.152.263,22.571,1.307,34.246,3.125,37.614,4.95,68.747,16.932,93.397,35.938,24.645,19.013,43.196,42.188,55.649,69.531s19.068,55.994,19.847,85.938c.778,29.95-3.764,58.203-13.62,84.766-4.67,10.938-13.231,24.939-25.685,41.992-12.453,17.059-28.67,34.57-48.645,52.539-19.98,17.969-43.585,33.729-70.826,47.266-27.241,13.543-57.856,22.4-91.841,26.562-32.434,5.994-62.398,3.582-89.896-7.227-27.502-10.803-50.462-31.701-68.88-62.695-18.425-30.988-30.488-73.828-36.192-128.516-.778-42.188,9.662-82.227,31.327-120.117,21.659-37.891,50.979-68.811,87.949-92.773,36.971-23.956,78.026-36.065,123.168-36.328ZM1566.565,350.938c-12.714-.519-30.487,7.422-53.314,23.828-35.802,32.812-59.674,60.352-71.604,82.617-11.936,22.266-13.882,37.5-5.837,45.704,8.038,8.203,23.866,7.557,47.477-1.953,23.605-9.504,53.053-29.621,88.339-60.352,9.595-12.756,16.017-25.977,19.263-39.648,3.241-13.672,2.919-25.323-.973-34.961-3.892-9.631-11.675-14.709-23.35-15.234Z" fill="#fff"/>
	</g>
</svg>