<?xml version="1.0" encoding="UTF-8"?>
<svg id="Capa_2" xmlns="http://www.w3.org/2000/svg" viewBox="0 0 1819.729 762.032">
	<g id="Vaca">
		<path d="M36.209,169.492c12.842-8.722,29.381-14.123,49.618-16.211,20.236-2.081,38.782-1.758,55.649.977,16.862,2.734,26.979,6.836,30.354,12.305l61.486,240.625c2.59,13.807,5.381,25.195,8.367,34.18,2.979,8.984,7.005,16.864,12.063,23.633,5.059,6.776,11.219,10.292,18.485,10.547,7.005-.256,13.292-4.035,18.874-11.329,5.575-7.287,10.312-15.753,14.204-25.391,3.892-9.631,7.783-22.003,11.675-37.109l62.653-225.781c2.335-5.206,10.763-9.112,25.296-11.719,14.526-2.6,31.582-3.32,51.174-2.148,19.586,1.172,38.198,4.627,55.844,10.352,17.64,5.731,30.744,14.258,39.305,25.586,8.562,11.328,8.817,25.977.778,43.945-18.162,62.244-41.901,124.158-71.216,185.742-29.32,61.59-62.265,122.852-98.846,183.79-15.565,22.918-34.963,41.15-58.179,54.688-23.222,13.543-47.026,19.141-71.41,16.797-24.389-4.162-45.275-14.123-62.654-29.883-17.384-15.754-29.187-31.701-35.413-47.852-1.818-4.426-9.212-26.496-22.182-66.211-12.976-39.709-27.825-85.022-44.559-135.938-16.734-50.909-37.943-115.686-63.627-194.336-4.67-17.443-.584-30.529,12.258-39.258Z" fill="#fff" stroke="#1f140f" stroke-dasharray="15" stroke-miterlimit="10" stroke-width="30"/>
		<path d="M727.156,147.031c14.266,0,26.656,1.893,37.164,5.664,10.508,3.778,17.318,9.57,20.432,17.383,16.861,44.531,33.662,93.299,50.395,146.289,16.734,52.997,33.012,106.58,48.84,160.743,15.566,51.824,30.609,100.916,45.143,147.266,1.557,4.432-2.275,10.809-11.48,19.141-9.213,8.338-21.344,16.541-36.387,24.609-15.049,8.074-30.615,14.002-46.699,17.773-16.088,3.777-30.354,3.387-42.807-1.172-12.453-4.553-20.498-15.295-24.127-32.227l-17.123-97.656c-2.08-11.975-4.348-21.809-6.811-29.492-2.469-7.678-5.643-14.387-9.535-20.117-3.891-5.725-8.561-8.723-14.01-8.984-5.709.525-10.506,3.906-14.398,10.156-3.891,6.25-7.004,13.477-9.34,21.68-2.334,8.203-4.541,18.816-6.615,31.836l-12.842,87.891c-3.637,20.312-13.754,32.812-30.354,37.5-16.607,4.688-34.965,4.559-55.066-.391-20.109-4.943-37.23-11.652-51.369-20.117-14.143-8.459-20.692-15.82-19.652-22.07,16.346-63.02,31.912-127.863,46.699-194.532,10.117-46.094,20.559-91.339,31.326-135.742,10.764-44.396,22.244-86.523,34.441-126.367,3.891-12.5,15.238-22.198,34.051-29.102,18.807-6.896,38.85-10.217,60.125-9.961ZM722.486,306.797h-1.168c-5.709.781-10.184,4.041-13.426,9.766-3.246,5.731-5.643,12.635-7.199,20.703-1.557,8.075-2.596,16.211-3.113,24.414-.523,8.203-.65,17.773-.389,28.711l50.59-1.953c0-10.938-.328-20.44-.973-28.516-.65-8.068-1.818-16.144-3.502-24.219-1.691-8.068-4.221-14.844-7.59-20.312-3.373-5.469-7.783-8.331-13.23-8.594Z" fill="#fff" stroke="#1f140f" stroke-dasharray="15" stroke-miterlimit="10" stroke-width="30"/>
		<path d="M1147.056,177.109c28.798-1.3,57.206-.977,85.226.977,28.019,1.953,52.469,7.166,73.355,15.625,20.881,8.466,35.219,21.619,43.002,39.453,7.783,17.841,5.965,41.864-5.448,72.07-10.379,13.807-20.887,21.875-31.521,24.219-10.641,2.344-21.276,1.172-31.911-3.516-10.641-4.688-21.275-10.803-31.91-18.359-29.838-13.8-55.589-17.706-77.248-11.719-21.665,5.994-40.083,20.38-55.26,43.164-15.178,22.791-27.569,52.283-37.165,88.477-3.113,18.494-1.751,37.305,4.087,56.446,5.837,19.141,14.653,34.832,26.462,47.07,11.803,12.244,25.229,17.322,40.278,15.234,15.043-2.082,30.354-14.973,45.92-38.672,7.261-13.537,16.473-21.936,27.63-25.195,11.152-3.254,23.41-3.381,36.775-.391,13.359,2.996,27.174,7.098,41.445,12.305,14.01,5.213,23.088,12.891,27.241,23.047,4.146,10.156,5.253,20.184,3.308,30.078-1.945,9.9-4.998,17.059-9.146,21.484-1.301,2.088-2.596,4.297-3.892,6.641-10.641,19.531-23.094,37.371-37.358,53.516-14.271,16.15-34.246,27.344-59.931,33.594-25.684,6.25-60.97,4.297-105.85-5.859-47.478-13.281-84.253-32.031-110.326-56.25s-44.042-50.646-53.898-79.297c-9.862-28.645-14.398-56.25-13.62-82.813,10.373-55.987,23.994-100.714,40.861-134.18,16.861-33.459,34.957-58.722,54.287-75.781,19.324-17.053,37.876-28.839,55.649-35.352,17.768-6.506,32.622-10.675,44.559-12.5,5.965-1.3,10.763-2.472,14.398-3.516Z" fill="#fff" stroke="#1f140f" stroke-dasharray="15" stroke-miterlimit="10" stroke-width="30"/>
		<path d="M1583.299,147.031c14.266,0,26.657,1.893,37.165,5.664,10.507,3.778,17.317,9.57,20.431,17.383,16.861,44.531,33.662,93.299,50.396,146.289,16.733,52.997,33.012,106.58,48.839,160.743,15.566,51.824,30.609,100.916,45.143,147.266,1.557,4.432-2.274,10.809-11.48,19.141-9.212,8.338-21.343,16.541-36.386,24.609-15.05,8.074-30.616,14.002-46.699,17.773-16.089,3.777-30.354,3.387-42.807-1.172-12.453-4.553-20.498-15.295-24.128-32.227l-17.123-97.656c-2.079-11.975-4.348-21.809-6.811-29.492-2.469-7.678-5.643-14.387-9.534-20.117-3.892-5.725-8.562-8.723-14.01-8.984-5.709.525-10.507,3.906-14.398,10.156s-7.005,13.477-9.34,21.68-4.542,18.816-6.615,31.836l-12.843,87.891c-3.636,20.312-13.754,32.812-30.354,37.5-16.606,4.688-34.964,4.559-55.066-.391-20.108-4.943-37.23-11.652-51.368-20.117-14.144-8.459-20.692-15.82-19.652-22.07,16.345-63.02,31.911-127.863,46.698-194.532,10.118-46.094,20.559-91.339,31.327-135.742,10.763-44.396,22.243-86.523,34.44-126.367,3.892-12.5,15.238-22.198,34.052-29.102,18.807-6.896,38.849-10.217,60.124-9.961ZM1578.629,306.797h-1.167c-5.71.781-10.185,4.041-13.426,9.766-3.247,5.731-5.643,12.635-7.199,20.703-1.557,8.075-2.597,16.211-3.113,24.414-.523,8.203-.651,17.773-.39,28.711l50.591-1.953c0-10.938-.329-20.44-.974-28.516-.65-8.068-1.817-16.144-3.502-24.219-1.69-8.068-4.22-14.844-7.589-20.312-3.374-5.469-7.783-8.331-13.231-8.594Z" fill="#fff" stroke="#1f140f" stroke-dasharray="15" stroke-miterlimit="10" stroke-width="30"/>
		<path d="M36.209,169.492c12.842-8.722,29.381-14.123,49.618-16.211,20.236-2.081,38.782-1.758,55.649.977,16.862,2.734,26.979,6.836,30.354,12.305l61.486,240.625c2.59,13.807,5.381,25.195,8.367,34.18,2.979,8.984,7.005,16.864,12.063,23.633,5.059,6.776,11.219,10.292,18.485,10.547,7.005-.256,13.292-4.035,18.874-11.329,5.575-7.287,10.312-15.753,14.204-25.391,3.892-9.631,7.783-22.003,11.675-37.109l62.653-225.781c2.335-5.206,10.763-9.112,25.296-11.719,14.526-2.6,31.582-3.32,51.174-2.148,19.586,1.172,38.198,4.627,55.844,10.352,17.64,5.731,30.744,14.258,39.305,25.586,8.562,11.328,8.817,25.977.778,43.945-18.162,62.244-41.901,124.158-71.216,185.742-29.32,61.59-62.265,122.852-98.846,183.79-15.565,22.918-34.963,41.15-58.179,54.688-23.222,13.543-47.026,19.141-71.41,16.797-24.389-4.162-45.275-14.123-62.654-29.883-17.384-15.754-29.187-31.701-35.413-47.852-1.818-4.426-9.212-26.496-22.182-66.211-12.976-39.709-27.825-85.022-44.559-135.938-16.734-50.909-37.943-115.686-63.627-194.336-4.67-17.443-.584-30.529,12.258-39.258Z" fill="#fff"/>
		<path d="M727.156,147.031c14.266,0,26.656,1.893,37.164,5.664,10.508,3.778,17.318,9.57,20.432,17.383,16.861,44.531,33.662,93.299,50.395,146.289,16.734,52.997,33.012,106.58,48.84,160.743,15.566,51.824,30.609,100.916,45.143,147.266,1.557,4.432-2.275,10.809-11.48,19.141-9.213,8.338-21.344,16.541-36.387,24.609-15.049,8.074-30.615,14.002-46.699,17.773-16.088,3.777-30.354,3.387-42.807-1.172-12.453-4.553-20.498-15.295-24.127-32.227l-17.123-97.656c-2.08-11.975-4.348-21.809-6.811-29.492-2.469-7.678-5.643-14.387-9.535-20.117-3.891-5.725-8.561-8.723-14.01-8.984-5.709.525-10.506,3.906-14.398,10.156-3.891,6.25-7.004,13.477-9.34,21.68-2.334,8.203-4.541,18.816-6.615,31.836l-12.842,87.891c-3.637,20.312-13.754,32.812-30.354,37.5-16.607,4.688-34.965,4.559-55.066-.391-20.109-4.943-37.23-11.652-51.369-20.117-14.143-8.459-20.692-15.82-19.652-22.07,16.346-63.02,31.912-127.863,46.699-194.532,10.117-46.094,20.559-91.339,31.326-135.742,10.764-44.396,22.244-86.523,34.441-126.367,3.891-12.5,15.238-22.198,34.051-29.102,18.807-6.896,38.85-10.217,60.125-9.961ZM722.486,306.797h-1.168c-5.709.781-10.184,4.041-13.426,9.766-3.246,5.731-5.643,12.635-7.199,20.703-1.557,8.075-2.596,16.211-3.113,24.414-.523,8.203-.65,17.773-.389,28.711l50.59-1.953c0-10.938-.328-20.44-.973-28.516-.65-8.068-1.818-16.144-3.502-24.219-1.691-8.068-4.221-14.844-7.59-20.312-3.373-5.469-7.783-8.331-13.23-8.594Z" fill="#fff"/>
		<path d="M1147.056,177.109c28.798-1.3,57.206-.977,85.226.977,28.019,1.953,52.469,7.166,73.355,15.625,20.881,8.466,35.219,21.619,43.002,39.453,7.783,17.841,5.965,41.864-5.448,72.07-10.379,13.807-20.887,21.875-31.521,24.219-10.641,2.344-21.276,1.172-31.911-3.516-10.641-4.688-21.275-10.803-31.91-18.359-29.838-13.8-55.589-17.706-77.248-11.719-21.665,5.994-40.083,20.38-55.26,43.164-15.178,22.791-27.569,52.283-37.165,88.477-3.113,18.494-1.751,37.305,4.087,56.446,5.837,19.141,14.653,34.832,26.462,47.07,11.803,12.244,25.229,17.322,40.278,15.234,15.043-2.082,30.354-14.973,45.92-38.672,7.261-13.537,16.473-21.936,27.63-25.195,11.152-3.254,23.41-3.381,36.775-.391,13.359,2.996,27.174,7.098,41.445,12.305,14.01,5.213,23.088,12.891,27.241,23.047,4.146,10.156,5.253,20.184,3.308,30.078-1.945,9.9-4.998,17.059-9.146,21.484-1.301,2.088-2.596,4.297-3.892,6.641-10.641,19.531-23.094,37.371-37.358,53.516-14.271,16.15-34.246,27.344-59.931,33.594-25.684,6.25-60.97,4.297-105.85-5.859-47.478-13.281-84.253-32.031-110.326-56.25s-44.042-50.646-53.898-79.297c-9.862-28.645-14.398-56.25-13.62-82.813,10.373-55.987,23.994-100.714,40.861-134.18,16.861-33.459,34.957-58.722,54.287-75.781,19.324-17.053,37.876-28.839,55.649-35.352,17.768-6.506,32.622-10.675,44.559-12.5,5.965-1.3,10.763-2.472,14.398-3.516Z" fill="#fff"/><path d="M1583.299,147.031c14.266,0,26.657,1.893,37.165,5.664,10.507,3.778,17.317,9.57,20.431,17.383,16.861,44.531,33.662,93.299,50.396,146.289,16.733,52.997,33.012,106.58,48.839,160.743,15.566,51.824,30.609,100.916,45.143,147.266,1.557,4.432-2.274,10.809-11.48,19.141-9.212,8.338-21.343,16.541-36.386,24.609-15.05,8.074-30.616,14.002-46.699,17.773-16.089,3.777-30.354,3.387-42.807-1.172-12.453-4.553-20.498-15.295-24.128-32.227l-17.123-97.656c-2.079-11.975-4.348-21.809-6.811-29.492-2.469-7.678-5.643-14.387-9.534-20.117-3.892-5.725-8.562-8.723-14.01-8.984-5.709.525-10.507,3.906-14.398,10.156s-7.005,13.477-9.34,21.68-4.542,18.816-6.615,31.836l-12.843,87.891c-3.636,20.312-13.754,32.812-30.354,37.5-16.606,4.688-34.964,4.559-55.066-.391-20.108-4.943-37.23-11.652-51.368-20.117-14.144-8.459-20.692-15.82-19.652-22.07,16.345-63.02,31.911-127.863,46.698-194.532,10.118-46.094,20.559-91.339,31.327-135.742,10.763-44.396,22.243-86.523,34.44-126.367,3.892-12.5,15.238-22.198,34.052-29.102,18.807-6.896,38.849-10.217,60.124-9.961ZM1578.629,306.797h-1.167c-5.71.781-10.185,4.041-13.426,9.766-3.247,5.731-5.643,12.635-7.199,20.703-1.557,8.075-2.597,16.211-3.113,24.414-.523,8.203-.651,17.773-.39,28.711l50.591-1.953c0-10.938-.329-20.44-.974-28.516-.65-8.068-1.817-16.144-3.502-24.219-1.69-8.068-4.22-14.844-7.589-20.312-3.374-5.469-7.783-8.331-13.231-8.594Z" fill="#fff"/>
	</g>
</svg>