<?xml version="1.0" encoding="UTF-8"?><svg id="Capa_2" xmlns="http://www.w3.org/2000/svg" viewBox="0 0 2951.396 762.032"><g id="Domingo"><path d="M173.387,132.578c17.378,0,32.166,1.435,44.364,4.297,3.629-1.562,14.204,1.044,31.716,7.812,17.512,6.775,37.358,19.275,59.54,37.5,22.183,18.231,42.157,43.622,59.931,76.172,17.768,32.557,28.73,73.828,32.884,123.828,2.59,48.438-3.697,91.602-18.874,129.493-15.178,37.891-35.158,69.988-59.931,96.289-24.778,26.307-50.396,46.229-76.858,59.766-26.462,13.543-49.684,20.057-69.658,19.531-22.054-1.818-45.337-10.09-69.854-24.805-24.517-14.709-41.707-29.748-51.563-45.117-7.528-13.537-12.647-41.992-15.372-85.352s-3.636-91.272-2.724-143.75c.906-52.472,3.046-99.023,6.421-139.648,3.369-40.625,7.26-64.709,11.675-72.266,11.675-16.144,28.664-27.472,50.979-33.984,22.31-6.506,44.753-9.766,67.324-9.766ZM194.79,311.094c-11.936.263-18.29,6.385-19.068,18.359l3.113,158.594c.517,11.463,5.12,18.164,13.815,20.117,8.689,1.953,18.679-.451,29.964-7.227,11.286-6.77,21.209-17.639,29.771-32.617,8.562-14.972,12.97-33.79,13.231-56.446-.262-22.912-4.348-41.857-12.258-56.836-7.917-14.972-17.318-26.104-28.214-33.398-10.896-7.287-21.015-10.803-30.354-10.547Z" fill="#fff" stroke="#1f140f" stroke-dasharray="15" stroke-miterlimit="10" stroke-width="30"/><path d="M669.949,197.422c11.152.263,22.572,1.307,34.246,3.125,37.615,4.95,68.748,16.932,93.398,35.938,24.645,19.013,43.195,42.188,55.648,69.531s19.068,55.994,19.848,85.938c.777,29.95-3.764,58.203-13.621,84.766-4.67,10.938-13.23,24.939-25.684,41.992-12.453,17.059-28.67,34.57-48.645,52.539-19.98,17.969-43.586,33.729-70.826,47.266-27.242,13.543-57.857,22.4-91.842,26.562-32.434,5.994-62.398,3.582-89.895-7.227-27.503-10.803-50.463-31.701-68.881-62.695-18.425-30.988-30.488-73.828-36.191-128.516-.778-42.188,9.662-82.227,31.327-120.117,21.658-37.891,50.979-68.811,87.948-92.773,36.971-23.956,78.027-36.065,123.168-36.328ZM714.703,350.938c-12.715-.519-30.488,7.422-53.314,23.828-35.803,32.812-59.674,60.352-71.605,82.617-11.936,22.266-13.881,37.5-5.836,45.704,8.037,8.203,23.865,7.557,47.477-1.953,23.605-9.504,53.053-29.621,88.338-60.352,9.596-12.756,16.018-25.977,19.264-39.648,3.24-13.672,2.918-25.323-.973-34.961-3.893-9.631-11.676-14.709-23.35-15.234Z" fill="#fff" stroke="#1f140f" stroke-dasharray="15" stroke-miterlimit="10" stroke-width="30"/><path d="M916.675,191.758c11.675-7.422,26.328-13.537,43.975-18.359,17.64-4.815,35.413-7.354,53.314-7.617,17.901-.256,33.078,2.674,45.531,8.789,12.453,6.122,19.068,16.346,19.847,30.664,2.852,28.125,6.093,48.114,9.729,59.961,3.631,11.854,8.757,24.677,15.372,38.477,6.615,13.807,15.11,21.094,25.49,21.875,10.117-.519,18.874-8.068,26.268-22.656,7.394-14.581,13.426-31.445,18.096-50.586s9.206-43.683,13.62-73.633c1.034-9.631,10.246-18.097,27.631-25.391,17.378-7.287,37.554-12.237,60.514-14.844,22.96-2.6,43.391-1.69,61.292,2.734,17.901,4.432,28.02,13.544,30.354,27.344,3.368,38.281,5.059,81.445,5.059,129.492s-.65,97.461-1.945,148.242c-1.818,70.838-2.08,135.809-.778,194.922-1.04,8.594-9.213,17.254-24.518,25.977-15.311,8.729-33.145,15.625-53.509,20.703-20.37,5.078-38.526,6.189-54.481,3.32-15.956-2.863-24.846-11.848-26.657-26.953l-5.06-214.454c-7.005,12.244-13.298,22.266-18.874,30.079-5.582,7.812-11.809,14.715-18.68,20.703-6.877,5.994-13.814,9.375-20.819,10.156-7.005,0-14.144-2.6-21.403-7.812-7.267-5.207-14.077-11.328-20.431-18.359-6.36-7.031-13.427-16.016-21.209-26.954l-2.725,198.829c-1.04,4.949-9.474,11.133-25.295,18.555-15.828,7.422-34.186,13.477-55.065,18.164-20.887,4.688-39.438,5.664-55.649,2.93-16.217-2.734-25.362-11.652-27.436-26.758-6.488-67.707-11.353-146.418-14.594-236.133-3.247-89.709-4.476-162.305-3.697-217.773-.522-8.331,5.06-16.211,16.734-23.633Z" fill="#fff" stroke="#1f140f" stroke-dasharray="15" stroke-miterlimit="10" stroke-width="30"/><path d="M1433.086,196.836c16.6-10.284,35.541-15.948,56.816-16.992,21.27-1.037,39.821,3.26,55.649,12.891,15.821,9.638,23.866,25.525,24.128,47.656l1.945,100.781v24.219c-.262,23.438-.194,48.768.194,75.977.39,27.215,1.752,53.711,4.087,79.493l4.67,81.641c.255,11.199-6.422,21.289-20.042,30.273s-29.965,14.648-49.033,16.992c-19.069,2.344-36.581-.977-52.536-9.961-15.956-8.984-26.141-25.842-30.549-50.586-8.823-60.156-15.372-119.465-19.652-177.93-4.281-58.459-5.388-115.948-3.309-172.461,1.812-17.706,11.024-31.701,27.631-41.992Z" fill="#fff" stroke="#1f140f" stroke-dasharray="15" stroke-miterlimit="10" stroke-width="30"/><path d="M1616.378,639.61l-19.847-450.782c-.523-7.55,5.576-13.995,18.29-19.336,12.709-5.334,28.02-9.045,45.921-11.133,17.901-2.081,34.307-2.148,49.229-.195,14.915,1.953,24.188,6.189,27.824,12.695l49.812,139.844c3.631,7.031,6.744,14.453,9.34,22.266,3.631,12.5,8.951,23.377,15.956,32.617,7.005,9.247,18.807,13.611,35.413,13.086l-1.557-48.438-5.448-150.781c-.523-7.55,5.965-13.928,19.458-19.141,13.486-5.206,29.637-8.722,48.449-10.547,18.808-1.818,35.736-1.172,50.785,1.953,15.044,3.125,23.738,9.51,26.073,19.141,4.147,76.825,6.811,154.169,7.979,232.031,1.167,77.87-.329,156.512-4.476,235.938-.523,12.244-6.227,22.266-17.123,30.078s-24.389,12.371-40.473,13.672c-16.089,1.307-32.172-1.428-48.255-8.203-16.089-6.77-29.576-18.615-40.473-35.547l-89.506-148.828c1.034,31.25,1.946,57.422,2.725,78.516s1.489,40.76,2.141,58.984c.645,18.23,1.101,30.604,1.361,37.109-5.448,9.9-15.566,16.541-30.354,19.922-14.788,3.387-30.744,3.973-47.866,1.758-17.123-2.209-31.979-7.287-44.559-15.234-12.587-7.941-19.525-18.42-20.82-31.445Z" fill="#fff" stroke="#1f140f" stroke-dasharray="15" stroke-miterlimit="10" stroke-width="30"/><path d="M2220.348,168.125c35.024-7.031,67.58-9.826,97.679-8.398,30.093,1.435,53.314,10.419,69.659,26.953,16.344,16.541,21.403,43.945,15.177,82.227-8.306,16.406-17.646,26.893-28.02,31.445-10.379,4.56-21.403,5.536-33.078,2.93-11.675-2.6-23.738-6.769-36.191-12.5-33.212-8.068-60.319-6.896-81.334,3.516-21.015,10.419-37.036,28.778-48.061,55.078-11.03,26.307-17.841,58.984-20.431,98.047.517,19.532,5.643,38.477,15.372,56.836,9.729,18.359,21.854,32.617,36.386,42.773,14.526,10.156,29.314,12.695,44.363,7.617,15.044-5.078,28.02-21.289,38.916-48.633.517-1.301.906-2.6,1.168-3.906,1.295-3.906,2.335-8.918,3.113-15.039.778-6.115.127-11.779-1.946-16.992-1.818-3.381-4.348-6.506-7.589-9.375-3.247-2.862-6.555-5.334-9.923-7.422-3.375-2.081-7.528-4.425-12.453-7.031-6.227-1.818-10.058-7.287-11.48-16.406-1.429-9.112-.845-19.201,1.751-30.273,2.591-11.065,6.871-20.568,12.843-28.516,5.965-7.94,13.231-11.523,21.793-10.742,25.161-2.081,46.564-2.93,64.21-2.539,17.641.391,34.636,2.674,50.979,6.836,16.345,4.169,28.798,11.2,37.359,21.094,8.038,10.938,12.259,25.33,12.647,43.164.39,17.841-1.167,35.81-4.67,53.907-3.502,18.104-6.943,33.008-10.312,44.727-.778,6.775-2.469,11.98-5.059,15.625-.778,2.605-1.69,5.213-2.725,7.812-6.749,22.137-15.827,42.908-27.241,62.305-11.419,19.402-29.643,34.832-54.676,46.289-25.04,11.463-61.554,16.406-109.548,14.844-51.368-3.906-92.753-15.625-124.141-35.156-31.395-19.531-55.005-43.029-70.826-70.508-15.828-27.473-25.946-54.883-30.354-82.227-.523-59.375,4.536-107.874,15.177-145.508,10.635-37.628,24.128-67.053,40.473-88.281,16.345-21.222,32.944-36.914,49.812-47.07,16.861-10.156,31.389-17.443,43.586-21.875,5.703-2.344,10.246-4.425,13.62-6.25,14.526-3.381,29.187-6.506,43.975-9.375Z" fill="#fff" stroke="#1f140f" stroke-dasharray="15" stroke-miterlimit="10" stroke-width="30"/><path d="M2714.576,197.422c11.152.263,22.571,1.307,34.246,3.125,37.614,4.95,68.747,16.932,93.397,35.938,24.645,19.013,43.196,42.188,55.649,69.531s19.068,55.994,19.847,85.938c.778,29.95-3.764,58.203-13.62,84.766-4.67,10.938-13.231,24.939-25.685,41.992-12.453,17.059-28.67,34.57-48.645,52.539-19.98,17.969-43.585,33.729-70.826,47.266-27.241,13.543-57.856,22.4-91.841,26.562-32.434,5.994-62.398,3.582-89.896-7.227-27.502-10.803-50.462-31.701-68.88-62.695-18.425-30.988-30.488-73.828-36.192-128.516-.778-42.188,9.662-82.227,31.327-120.117,21.659-37.891,50.979-68.811,87.949-92.773,36.971-23.956,78.026-36.065,123.168-36.328ZM2759.329,350.938c-12.714-.519-30.487,7.422-53.314,23.828-35.802,32.812-59.674,60.352-71.604,82.617-11.936,22.266-13.882,37.5-5.837,45.704,8.038,8.203,23.866,7.557,47.477-1.953,23.605-9.504,53.053-29.621,88.339-60.352,9.595-12.756,16.017-25.977,19.263-39.648,3.241-13.672,2.919-25.323-.973-34.961-3.892-9.631-11.675-14.709-23.35-15.234Z" fill="#fff" stroke="#1f140f" stroke-dasharray="15" stroke-miterlimit="10" stroke-width="30"/><path d="M173.387,132.578c17.378,0,32.166,1.435,44.364,4.297,3.629-1.562,14.204,1.044,31.716,7.812,17.512,6.775,37.358,19.275,59.54,37.5,22.183,18.231,42.157,43.622,59.931,76.172,17.768,32.557,28.73,73.828,32.884,123.828,2.59,48.438-3.697,91.602-18.874,129.493-15.178,37.891-35.158,69.988-59.931,96.289-24.778,26.307-50.396,46.229-76.858,59.766-26.462,13.543-49.684,20.057-69.658,19.531-22.054-1.818-45.337-10.09-69.854-24.805-24.517-14.709-41.707-29.748-51.563-45.117-7.528-13.537-12.647-41.992-15.372-85.352s-3.636-91.272-2.724-143.75c.906-52.472,3.046-99.023,6.421-139.648,3.369-40.625,7.26-64.709,11.675-72.266,11.675-16.144,28.664-27.472,50.979-33.984,22.31-6.506,44.753-9.766,67.324-9.766ZM194.79,311.094c-11.936.263-18.29,6.385-19.068,18.359l3.113,158.594c.517,11.463,5.12,18.164,13.815,20.117,8.689,1.953,18.679-.451,29.964-7.227,11.286-6.77,21.209-17.639,29.771-32.617,8.562-14.972,12.97-33.79,13.231-56.446-.262-22.912-4.348-41.857-12.258-56.836-7.917-14.972-17.318-26.104-28.214-33.398-10.896-7.287-21.015-10.803-30.354-10.547Z" fill="#fff"/><path d="M669.949,197.422c11.152.263,22.572,1.307,34.246,3.125,37.615,4.95,68.748,16.932,93.398,35.938,24.645,19.013,43.195,42.188,55.648,69.531s19.068,55.994,19.848,85.938c.777,29.95-3.764,58.203-13.621,84.766-4.67,10.938-13.23,24.939-25.684,41.992-12.453,17.059-28.67,34.57-48.645,52.539-19.98,17.969-43.586,33.729-70.826,47.266-27.242,13.543-57.857,22.4-91.842,26.562-32.434,5.994-62.398,3.582-89.895-7.227-27.503-10.803-50.463-31.701-68.881-62.695-18.425-30.988-30.488-73.828-36.191-128.516-.778-42.188,9.662-82.227,31.327-120.117,21.658-37.891,50.979-68.811,87.948-92.773,36.971-23.956,78.027-36.065,123.168-36.328ZM714.703,350.938c-12.715-.519-30.488,7.422-53.314,23.828-35.803,32.812-59.674,60.352-71.605,82.617-11.936,22.266-13.881,37.5-5.836,45.704,8.037,8.203,23.865,7.557,47.477-1.953,23.605-9.504,53.053-29.621,88.338-60.352,9.596-12.756,16.018-25.977,19.264-39.648,3.24-13.672,2.918-25.323-.973-34.961-3.893-9.631-11.676-14.709-23.35-15.234Z" fill="#fff"/><path d="M916.675,191.758c11.675-7.422,26.328-13.537,43.975-18.359,17.64-4.815,35.413-7.354,53.314-7.617,17.901-.256,33.078,2.674,45.531,8.789,12.453,6.122,19.068,16.346,19.847,30.664,2.852,28.125,6.093,48.114,9.729,59.961,3.631,11.854,8.757,24.677,15.372,38.477,6.615,13.807,15.11,21.094,25.49,21.875,10.117-.519,18.874-8.068,26.268-22.656,7.394-14.581,13.426-31.445,18.096-50.586s9.206-43.683,13.62-73.633c1.034-9.631,10.246-18.097,27.631-25.391,17.378-7.287,37.554-12.237,60.514-14.844,22.96-2.6,43.391-1.69,61.292,2.734,17.901,4.432,28.02,13.544,30.354,27.344,3.368,38.281,5.059,81.445,5.059,129.492s-.65,97.461-1.945,148.242c-1.818,70.838-2.08,135.809-.778,194.922-1.04,8.594-9.213,17.254-24.518,25.977-15.311,8.729-33.145,15.625-53.509,20.703-20.37,5.078-38.526,6.189-54.481,3.32-15.956-2.863-24.846-11.848-26.657-26.953l-5.06-214.454c-7.005,12.244-13.298,22.266-18.874,30.079-5.582,7.812-11.809,14.715-18.68,20.703-6.877,5.994-13.814,9.375-20.819,10.156-7.005,0-14.144-2.6-21.403-7.812-7.267-5.207-14.077-11.328-20.431-18.359-6.36-7.031-13.427-16.016-21.209-26.954l-2.725,198.829c-1.04,4.949-9.474,11.133-25.295,18.555-15.828,7.422-34.186,13.477-55.065,18.164-20.887,4.688-39.438,5.664-55.649,2.93-16.217-2.734-25.362-11.652-27.436-26.758-6.488-67.707-11.353-146.418-14.594-236.133-3.247-89.709-4.476-162.305-3.697-217.773-.522-8.331,5.06-16.211,16.734-23.633Z" fill="#fff"/><path d="M1433.086,196.836c16.6-10.284,35.541-15.948,56.816-16.992,21.27-1.037,39.821,3.26,55.649,12.891,15.821,9.638,23.866,25.525,24.128,47.656l1.945,100.781v24.219c-.262,23.438-.194,48.768.194,75.977.39,27.215,1.752,53.711,4.087,79.493l4.67,81.641c.255,11.199-6.422,21.289-20.042,30.273s-29.965,14.648-49.033,16.992c-19.069,2.344-36.581-.977-52.536-9.961-15.956-8.984-26.141-25.842-30.549-50.586-8.823-60.156-15.372-119.465-19.652-177.93-4.281-58.459-5.388-115.948-3.309-172.461,1.812-17.706,11.024-31.701,27.631-41.992Z" fill="#fff"/><path d="M1616.378,639.61l-19.847-450.782c-.523-7.55,5.576-13.995,18.29-19.336,12.709-5.334,28.02-9.045,45.921-11.133,17.901-2.081,34.307-2.148,49.229-.195,14.915,1.953,24.188,6.189,27.824,12.695l49.812,139.844c3.631,7.031,6.744,14.453,9.34,22.266,3.631,12.5,8.951,23.377,15.956,32.617,7.005,9.247,18.807,13.611,35.413,13.086l-1.557-48.438-5.448-150.781c-.523-7.55,5.965-13.928,19.458-19.141,13.486-5.206,29.637-8.722,48.449-10.547,18.808-1.818,35.736-1.172,50.785,1.953,15.044,3.125,23.738,9.51,26.073,19.141,4.147,76.825,6.811,154.169,7.979,232.031,1.167,77.87-.329,156.512-4.476,235.938-.523,12.244-6.227,22.266-17.123,30.078s-24.389,12.371-40.473,13.672c-16.089,1.307-32.172-1.428-48.255-8.203-16.089-6.77-29.576-18.615-40.473-35.547l-89.506-148.828c1.034,31.25,1.946,57.422,2.725,78.516s1.489,40.76,2.141,58.984c.645,18.23,1.101,30.604,1.361,37.109-5.448,9.9-15.566,16.541-30.354,19.922-14.788,3.387-30.744,3.973-47.866,1.758-17.123-2.209-31.979-7.287-44.559-15.234-12.587-7.941-19.525-18.42-20.82-31.445Z" fill="#fff"/><path d="M2220.348,168.125c35.024-7.031,67.58-9.826,97.679-8.398,30.093,1.435,53.314,10.419,69.659,26.953,16.344,16.541,21.403,43.945,15.177,82.227-8.306,16.406-17.646,26.893-28.02,31.445-10.379,4.56-21.403,5.536-33.078,2.93-11.675-2.6-23.738-6.769-36.191-12.5-33.212-8.068-60.319-6.896-81.334,3.516-21.015,10.419-37.036,28.778-48.061,55.078-11.03,26.307-17.841,58.984-20.431,98.047.517,19.532,5.643,38.477,15.372,56.836,9.729,18.359,21.854,32.617,36.386,42.773,14.526,10.156,29.314,12.695,44.363,7.617,15.044-5.078,28.02-21.289,38.916-48.633.517-1.301.906-2.6,1.168-3.906,1.295-3.906,2.335-8.918,3.113-15.039.778-6.115.127-11.779-1.946-16.992-1.818-3.381-4.348-6.506-7.589-9.375-3.247-2.862-6.555-5.334-9.923-7.422-3.375-2.081-7.528-4.425-12.453-7.031-6.227-1.818-10.058-7.287-11.48-16.406-1.429-9.112-.845-19.201,1.751-30.273,2.591-11.065,6.871-20.568,12.843-28.516,5.965-7.94,13.231-11.523,21.793-10.742,25.161-2.081,46.564-2.93,64.21-2.539,17.641.391,34.636,2.674,50.979,6.836,16.345,4.169,28.798,11.2,37.359,21.094,8.038,10.938,12.259,25.33,12.647,43.164.39,17.841-1.167,35.81-4.67,53.907-3.502,18.104-6.943,33.008-10.312,44.727-.778,6.775-2.469,11.98-5.059,15.625-.778,2.605-1.69,5.213-2.725,7.812-6.749,22.137-15.827,42.908-27.241,62.305-11.419,19.402-29.643,34.832-54.676,46.289-25.04,11.463-61.554,16.406-109.548,14.844-51.368-3.906-92.753-15.625-124.141-35.156-31.395-19.531-55.005-43.029-70.826-70.508-15.828-27.473-25.946-54.883-30.354-82.227-.523-59.375,4.536-107.874,15.177-145.508,10.635-37.628,24.128-67.053,40.473-88.281,16.345-21.222,32.944-36.914,49.812-47.07,16.861-10.156,31.389-17.443,43.586-21.875,5.703-2.344,10.246-4.425,13.62-6.25,14.526-3.381,29.187-6.506,43.975-9.375Z" fill="#fff"/><path d="M2714.576,197.422c11.152.263,22.571,1.307,34.246,3.125,37.614,4.95,68.747,16.932,93.397,35.938,24.645,19.013,43.196,42.188,55.649,69.531s19.068,55.994,19.847,85.938c.778,29.95-3.764,58.203-13.62,84.766-4.67,10.938-13.231,24.939-25.685,41.992-12.453,17.059-28.67,34.57-48.645,52.539-19.98,17.969-43.585,33.729-70.826,47.266-27.241,13.543-57.856,22.4-91.841,26.562-32.434,5.994-62.398,3.582-89.896-7.227-27.502-10.803-50.462-31.701-68.88-62.695-18.425-30.988-30.488-73.828-36.192-128.516-.778-42.188,9.662-82.227,31.327-120.117,21.659-37.891,50.979-68.811,87.949-92.773,36.971-23.956,78.026-36.065,123.168-36.328ZM2759.329,350.938c-12.714-.519-30.487,7.422-53.314,23.828-35.802,32.812-59.674,60.352-71.604,82.617-11.936,22.266-13.882,37.5-5.837,45.704,8.038,8.203,23.866,7.557,47.477-1.953,23.605-9.504,53.053-29.621,88.339-60.352,9.595-12.756,16.017-25.977,19.263-39.648,3.241-13.672,2.919-25.323-.973-34.961-3.892-9.631-11.675-14.709-23.35-15.234Z" fill="#fff"/></g></svg>