<?xml version="1.0" encoding="UTF-8"?><svg id="Capa_2" xmlns="http://www.w3.org/2000/svg" viewBox="0 0 2419.809 762.032"><g id="Jueves"><path d="M99.836,163.828h184.849c12.971.263,24.384.135,34.246-.391,12.709-.781,22.96-.519,30.743.781,7.783,1.307,13.487,5.469,17.123,12.5,3.63,7.031,5.704,18.885,6.227,35.547v290.235c1.812,42.449-6.749,77.088-25.685,103.906-18.94,26.824-43.913,45.898-74.912,57.227-31.005,11.328-63.433,15.105-97.289,11.328-33.856-3.771-64.733-15.295-92.619-34.57-27.892-19.27-48.322-46.094-61.292-80.469-2.335-13.801-3.502-27.99-3.502-42.578v-2.344c-1.301-22.131,1.812-39.514,9.34-52.149,7.521-12.628,17.64-21.484,30.354-26.562,12.708-5.078,26.329-7.482,40.861-7.227,14.01,0,26.718,2.021,38.137,6.055,11.414,4.041,20.625,12.177,27.63,24.414,7.005,12.245,10.635,30.34,10.896,54.297.778,17.969,4.147,30.34,10.118,37.109,5.965,6.775,11.414,10.027,16.345,9.766,5.448,0,11.48-2.99,18.095-8.984,6.616-5.988,10.18-16.406,10.702-31.25l-4.67-224.219-102.737-1.562c-16.606-.256-29.321-6.964-38.137-20.117-8.823-13.146-14.01-28.448-15.566-45.898-1.557-17.443.255-32.678,5.448-45.703,5.187-13.019,13.62-19.396,25.295-19.141Z" fill="#fff" stroke="#1f140f" stroke-dasharray="15" stroke-miterlimit="10" stroke-width="30"/><path d="M424.003,161.094c15.305-4.688,33.012-7.812,53.12-9.375,20.102-1.562,37.748-.195,52.925,4.102,15.178,4.297,22.894,12.695,23.155,25.195l-4.67,296.094c0,9.637.517,17.969,1.557,25,1.033,7.031,3.046,14.197,6.032,21.484,2.979,7.293,7.327,13.543,13.036,18.75,5.704,5.213,13.359,8.338,22.96,9.375,11.931.781,21.209-1.887,27.825-8.008,6.615-6.115,11.413-13.732,14.398-22.852,2.979-9.113,4.731-17.707,5.254-25.781.517-8.068.778-13.281.778-15.625s.645-18.225,1.945-47.657c1.296-29.425,2.725-62.5,4.281-99.219s3.502-83.331,5.837-139.844c1.034-15.1,9.146-24.347,24.322-27.734,15.178-3.381,32.622-3.125,52.342.781,19.713,3.906,36.97,9.119,51.758,15.625,14.788,6.513,22.31,11.854,22.571,16.016-.778,28.388-1.302,56.775-1.557,85.156,0,42.969-1.04,86.005-3.113,129.102-2.08,43.104-6.75,86.659-14.01,130.665-7.005,28.906-20.498,54.559-40.473,76.953-19.98,22.4-43.001,39.648-69.075,51.758-26.073,12.109-51.562,17.518-76.469,16.211-55.005-4.426-99.758-18.42-134.259-41.992-34.508-23.566-52.926-53.576-55.261-90.039-7.005-64.062-10.963-127.6-11.869-190.625-.912-63.019-.067-125.781,2.529-188.281.778-5.469,8.817-10.547,24.128-15.234Z" fill="#fff" stroke="#1f140f" stroke-dasharray="15" stroke-miterlimit="10" stroke-width="30"/><path d="M1001.9,170.859c38.138-2.081,65.634-2.734,82.501-1.953,15.306,1.825,25.49,8.789,30.549,20.898,5.06,12.109,6.743,25.977,5.06,41.602-1.69,15.625-5.06,29.755-10.118,42.383-5.06,12.635-9.924,20.508-14.594,23.633-14.788,2.606-30.293,3.778-46.504,3.516-16.217-.256-36.131-1.562-59.735-3.906v71.094c16.6-.256,30.609-.128,42.028.391,11.414.525,22.31,1.825,32.689,3.906,13.486,20.312,21.337,39.062,23.544,56.25,2.201,17.188.645,31.122-4.67,41.797-5.32,10.682-12.52,16.406-21.598,17.188-21.276,0-46.183.135-74.719.391v68.359c46.438-2.344,86.394-3.125,119.86-2.344,15.822,1.043,25.685,7.488,29.576,19.336,3.892,11.854,4.146,25.391.778,40.625-3.375,15.234-8.111,28.455-14.204,39.648-6.099,11.199-11.091,16.797-14.982,16.797-12.198.262-24.518.652-36.97,1.172-29.06,1.043-58.052,1.629-86.977,1.758-28.932.135-57.012-1.496-84.253-4.883-5.709.262-11.285-6.445-16.733-20.117s-10.641-32.227-15.566-55.664c-4.932-23.438-9.212-49.805-12.842-79.102-3.637-29.297-6.421-59.571-8.367-90.821-1.945-31.25-2.724-61.584-2.335-91.016.39-29.425,2.201-55.987,5.448-79.688,3.241-23.693,8.105-42.578,14.594-56.641,6.481-14.062,15.043-21.094,25.684-21.094,37.359-.256,74.974-1.428,112.855-3.516Z" fill="#fff" stroke="#1f140f" stroke-dasharray="15" stroke-miterlimit="10" stroke-width="30"/><path d="M1173.323,169.492c12.842-8.722,29.381-14.123,49.617-16.211,20.236-2.081,38.782-1.758,55.649.977,16.861,2.734,26.979,6.836,30.354,12.305l61.486,240.625c2.591,13.807,5.382,25.195,8.367,34.18,2.979,8.984,7.005,16.864,12.063,23.633,5.06,6.776,11.219,10.292,18.485,10.547,7.005-.256,13.292-4.035,18.874-11.329,5.576-7.287,10.312-15.753,14.204-25.391,3.892-9.631,7.783-22.003,11.675-37.109l62.654-225.781c2.335-5.206,10.763-9.112,25.295-11.719,14.526-2.6,31.582-3.32,51.174-2.148,19.586,1.172,38.198,4.627,55.844,10.352,17.64,5.731,30.744,14.258,39.305,25.586,8.562,11.328,8.817,25.977.778,43.945-18.162,62.244-41.9,124.158-71.215,185.742-29.32,61.59-62.266,122.852-98.846,183.79-15.566,22.918-34.964,41.15-58.179,54.688-23.222,13.543-47.027,19.141-71.41,16.797-24.39-4.162-45.276-14.123-62.654-29.883-17.385-15.754-29.187-31.701-35.413-47.852-1.818-4.426-9.213-26.496-22.183-66.211-12.976-39.709-27.824-85.022-44.558-135.938-16.734-50.909-37.943-115.686-63.628-194.336-4.67-17.443-.583-30.529,12.259-39.258Z" fill="#fff" stroke="#1f140f" stroke-dasharray="15" stroke-miterlimit="10" stroke-width="30"/><path d="M1888.397,170.859c38.138-2.081,65.634-2.734,82.501-1.953,15.306,1.825,25.49,8.789,30.549,20.898,5.06,12.109,6.743,25.977,5.06,41.602-1.69,15.625-5.06,29.755-10.118,42.383-5.06,12.635-9.924,20.508-14.594,23.633-14.788,2.606-30.293,3.778-46.504,3.516-16.217-.256-36.131-1.562-59.735-3.906v71.094c16.6-.256,30.609-.128,42.028.391,11.414.525,22.31,1.825,32.689,3.906,13.486,20.312,21.337,39.062,23.544,56.25,2.201,17.188.645,31.122-4.67,41.797-5.32,10.682-12.52,16.406-21.598,17.188-21.276,0-46.183.135-74.719.391v68.359c46.438-2.344,86.394-3.125,119.86-2.344,15.822,1.043,25.685,7.488,29.576,19.336,3.892,11.854,4.146,25.391.778,40.625-3.375,15.234-8.111,28.455-14.204,39.648-6.099,11.199-11.091,16.797-14.982,16.797-12.198.262-24.518.652-36.97,1.172-29.06,1.043-58.052,1.629-86.977,1.758-28.932.135-57.012-1.496-84.253-4.883-5.709.262-11.285-6.445-16.733-20.117s-10.641-32.227-15.566-55.664c-4.932-23.438-9.212-49.805-12.842-79.102-3.637-29.297-6.421-59.571-8.367-90.821-1.945-31.25-2.724-61.584-2.335-91.016.39-29.425,2.201-55.987,5.448-79.688,3.241-23.693,8.105-42.578,14.594-56.641,6.481-14.062,15.043-21.094,25.684-21.094,37.359-.256,74.974-1.428,112.855-3.516Z" fill="#fff" stroke="#1f140f" stroke-dasharray="15" stroke-miterlimit="10" stroke-width="30"/><path d="M2364.92,252.695c-6.36,14.197-14.922,27.216-25.685,39.062-10.769,11.854-19.652,19.471-26.657,22.852-16.867-7.287-31.589-13.281-44.169-17.969-12.587-4.688-25.362-8.594-38.332-11.719-7.783-1.818-15.761-2.014-23.933-.586-8.173,1.435-13.171,4.755-14.983,9.961-1.817,7.812-.912,14.393,2.725,19.727,3.63,5.341,9.34,10.352,17.123,15.039,11.93,7.031,25.684,14.325,41.25,21.875,22.049,10.419,43.646,22.596,64.795,36.523,21.142,13.935,37.682,31.775,49.617,53.516,11.93,21.747,14.788,49.159,8.562,82.227-7.783,43.494-21.403,76.893-40.861,100.195-19.458,23.309-42.096,38.807-67.908,46.484-25.817,7.684-52.475,9.766-79.972,6.25-27.502-3.516-53.253-10.352-77.247-20.508-24-10.156-43.914-21.484-59.735-33.984-.262-6.77.389-16.211,1.945-28.32s4.214-24.475,7.979-37.109c3.758-12.629,8.883-22.912,15.371-30.859,6.482-7.941,14.526-10.871,24.128-8.789,18.418,12.762,34.635,22.852,48.645,30.273s28.603,13.152,43.78,17.188c15.177,4.041,29.119,4.102,41.834.195,12.708-3.906,22.182-14.191,28.408-30.859,5.448-16.145,4.214-29.553-3.697-40.234-7.916-10.676-19.98-19.66-36.191-26.954-16.217-7.287-33.796-14.19-52.73-20.703-21.015-7.031-40.539-14.776-58.567-23.242-18.035-8.459-31.072-19.336-39.11-32.617-13.231-19.269-19.981-43.42-20.236-72.461-.262-29.034,5.059-57.227,15.955-84.57s26.329-48.175,46.31-62.5c26.718-16.925,56.817-24.67,90.284-23.242,33.468,1.435,64.989,8.729,94.565,21.875,29.575,13.153,52.013,28.711,67.324,46.68,5.965,10.682,5.771,23.114-.584,37.305Z" fill="#fff" stroke="#1f140f" stroke-dasharray="15" stroke-miterlimit="10" stroke-width="30"/><path d="M99.836,163.828h184.849c12.971.263,24.384.135,34.246-.391,12.709-.781,22.96-.519,30.743.781,7.783,1.307,13.487,5.469,17.123,12.5,3.63,7.031,5.704,18.885,6.227,35.547v290.235c1.812,42.449-6.749,77.088-25.685,103.906-18.94,26.824-43.913,45.898-74.912,57.227-31.005,11.328-63.433,15.105-97.289,11.328-33.856-3.771-64.733-15.295-92.619-34.57-27.892-19.27-48.322-46.094-61.292-80.469-2.335-13.801-3.502-27.99-3.502-42.578v-2.344c-1.301-22.131,1.812-39.514,9.34-52.149,7.521-12.628,17.64-21.484,30.354-26.562,12.708-5.078,26.329-7.482,40.861-7.227,14.01,0,26.718,2.021,38.137,6.055,11.414,4.041,20.625,12.177,27.63,24.414,7.005,12.245,10.635,30.34,10.896,54.297.778,17.969,4.147,30.34,10.118,37.109,5.965,6.775,11.414,10.027,16.345,9.766,5.448,0,11.48-2.99,18.095-8.984,6.616-5.988,10.18-16.406,10.702-31.25l-4.67-224.219-102.737-1.562c-16.606-.256-29.321-6.964-38.137-20.117-8.823-13.146-14.01-28.448-15.566-45.898-1.557-17.443.255-32.678,5.448-45.703,5.187-13.019,13.62-19.396,25.295-19.141Z" fill="#fff"/><path d="M424.003,161.094c15.305-4.688,33.012-7.812,53.12-9.375,20.102-1.562,37.748-.195,52.925,4.102,15.178,4.297,22.894,12.695,23.155,25.195l-4.67,296.094c0,9.637.517,17.969,1.557,25,1.033,7.031,3.046,14.197,6.032,21.484,2.979,7.293,7.327,13.543,13.036,18.75,5.704,5.213,13.359,8.338,22.96,9.375,11.931.781,21.209-1.887,27.825-8.008,6.615-6.115,11.413-13.732,14.398-22.852,2.979-9.113,4.731-17.707,5.254-25.781.517-8.068.778-13.281.778-15.625s.645-18.225,1.945-47.657c1.296-29.425,2.725-62.5,4.281-99.219s3.502-83.331,5.837-139.844c1.034-15.1,9.146-24.347,24.322-27.734,15.178-3.381,32.622-3.125,52.342.781,19.713,3.906,36.97,9.119,51.758,15.625,14.788,6.513,22.31,11.854,22.571,16.016-.778,28.388-1.302,56.775-1.557,85.156,0,42.969-1.04,86.005-3.113,129.102-2.08,43.104-6.75,86.659-14.01,130.665-7.005,28.906-20.498,54.559-40.473,76.953-19.98,22.4-43.001,39.648-69.075,51.758-26.073,12.109-51.562,17.518-76.469,16.211-55.005-4.426-99.758-18.42-134.259-41.992-34.508-23.566-52.926-53.576-55.261-90.039-7.005-64.062-10.963-127.6-11.869-190.625-.912-63.019-.067-125.781,2.529-188.281.778-5.469,8.817-10.547,24.128-15.234Z" fill="#fff"/><path d="M1001.9,170.859c38.138-2.081,65.634-2.734,82.501-1.953,15.306,1.825,25.49,8.789,30.549,20.898,5.06,12.109,6.743,25.977,5.06,41.602-1.69,15.625-5.06,29.755-10.118,42.383-5.06,12.635-9.924,20.508-14.594,23.633-14.788,2.606-30.293,3.778-46.504,3.516-16.217-.256-36.131-1.562-59.735-3.906v71.094c16.6-.256,30.609-.128,42.028.391,11.414.525,22.31,1.825,32.689,3.906,13.486,20.312,21.337,39.062,23.544,56.25,2.201,17.188.645,31.122-4.67,41.797-5.32,10.682-12.52,16.406-21.598,17.188-21.276,0-46.183.135-74.719.391v68.359c46.438-2.344,86.394-3.125,119.86-2.344,15.822,1.043,25.685,7.488,29.576,19.336,3.892,11.854,4.146,25.391.778,40.625-3.375,15.234-8.111,28.455-14.204,39.648-6.099,11.199-11.091,16.797-14.982,16.797-12.198.262-24.518.652-36.97,1.172-29.06,1.043-58.052,1.629-86.977,1.758-28.932.135-57.012-1.496-84.253-4.883-5.709.262-11.285-6.445-16.733-20.117s-10.641-32.227-15.566-55.664c-4.932-23.438-9.212-49.805-12.842-79.102-3.637-29.297-6.421-59.571-8.367-90.821-1.945-31.25-2.724-61.584-2.335-91.016.39-29.425,2.201-55.987,5.448-79.688,3.241-23.693,8.105-42.578,14.594-56.641,6.481-14.062,15.043-21.094,25.684-21.094,37.359-.256,74.974-1.428,112.855-3.516Z" fill="#fff"/><path d="M1173.323,169.492c12.842-8.722,29.381-14.123,49.617-16.211,20.236-2.081,38.782-1.758,55.649.977,16.861,2.734,26.979,6.836,30.354,12.305l61.486,240.625c2.591,13.807,5.382,25.195,8.367,34.18,2.979,8.984,7.005,16.864,12.063,23.633,5.06,6.776,11.219,10.292,18.485,10.547,7.005-.256,13.292-4.035,18.874-11.329,5.576-7.287,10.312-15.753,14.204-25.391,3.892-9.631,7.783-22.003,11.675-37.109l62.654-225.781c2.335-5.206,10.763-9.112,25.295-11.719,14.526-2.6,31.582-3.32,51.174-2.148,19.586,1.172,38.198,4.627,55.844,10.352,17.64,5.731,30.744,14.258,39.305,25.586,8.562,11.328,8.817,25.977.778,43.945-18.162,62.244-41.9,124.158-71.215,185.742-29.32,61.59-62.266,122.852-98.846,183.79-15.566,22.918-34.964,41.15-58.179,54.688-23.222,13.543-47.027,19.141-71.41,16.797-24.39-4.162-45.276-14.123-62.654-29.883-17.385-15.754-29.187-31.701-35.413-47.852-1.818-4.426-9.213-26.496-22.183-66.211-12.976-39.709-27.824-85.022-44.558-135.938-16.734-50.909-37.943-115.686-63.628-194.336-4.67-17.443-.583-30.529,12.259-39.258Z" fill="#fff"/><path d="M1888.397,170.859c38.138-2.081,65.634-2.734,82.501-1.953,15.306,1.825,25.49,8.789,30.549,20.898,5.06,12.109,6.743,25.977,5.06,41.602-1.69,15.625-5.06,29.755-10.118,42.383-5.06,12.635-9.924,20.508-14.594,23.633-14.788,2.606-30.293,3.778-46.504,3.516-16.217-.256-36.131-1.562-59.735-3.906v71.094c16.6-.256,30.609-.128,42.028.391,11.414.525,22.31,1.825,32.689,3.906,13.486,20.312,21.337,39.062,23.544,56.25,2.201,17.188.645,31.122-4.67,41.797-5.32,10.682-12.52,16.406-21.598,17.188-21.276,0-46.183.135-74.719.391v68.359c46.438-2.344,86.394-3.125,119.86-2.344,15.822,1.043,25.685,7.488,29.576,19.336,3.892,11.854,4.146,25.391.778,40.625-3.375,15.234-8.111,28.455-14.204,39.648-6.099,11.199-11.091,16.797-14.982,16.797-12.198.262-24.518.652-36.97,1.172-29.06,1.043-58.052,1.629-86.977,1.758-28.932.135-57.012-1.496-84.253-4.883-5.709.262-11.285-6.445-16.733-20.117s-10.641-32.227-15.566-55.664c-4.932-23.438-9.212-49.805-12.842-79.102-3.637-29.297-6.421-59.571-8.367-90.821-1.945-31.25-2.724-61.584-2.335-91.016.39-29.425,2.201-55.987,5.448-79.688,3.241-23.693,8.105-42.578,14.594-56.641,6.481-14.062,15.043-21.094,25.684-21.094,37.359-.256,74.974-1.428,112.855-3.516Z" fill="#fff"/><path d="M2364.92,252.695c-6.36,14.197-14.922,27.216-25.685,39.062-10.769,11.854-19.652,19.471-26.657,22.852-16.867-7.287-31.589-13.281-44.169-17.969-12.587-4.688-25.362-8.594-38.332-11.719-7.783-1.818-15.761-2.014-23.933-.586-8.173,1.435-13.171,4.755-14.983,9.961-1.817,7.812-.912,14.393,2.725,19.727,3.63,5.341,9.34,10.352,17.123,15.039,11.93,7.031,25.684,14.325,41.25,21.875,22.049,10.419,43.646,22.596,64.795,36.523,21.142,13.935,37.682,31.775,49.617,53.516,11.93,21.747,14.788,49.159,8.562,82.227-7.783,43.494-21.403,76.893-40.861,100.195-19.458,23.309-42.096,38.807-67.908,46.484-25.817,7.684-52.475,9.766-79.972,6.25-27.502-3.516-53.253-10.352-77.247-20.508-24-10.156-43.914-21.484-59.735-33.984-.262-6.77.389-16.211,1.945-28.32s4.214-24.475,7.979-37.109c3.758-12.629,8.883-22.912,15.371-30.859,6.482-7.941,14.526-10.871,24.128-8.789,18.418,12.762,34.635,22.852,48.645,30.273s28.603,13.152,43.78,17.188c15.177,4.041,29.119,4.102,41.834.195,12.708-3.906,22.182-14.191,28.408-30.859,5.448-16.145,4.214-29.553-3.697-40.234-7.916-10.676-19.98-19.66-36.191-26.954-16.217-7.287-33.796-14.19-52.73-20.703-21.015-7.031-40.539-14.776-58.567-23.242-18.035-8.459-31.072-19.336-39.11-32.617-13.231-19.269-19.981-43.42-20.236-72.461-.262-29.034,5.059-57.227,15.955-84.57s26.329-48.175,46.31-62.5c26.718-16.925,56.817-24.67,90.284-23.242,33.468,1.435,64.989,8.729,94.565,21.875,29.575,13.153,52.013,28.711,67.324,46.68,5.965,10.682,5.771,23.114-.584,37.305Z" fill="#fff"/></g></svg>