<?xml version="1.0" encoding="UTF-8"?><svg id="Capa_2" xmlns="http://www.w3.org/2000/svg" viewBox="0 0 1925.58 762.032"><g id="Lunes"><g id="LUNES"><path d="M29.788,497.032c-3.113-53.644-4.804-104.816-5.059-153.516.255-9.112.389-20.703.389-34.766.255-24.219.517-49.279.778-75.195.255-25.909.517-44.592.778-56.055.778-11.456,6.81-19.141,18.096-23.047s25.228-5.139,41.834-3.711c16.6,1.435,33.272,4.364,50.006,8.789,16.734,4.432,30.743,9.375,42.029,14.844s17.317,10.291,18.096,14.453c-.261,23.438-1.04,54.041-2.335,91.797-1.301,35.419-2.274,71.552-2.918,108.398-.651,36.854-.523,68.945.389,96.29.906,27.344,3.308,44.666,7.199,51.953,7.783,7.557,22.182,10.742,43.196,9.57,21.015-1.172,43.975-3.711,68.881-7.617,17.379-2.6,33.596-4.688,48.645-6.25,5.704,0,11.931,6.316,18.68,18.945,6.743,12.635,11.803,27.801,15.177,45.508,3.369,17.713,2.853,33.984-1.557,48.828-4.414,14.844-14.787,24.354-31.132,28.516-49.557,13.025-118.693,19.402-207.42,19.141-21.537,0-39.372-2.668-53.509-8.008-14.144-5.334-25.362-12.109-33.662-20.312-8.306-8.203-14.399-16.34-18.291-24.414-3.892-8.068-6.877-17.834-8.95-29.297-3.113-22.912-6.227-61.193-9.34-114.844Z" fill="#fff" stroke="#1f140f" stroke-dasharray="15" stroke-miterlimit="10" stroke-width="30"/><path d="M434.899,161.094c15.305-4.688,33.012-7.812,53.12-9.375,20.102-1.562,37.748-.195,52.925,4.102,15.178,4.297,22.894,12.695,23.155,25.195l-4.67,296.094c0,9.637.517,17.969,1.557,25,1.033,7.031,3.046,14.197,6.032,21.484,2.979,7.293,7.327,13.543,13.036,18.75,5.704,5.213,13.359,8.338,22.96,9.375,11.931.781,21.209-1.887,27.825-8.008,6.615-6.115,11.413-13.732,14.398-22.852,2.979-9.113,4.731-17.707,5.254-25.781.517-8.068.778-13.281.778-15.625s.645-18.225,1.945-47.657c1.296-29.425,2.725-62.5,4.281-99.219s3.502-83.331,5.837-139.844c1.034-15.1,9.146-24.347,24.322-27.734,15.178-3.381,32.622-3.125,52.342.781,19.713,3.906,36.97,9.119,51.758,15.625,14.788,6.513,22.31,11.854,22.571,16.016-.778,28.388-1.302,56.775-1.557,85.156,0,42.969-1.04,86.005-3.113,129.102-2.08,43.104-6.75,86.659-14.01,130.665-7.005,28.906-20.498,54.559-40.473,76.953-19.98,22.4-43.001,39.648-69.075,51.758-26.073,12.109-51.562,17.518-76.469,16.211-55.005-4.426-99.758-18.42-134.259-41.992-34.508-23.566-52.926-53.576-55.261-90.039-7.005-64.062-10.963-127.6-11.869-190.625-.912-63.019-.067-125.781,2.529-188.281.778-5.469,8.817-10.547,24.128-15.234Z" fill="#fff" stroke="#1f140f" stroke-dasharray="15" stroke-miterlimit="10" stroke-width="30"/><path d="M853.242,639.61l-19.847-450.782c-.523-7.55,5.576-13.995,18.29-19.336,12.709-5.334,28.02-9.045,45.921-11.133,17.901-2.081,34.307-2.148,49.229-.195,14.915,1.953,24.188,6.189,27.824,12.695l49.812,139.844c3.631,7.031,6.744,14.453,9.34,22.266,3.631,12.5,8.951,23.377,15.956,32.617,7.005,9.247,18.807,13.611,35.413,13.086l-1.557-48.438-5.448-150.781c-.523-7.55,5.965-13.928,19.458-19.141,13.486-5.206,29.637-8.722,48.449-10.547,18.808-1.818,35.736-1.172,50.785,1.953,15.044,3.125,23.738,9.51,26.073,19.141,4.147,76.825,6.811,154.169,7.979,232.031,1.167,77.87-.329,156.512-4.476,235.938-.523,12.244-6.227,22.266-17.123,30.078s-24.389,12.371-40.473,13.672c-16.089,1.307-32.172-1.428-48.255-8.203-16.089-6.77-29.576-18.615-40.473-35.547l-89.506-148.828c1.034,31.25,1.946,57.422,2.725,78.516s1.489,40.76,2.141,58.984c.645,18.23,1.101,30.604,1.361,37.109-5.448,9.9-15.566,16.541-30.354,19.922-14.788,3.387-30.744,3.973-47.866,1.758-17.123-2.209-31.979-7.287-44.559-15.234-12.587-7.941-19.525-18.42-20.82-31.445Z" fill="#fff" stroke="#1f140f" stroke-dasharray="15" stroke-miterlimit="10" stroke-width="30"/><path d="M1412.849,170.859c38.138-2.081,65.634-2.734,82.501-1.953,15.306,1.825,25.49,8.789,30.549,20.898,5.06,12.109,6.743,25.977,5.06,41.602-1.69,15.625-5.06,29.755-10.118,42.383-5.06,12.635-9.924,20.508-14.594,23.633-14.788,2.606-30.293,3.778-46.504,3.516-16.217-.256-36.131-1.562-59.735-3.906v71.094c16.6-.256,30.609-.128,42.028.391,11.414.525,22.31,1.825,32.689,3.906,13.486,20.312,21.337,39.062,23.544,56.25,2.201,17.188.645,31.122-4.67,41.797-5.32,10.682-12.52,16.406-21.598,17.188-21.276,0-46.183.135-74.719.391v68.359c46.438-2.344,86.394-3.125,119.86-2.344,15.822,1.043,25.685,7.488,29.576,19.336,3.892,11.854,4.146,25.391.778,40.625-3.375,15.234-8.111,28.455-14.204,39.648-6.099,11.199-11.091,16.797-14.982,16.797-12.198.262-24.518.652-36.97,1.172-29.06,1.043-58.052,1.629-86.977,1.758-28.932.135-57.012-1.496-84.253-4.883-5.709.262-11.285-6.445-16.733-20.117s-10.641-32.227-15.566-55.664c-4.932-23.438-9.212-49.805-12.842-79.102-3.637-29.297-6.421-59.571-8.367-90.821-1.945-31.25-2.724-61.584-2.335-91.016.39-29.425,2.201-55.987,5.448-79.688,3.241-23.693,8.105-42.578,14.594-56.641,6.481-14.062,15.043-21.094,25.684-21.094,37.359-.256,74.974-1.428,112.855-3.516Z" fill="#fff" stroke="#1f140f" stroke-dasharray="15" stroke-miterlimit="10" stroke-width="30"/><path d="M1887.425,252.695c-6.36,14.197-14.922,27.216-25.685,39.062-10.769,11.854-19.652,19.471-26.657,22.852-16.867-7.287-31.589-13.281-44.169-17.969-12.587-4.688-25.362-8.594-38.332-11.719-7.783-1.818-15.761-2.014-23.933-.586-8.173,1.435-13.171,4.755-14.983,9.961-1.817,7.812-.912,14.393,2.725,19.727,3.63,5.341,9.34,10.352,17.123,15.039,11.93,7.031,25.684,14.325,41.25,21.875,22.049,10.419,43.646,22.596,64.795,36.523,21.142,13.935,37.682,31.775,49.617,53.516,11.93,21.747,14.788,49.159,8.562,82.227-7.783,43.494-21.403,76.893-40.861,100.195-19.458,23.309-42.096,38.807-67.908,46.484-25.817,7.684-52.475,9.766-79.972,6.25-27.502-3.516-53.253-10.352-77.247-20.508-24-10.156-43.914-21.484-59.735-33.984-.262-6.77.389-16.211,1.945-28.32s4.214-24.475,7.979-37.109c3.758-12.629,8.883-22.912,15.371-30.859,6.482-7.941,14.526-10.871,24.128-8.789,18.418,12.762,34.635,22.852,48.645,30.273s28.603,13.152,43.78,17.188c15.177,4.041,29.119,4.102,41.834.195,12.708-3.906,22.182-14.191,28.408-30.859,5.448-16.145,4.214-29.553-3.697-40.234-7.916-10.676-19.98-19.66-36.191-26.954-16.217-7.287-33.796-14.19-52.73-20.703-21.015-7.031-40.539-14.776-58.567-23.242-18.035-8.459-31.072-19.336-39.11-32.617-13.231-19.269-19.981-43.42-20.236-72.461-.262-29.034,5.059-57.227,15.955-84.57s26.329-48.175,46.31-62.5c26.718-16.925,56.817-24.67,90.284-23.242,33.468,1.435,64.989,8.729,94.565,21.875,29.575,13.153,52.013,28.711,67.324,46.68,5.965,10.682,5.771,23.114-.584,37.305Z" fill="#fff" stroke="#1f140f" stroke-dasharray="15" stroke-miterlimit="10" stroke-width="30"/></g><g id="LUNES-2"><path d="M29.788,497.032c-3.113-53.644-4.804-104.816-5.059-153.516.255-9.112.389-20.703.389-34.766.255-24.219.517-49.279.778-75.195.255-25.909.517-44.592.778-56.055.778-11.456,6.81-19.141,18.096-23.047s25.228-5.139,41.834-3.711c16.6,1.435,33.272,4.364,50.006,8.789,16.734,4.432,30.743,9.375,42.029,14.844s17.317,10.291,18.096,14.453c-.261,23.438-1.04,54.041-2.335,91.797-1.301,35.419-2.274,71.552-2.918,108.398-.651,36.854-.523,68.945.389,96.29.906,27.344,3.308,44.666,7.199,51.953,7.783,7.557,22.182,10.742,43.196,9.57,21.015-1.172,43.975-3.711,68.881-7.617,17.379-2.6,33.596-4.688,48.645-6.25,5.704,0,11.931,6.316,18.68,18.945,6.743,12.635,11.803,27.801,15.177,45.508,3.369,17.713,2.853,33.984-1.557,48.828-4.414,14.844-14.787,24.354-31.132,28.516-49.557,13.025-118.693,19.402-207.42,19.141-21.537,0-39.372-2.668-53.509-8.008-14.144-5.334-25.362-12.109-33.662-20.312-8.306-8.203-14.399-16.34-18.291-24.414-3.892-8.068-6.877-17.834-8.95-29.297-3.113-22.912-6.227-61.193-9.34-114.844Z" fill="#fff"/><path d="M434.899,161.094c15.305-4.688,33.012-7.812,53.12-9.375,20.102-1.562,37.748-.195,52.925,4.102,15.178,4.297,22.894,12.695,23.155,25.195l-4.67,296.094c0,9.637.517,17.969,1.557,25,1.033,7.031,3.046,14.197,6.032,21.484,2.979,7.293,7.327,13.543,13.036,18.75,5.704,5.213,13.359,8.338,22.96,9.375,11.931.781,21.209-1.887,27.825-8.008,6.615-6.115,11.413-13.732,14.398-22.852,2.979-9.113,4.731-17.707,5.254-25.781.517-8.068.778-13.281.778-15.625s.645-18.225,1.945-47.657c1.296-29.425,2.725-62.5,4.281-99.219s3.502-83.331,5.837-139.844c1.034-15.1,9.146-24.347,24.322-27.734,15.178-3.381,32.622-3.125,52.342.781,19.713,3.906,36.97,9.119,51.758,15.625,14.788,6.513,22.31,11.854,22.571,16.016-.778,28.388-1.302,56.775-1.557,85.156,0,42.969-1.04,86.005-3.113,129.102-2.08,43.104-6.75,86.659-14.01,130.665-7.005,28.906-20.498,54.559-40.473,76.953-19.98,22.4-43.001,39.648-69.075,51.758-26.073,12.109-51.562,17.518-76.469,16.211-55.005-4.426-99.758-18.42-134.259-41.992-34.508-23.566-52.926-53.576-55.261-90.039-7.005-64.062-10.963-127.6-11.869-190.625-.912-63.019-.067-125.781,2.529-188.281.778-5.469,8.817-10.547,24.128-15.234Z" fill="#fff"/><path d="M853.242,639.61l-19.847-450.782c-.523-7.55,5.576-13.995,18.29-19.336,12.709-5.334,28.02-9.045,45.921-11.133,17.901-2.081,34.307-2.148,49.229-.195,14.915,1.953,24.188,6.189,27.824,12.695l49.812,139.844c3.631,7.031,6.744,14.453,9.34,22.266,3.631,12.5,8.951,23.377,15.956,32.617,7.005,9.247,18.807,13.611,35.413,13.086l-1.557-48.438-5.448-150.781c-.523-7.55,5.965-13.928,19.458-19.141,13.486-5.206,29.637-8.722,48.449-10.547,18.808-1.818,35.736-1.172,50.785,1.953,15.044,3.125,23.738,9.51,26.073,19.141,4.147,76.825,6.811,154.169,7.979,232.031,1.167,77.87-.329,156.512-4.476,235.938-.523,12.244-6.227,22.266-17.123,30.078s-24.389,12.371-40.473,13.672c-16.089,1.307-32.172-1.428-48.255-8.203-16.089-6.77-29.576-18.615-40.473-35.547l-89.506-148.828c1.034,31.25,1.946,57.422,2.725,78.516s1.489,40.76,2.141,58.984c.645,18.23,1.101,30.604,1.361,37.109-5.448,9.9-15.566,16.541-30.354,19.922-14.788,3.387-30.744,3.973-47.866,1.758-17.123-2.209-31.979-7.287-44.559-15.234-12.587-7.941-19.525-18.42-20.82-31.445Z" fill="#fff"/><path d="M1412.849,170.859c38.138-2.081,65.634-2.734,82.501-1.953,15.306,1.825,25.49,8.789,30.549,20.898,5.06,12.109,6.743,25.977,5.06,41.602-1.69,15.625-5.06,29.755-10.118,42.383-5.06,12.635-9.924,20.508-14.594,23.633-14.788,2.606-30.293,3.778-46.504,3.516-16.217-.256-36.131-1.562-59.735-3.906v71.094c16.6-.256,30.609-.128,42.028.391,11.414.525,22.31,1.825,32.689,3.906,13.486,20.312,21.337,39.062,23.544,56.25,2.201,17.188.645,31.122-4.67,41.797-5.32,10.682-12.52,16.406-21.598,17.188-21.276,0-46.183.135-74.719.391v68.359c46.438-2.344,86.394-3.125,119.86-2.344,15.822,1.043,25.685,7.488,29.576,19.336,3.892,11.854,4.146,25.391.778,40.625-3.375,15.234-8.111,28.455-14.204,39.648-6.099,11.199-11.091,16.797-14.982,16.797-12.198.262-24.518.652-36.97,1.172-29.06,1.043-58.052,1.629-86.977,1.758-28.932.135-57.012-1.496-84.253-4.883-5.709.262-11.285-6.445-16.733-20.117s-10.641-32.227-15.566-55.664c-4.932-23.438-9.212-49.805-12.842-79.102-3.637-29.297-6.421-59.571-8.367-90.821-1.945-31.25-2.724-61.584-2.335-91.016.39-29.425,2.201-55.987,5.448-79.688,3.241-23.693,8.105-42.578,14.594-56.641,6.481-14.062,15.043-21.094,25.684-21.094,37.359-.256,74.974-1.428,112.855-3.516Z" fill="#fff"/><path d="M1887.425,252.695c-6.36,14.197-14.922,27.216-25.685,39.062-10.769,11.854-19.652,19.471-26.657,22.852-16.867-7.287-31.589-13.281-44.169-17.969-12.587-4.688-25.362-8.594-38.332-11.719-7.783-1.818-15.761-2.014-23.933-.586-8.173,1.435-13.171,4.755-14.983,9.961-1.817,7.812-.912,14.393,2.725,19.727,3.63,5.341,9.34,10.352,17.123,15.039,11.93,7.031,25.684,14.325,41.25,21.875,22.049,10.419,43.646,22.596,64.795,36.523,21.142,13.935,37.682,31.775,49.617,53.516,11.93,21.747,14.788,49.159,8.562,82.227-7.783,43.494-21.403,76.893-40.861,100.195-19.458,23.309-42.096,38.807-67.908,46.484-25.817,7.684-52.475,9.766-79.972,6.25-27.502-3.516-53.253-10.352-77.247-20.508-24-10.156-43.914-21.484-59.735-33.984-.262-6.77.389-16.211,1.945-28.32s4.214-24.475,7.979-37.109c3.758-12.629,8.883-22.912,15.371-30.859,6.482-7.941,14.526-10.871,24.128-8.789,18.418,12.762,34.635,22.852,48.645,30.273s28.603,13.152,43.78,17.188c15.177,4.041,29.119,4.102,41.834.195,12.708-3.906,22.182-14.191,28.408-30.859,5.448-16.145,4.214-29.553-3.697-40.234-7.916-10.676-19.98-19.66-36.191-26.954-16.217-7.287-33.796-14.19-52.73-20.703-21.015-7.031-40.539-14.776-58.567-23.242-18.035-8.459-31.072-19.336-39.11-32.617-13.231-19.269-19.981-43.42-20.236-72.461-.262-29.034,5.059-57.227,15.955-84.57s26.329-48.175,46.31-62.5c26.718-16.925,56.817-24.67,90.284-23.242,33.468,1.435,64.989,8.729,94.565,21.875,29.575,13.153,52.013,28.711,67.324,46.68,5.965,10.682,5.771,23.114-.584,37.305Z" fill="#fff"/></g></g></svg>