<?xml version="1.0" encoding="UTF-8"?><svg id="Capa_2" xmlns="http://www.w3.org/2000/svg" viewBox="0 0 2503.866 762.032"><g id="Martes"><path d="M39.906,191.758c11.675-7.422,26.329-13.537,43.975-18.359,17.64-4.815,35.413-7.354,53.314-7.617,17.901-.256,33.079,2.674,45.532,8.789,12.453,6.122,19.068,16.346,19.847,30.664,2.852,28.125,6.093,48.114,9.729,59.961,3.63,11.854,8.755,24.677,15.372,38.477,6.615,13.807,15.11,21.094,25.489,21.875,10.118-.519,18.874-8.068,26.269-22.656,7.394-14.581,13.426-31.445,18.096-50.586s9.206-43.683,13.62-73.633c1.034-9.631,10.246-18.097,27.63-25.391,17.379-7.287,37.554-12.237,60.515-14.844,22.96-2.6,43.391-1.69,61.292,2.734,17.9,4.432,28.019,13.544,30.354,27.344,3.369,38.281,5.06,81.445,5.06,129.492s-.65,97.461-1.946,148.242c-1.817,70.838-2.079,135.809-.778,194.922-1.039,8.594-9.212,17.254-24.517,25.977-15.311,8.729-33.146,15.625-53.509,20.703-20.37,5.078-38.526,6.189-54.482,3.32-15.955-2.863-24.845-11.848-26.657-26.953l-5.059-214.454c-7.005,12.244-13.298,22.266-18.874,30.079-5.582,7.812-11.809,14.715-18.68,20.703-6.877,5.994-13.814,9.375-20.819,10.156-7.005,0-14.144-2.6-21.404-7.812-7.266-5.207-14.076-11.328-20.431-18.359-6.36-7.031-13.425-16.016-21.208-26.954l-2.724,198.829c-1.04,4.949-9.474,11.133-25.295,18.555-15.828,7.422-34.185,13.477-55.066,18.164-20.887,4.688-39.438,5.664-55.649,2.93-16.217-2.734-25.362-11.652-27.436-26.758-6.488-67.707-11.352-146.418-14.593-236.133-3.247-89.709-4.475-162.305-3.697-217.773-.523-8.331,5.059-16.211,16.733-23.633Z" fill="#fff" stroke="#1f140f" stroke-dasharray="15" stroke-miterlimit="10" stroke-width="30"/><path d="M732.604,147.031c14.266,0,26.657,1.893,37.165,5.664,10.507,3.778,17.317,9.57,20.431,17.383,16.861,44.531,33.662,93.299,50.396,146.289,16.733,52.997,33.012,106.58,48.839,160.743,15.566,51.824,30.609,100.916,45.143,147.266,1.557,4.432-2.274,10.809-11.48,19.141-9.212,8.338-21.343,16.541-36.386,24.609-15.05,8.074-30.616,14.002-46.699,17.773-16.089,3.777-30.354,3.387-42.807-1.172-12.453-4.553-20.498-15.295-24.128-32.227l-17.123-97.656c-2.079-11.975-4.348-21.809-6.811-29.492-2.469-7.678-5.643-14.387-9.534-20.117-3.892-5.725-8.562-8.723-14.01-8.984-5.709.525-10.507,3.906-14.398,10.156s-7.005,13.477-9.34,21.68-4.542,18.816-6.615,31.836l-12.843,87.891c-3.636,20.312-13.754,32.812-30.354,37.5-16.606,4.688-34.964,4.559-55.066-.391-20.108-4.943-37.23-11.652-51.368-20.117-14.144-8.459-20.692-15.82-19.652-22.07,16.345-63.02,31.911-127.863,46.698-194.532,10.118-46.094,20.559-91.339,31.327-135.742,10.763-44.396,22.243-86.523,34.44-126.367,3.892-12.5,15.238-22.198,34.052-29.102,18.807-6.896,38.849-10.217,60.124-9.961ZM727.934,306.797h-1.167c-5.71.781-10.185,4.041-13.426,9.766-3.247,5.731-5.643,12.635-7.199,20.703-1.557,8.075-2.597,16.211-3.113,24.414-.523,8.203-.651,17.773-.39,28.711l50.591-1.953c0-10.938-.329-20.44-.974-28.516-.65-8.068-1.817-16.144-3.502-24.219-1.69-8.068-4.22-14.844-7.589-20.312-3.374-5.469-7.783-8.331-13.231-8.594Z" fill="#fff" stroke="#1f140f" stroke-dasharray="15" stroke-miterlimit="10" stroke-width="30"/><path d="M1099.189,125.547c35.803.263,67.713,6.971,95.732,20.117,28.02,13.153,48.188,33.271,60.514,60.352,12.319,27.088,12.708,61.658,1.168,103.711-11.548,42.06-39.244,92.127-83.085,150.195l131.534,106.25c1.557,14.324-2.918,27.869-13.426,40.625-10.507,12.762-23.483,24.354-38.915,34.766-15.438,10.418-29.904,19.275-43.392,26.562l-117.524-96.094,22.182,123.828c-4.415,2.08-13.365,5.334-26.852,9.766-13.493,4.424-28.214,8.33-44.17,11.719-15.955,3.381-29.965,4.357-42.028,2.93-12.064-1.436-18.874-6.836-20.431-16.211-10.896-73.438-17.317-146.35-19.264-218.75-1.945-72.394-2.401-144.532-1.362-216.407.518-37.5.778-75,.778-112.5,44.364-20.831,90.54-31.115,138.54-30.859ZM1089.461,259.531c-8.823-.519-12.977,2.344-12.453,8.594l6.615,80.859c1.557,9.375,7.133,12.244,16.733,8.594,9.596-3.644,19.324-10.742,29.188-21.289,9.856-10.547,15.693-21.545,17.512-33.008.517-7.812-2.529-14.972-9.146-21.484-6.615-6.506-14.532-11.779-23.738-15.82-9.212-4.034-17.451-6.183-24.711-6.445Z" fill="#fff" stroke="#1f140f" stroke-dasharray="15" stroke-miterlimit="10" stroke-width="30"/><path d="M1327.623,266.758c-1.295-12.109-1.361-25.256-.194-39.453,1.168-14.19,3.436-31.836,6.811-52.93l428.461-16.406c9.595,2.606,15.238,10.224,16.929,22.852,1.684,12.635,1.423,26.562-.778,41.797-2.208,15.234-4.476,28.32-6.811,39.258-1.04,4.432-1.69,8.075-1.946,10.938l-117.914,3.516-21.403,367.579c-.523,4.168-6.75,8.924-18.68,14.258-11.937,5.34-25.818,9.766-41.64,13.281-15.828,3.516-29.837,4.559-42.029,3.125-12.197-1.428-18.679-6.836-19.457-16.211l-14.01-371.094-157.22,3.516c-5.448-3.906-8.822-11.914-10.118-24.023Z" fill="#fff" stroke="#1f140f" stroke-dasharray="15" stroke-miterlimit="10" stroke-width="30"/><path d="M1972.455,170.859c38.138-2.081,65.634-2.734,82.501-1.953,15.306,1.825,25.49,8.789,30.549,20.898,5.06,12.109,6.743,25.977,5.06,41.602-1.69,15.625-5.06,29.755-10.118,42.383-5.06,12.635-9.924,20.508-14.594,23.633-14.788,2.606-30.293,3.778-46.504,3.516-16.217-.256-36.131-1.562-59.735-3.906v71.094c16.6-.256,30.609-.128,42.028.391,11.414.525,22.31,1.825,32.689,3.906,13.486,20.312,21.337,39.062,23.544,56.25,2.201,17.188.645,31.122-4.67,41.797-5.32,10.682-12.52,16.406-21.598,17.188-21.276,0-46.183.135-74.719.391v68.359c46.438-2.344,86.394-3.125,119.86-2.344,15.822,1.043,25.685,7.488,29.576,19.336,3.892,11.854,4.146,25.391.778,40.625-3.375,15.234-8.111,28.455-14.204,39.648-6.099,11.199-11.091,16.797-14.982,16.797-12.198.262-24.518.652-36.97,1.172-29.06,1.043-58.052,1.629-86.977,1.758-28.932.135-57.012-1.496-84.253-4.883-5.709.262-11.285-6.445-16.733-20.117s-10.641-32.227-15.566-55.664c-4.932-23.438-9.212-49.805-12.842-79.102-3.637-29.297-6.421-59.571-8.367-90.821-1.945-31.25-2.724-61.584-2.335-91.016.39-29.425,2.201-55.987,5.448-79.688,3.241-23.693,8.105-42.578,14.594-56.641,6.481-14.062,15.043-21.094,25.684-21.094,37.359-.256,74.974-1.428,112.855-3.516Z" fill="#fff" stroke="#1f140f" stroke-dasharray="15" stroke-miterlimit="10" stroke-width="30"/><path d="M2448.978,252.695c-6.36,14.197-14.922,27.216-25.685,39.062-10.769,11.854-19.652,19.471-26.657,22.852-16.867-7.287-31.589-13.281-44.169-17.969-12.587-4.688-25.362-8.594-38.332-11.719-7.783-1.818-15.761-2.014-23.933-.586-8.173,1.435-13.171,4.755-14.983,9.961-1.817,7.812-.912,14.393,2.725,19.727,3.63,5.341,9.34,10.352,17.123,15.039,11.93,7.031,25.684,14.325,41.25,21.875,22.049,10.419,43.646,22.596,64.795,36.523,21.142,13.935,37.682,31.775,49.617,53.516,11.93,21.747,14.788,49.159,8.562,82.227-7.783,43.494-21.403,76.893-40.861,100.195-19.458,23.309-42.096,38.807-67.908,46.484-25.817,7.684-52.475,9.766-79.972,6.25-27.502-3.516-53.253-10.352-77.247-20.508-24-10.156-43.914-21.484-59.735-33.984-.262-6.77.389-16.211,1.945-28.32s4.214-24.475,7.979-37.109c3.758-12.629,8.883-22.912,15.371-30.859,6.482-7.941,14.526-10.871,24.128-8.789,18.418,12.762,34.635,22.852,48.645,30.273s28.603,13.152,43.78,17.188c15.177,4.041,29.119,4.102,41.834.195,12.708-3.906,22.182-14.191,28.408-30.859,5.448-16.145,4.214-29.553-3.697-40.234-7.916-10.676-19.98-19.66-36.191-26.954-16.217-7.287-33.796-14.19-52.73-20.703-21.015-7.031-40.539-14.776-58.567-23.242-18.035-8.459-31.072-19.336-39.11-32.617-13.231-19.269-19.981-43.42-20.236-72.461-.262-29.034,5.059-57.227,15.955-84.57s26.329-48.175,46.31-62.5c26.718-16.925,56.817-24.67,90.284-23.242,33.468,1.435,64.989,8.729,94.565,21.875,29.575,13.153,52.013,28.711,67.324,46.68,5.965,10.682,5.771,23.114-.584,37.305Z" fill="#fff" stroke="#1f140f" stroke-dasharray="15" stroke-miterlimit="10" stroke-width="30"/><path d="M39.906,191.758c11.675-7.422,26.329-13.537,43.975-18.359,17.64-4.815,35.413-7.354,53.314-7.617,17.901-.256,33.079,2.674,45.532,8.789,12.453,6.122,19.068,16.346,19.847,30.664,2.852,28.125,6.093,48.114,9.729,59.961,3.63,11.854,8.755,24.677,15.372,38.477,6.615,13.807,15.11,21.094,25.489,21.875,10.118-.519,18.874-8.068,26.269-22.656,7.394-14.581,13.426-31.445,18.096-50.586s9.206-43.683,13.62-73.633c1.034-9.631,10.246-18.097,27.63-25.391,17.379-7.287,37.554-12.237,60.515-14.844,22.96-2.6,43.391-1.69,61.292,2.734,17.9,4.432,28.019,13.544,30.354,27.344,3.369,38.281,5.06,81.445,5.06,129.492s-.65,97.461-1.946,148.242c-1.817,70.838-2.079,135.809-.778,194.922-1.039,8.594-9.212,17.254-24.517,25.977-15.311,8.729-33.146,15.625-53.509,20.703-20.37,5.078-38.526,6.189-54.482,3.32-15.955-2.863-24.845-11.848-26.657-26.953l-5.059-214.454c-7.005,12.244-13.298,22.266-18.874,30.079-5.582,7.812-11.809,14.715-18.68,20.703-6.877,5.994-13.814,9.375-20.819,10.156-7.005,0-14.144-2.6-21.404-7.812-7.266-5.207-14.076-11.328-20.431-18.359-6.36-7.031-13.425-16.016-21.208-26.954l-2.724,198.829c-1.04,4.949-9.474,11.133-25.295,18.555-15.828,7.422-34.185,13.477-55.066,18.164-20.887,4.688-39.438,5.664-55.649,2.93-16.217-2.734-25.362-11.652-27.436-26.758-6.488-67.707-11.352-146.418-14.593-236.133-3.247-89.709-4.475-162.305-3.697-217.773-.523-8.331,5.059-16.211,16.733-23.633Z" fill="#fff"/><path d="M732.604,147.031c14.266,0,26.657,1.893,37.165,5.664,10.507,3.778,17.317,9.57,20.431,17.383,16.861,44.531,33.662,93.299,50.396,146.289,16.733,52.997,33.012,106.58,48.839,160.743,15.566,51.824,30.609,100.916,45.143,147.266,1.557,4.432-2.274,10.809-11.48,19.141-9.212,8.338-21.343,16.541-36.386,24.609-15.05,8.074-30.616,14.002-46.699,17.773-16.089,3.777-30.354,3.387-42.807-1.172-12.453-4.553-20.498-15.295-24.128-32.227l-17.123-97.656c-2.079-11.975-4.348-21.809-6.811-29.492-2.469-7.678-5.643-14.387-9.534-20.117-3.892-5.725-8.562-8.723-14.01-8.984-5.709.525-10.507,3.906-14.398,10.156s-7.005,13.477-9.34,21.68-4.542,18.816-6.615,31.836l-12.843,87.891c-3.636,20.312-13.754,32.812-30.354,37.5-16.606,4.688-34.964,4.559-55.066-.391-20.108-4.943-37.23-11.652-51.368-20.117-14.144-8.459-20.692-15.82-19.652-22.07,16.345-63.02,31.911-127.863,46.698-194.532,10.118-46.094,20.559-91.339,31.327-135.742,10.763-44.396,22.243-86.523,34.44-126.367,3.892-12.5,15.238-22.198,34.052-29.102,18.807-6.896,38.849-10.217,60.124-9.961ZM727.934,306.797h-1.167c-5.71.781-10.185,4.041-13.426,9.766-3.247,5.731-5.643,12.635-7.199,20.703-1.557,8.075-2.597,16.211-3.113,24.414-.523,8.203-.651,17.773-.39,28.711l50.591-1.953c0-10.938-.329-20.44-.974-28.516-.65-8.068-1.817-16.144-3.502-24.219-1.69-8.068-4.22-14.844-7.589-20.312-3.374-5.469-7.783-8.331-13.231-8.594Z" fill="#fff"/><path d="M1099.189,125.547c35.803.263,67.713,6.971,95.732,20.117,28.02,13.153,48.188,33.271,60.514,60.352,12.319,27.088,12.708,61.658,1.168,103.711-11.548,42.06-39.244,92.127-83.085,150.195l131.534,106.25c1.557,14.324-2.918,27.869-13.426,40.625-10.507,12.762-23.483,24.354-38.915,34.766-15.438,10.418-29.904,19.275-43.392,26.562l-117.524-96.094,22.182,123.828c-4.415,2.08-13.365,5.334-26.852,9.766-13.493,4.424-28.214,8.33-44.17,11.719-15.955,3.381-29.965,4.357-42.028,2.93-12.064-1.436-18.874-6.836-20.431-16.211-10.896-73.438-17.317-146.35-19.264-218.75-1.945-72.394-2.401-144.532-1.362-216.407.518-37.5.778-75,.778-112.5,44.364-20.831,90.54-31.115,138.54-30.859ZM1089.461,259.531c-8.823-.519-12.977,2.344-12.453,8.594l6.615,80.859c1.557,9.375,7.133,12.244,16.733,8.594,9.596-3.644,19.324-10.742,29.188-21.289,9.856-10.547,15.693-21.545,17.512-33.008.517-7.812-2.529-14.972-9.146-21.484-6.615-6.506-14.532-11.779-23.738-15.82-9.212-4.034-17.451-6.183-24.711-6.445Z" fill="#fff"/><path d="M1327.623,266.758c-1.295-12.109-1.361-25.256-.194-39.453,1.168-14.19,3.436-31.836,6.811-52.93l428.461-16.406c9.595,2.606,15.238,10.224,16.929,22.852,1.684,12.635,1.423,26.562-.778,41.797-2.208,15.234-4.476,28.32-6.811,39.258-1.04,4.432-1.69,8.075-1.946,10.938l-117.914,3.516-21.403,367.579c-.523,4.168-6.75,8.924-18.68,14.258-11.937,5.34-25.818,9.766-41.64,13.281-15.828,3.516-29.837,4.559-42.029,3.125-12.197-1.428-18.679-6.836-19.457-16.211l-14.01-371.094-157.22,3.516c-5.448-3.906-8.822-11.914-10.118-24.023Z" fill="#fff"/><path d="M1972.455,170.859c38.138-2.081,65.634-2.734,82.501-1.953,15.306,1.825,25.49,8.789,30.549,20.898,5.06,12.109,6.743,25.977,5.06,41.602-1.69,15.625-5.06,29.755-10.118,42.383-5.06,12.635-9.924,20.508-14.594,23.633-14.788,2.606-30.293,3.778-46.504,3.516-16.217-.256-36.131-1.562-59.735-3.906v71.094c16.6-.256,30.609-.128,42.028.391,11.414.525,22.31,1.825,32.689,3.906,13.486,20.312,21.337,39.062,23.544,56.25,2.201,17.188.645,31.122-4.67,41.797-5.32,10.682-12.52,16.406-21.598,17.188-21.276,0-46.183.135-74.719.391v68.359c46.438-2.344,86.394-3.125,119.86-2.344,15.822,1.043,25.685,7.488,29.576,19.336,3.892,11.854,4.146,25.391.778,40.625-3.375,15.234-8.111,28.455-14.204,39.648-6.099,11.199-11.091,16.797-14.982,16.797-12.198.262-24.518.652-36.97,1.172-29.06,1.043-58.052,1.629-86.977,1.758-28.932.135-57.012-1.496-84.253-4.883-5.709.262-11.285-6.445-16.733-20.117s-10.641-32.227-15.566-55.664c-4.932-23.438-9.212-49.805-12.842-79.102-3.637-29.297-6.421-59.571-8.367-90.821-1.945-31.25-2.724-61.584-2.335-91.016.39-29.425,2.201-55.987,5.448-79.688,3.241-23.693,8.105-42.578,14.594-56.641,6.481-14.062,15.043-21.094,25.684-21.094,37.359-.256,74.974-1.428,112.855-3.516Z" fill="#fff"/><path d="M2448.978,252.695c-6.36,14.197-14.922,27.216-25.685,39.062-10.769,11.854-19.652,19.471-26.657,22.852-16.867-7.287-31.589-13.281-44.169-17.969-12.587-4.688-25.362-8.594-38.332-11.719-7.783-1.818-15.761-2.014-23.933-.586-8.173,1.435-13.171,4.755-14.983,9.961-1.817,7.812-.912,14.393,2.725,19.727,3.63,5.341,9.34,10.352,17.123,15.039,11.93,7.031,25.684,14.325,41.25,21.875,22.049,10.419,43.646,22.596,64.795,36.523,21.142,13.935,37.682,31.775,49.617,53.516,11.93,21.747,14.788,49.159,8.562,82.227-7.783,43.494-21.403,76.893-40.861,100.195-19.458,23.309-42.096,38.807-67.908,46.484-25.817,7.684-52.475,9.766-79.972,6.25-27.502-3.516-53.253-10.352-77.247-20.508-24-10.156-43.914-21.484-59.735-33.984-.262-6.77.389-16.211,1.945-28.32s4.214-24.475,7.979-37.109c3.758-12.629,8.883-22.912,15.371-30.859,6.482-7.941,14.526-10.871,24.128-8.789,18.418,12.762,34.635,22.852,48.645,30.273s28.603,13.152,43.78,17.188c15.177,4.041,29.119,4.102,41.834.195,12.708-3.906,22.182-14.191,28.408-30.859,5.448-16.145,4.214-29.553-3.697-40.234-7.916-10.676-19.98-19.66-36.191-26.954-16.217-7.287-33.796-14.19-52.73-20.703-21.015-7.031-40.539-14.776-58.567-23.242-18.035-8.459-31.072-19.336-39.11-32.617-13.231-19.269-19.981-43.42-20.236-72.461-.262-29.034,5.059-57.227,15.955-84.57s26.329-48.175,46.31-62.5c26.718-16.925,56.817-24.67,90.284-23.242,33.468,1.435,64.989,8.729,94.565,21.875,29.575,13.153,52.013,28.711,67.324,46.68,5.965,10.682,5.771,23.114-.584,37.305Z" fill="#fff"/></g></svg>