<?xml version="1.0" encoding="UTF-8"?><svg id="Capa_2" xmlns="http://www.w3.org/2000/svg" viewBox="0 0 3397.369 762.032"><g id="Miercoles"><path d="M39.906,191.758c11.675-7.422,26.329-13.537,43.975-18.359,17.64-4.815,35.413-7.354,53.314-7.617,17.901-.256,33.079,2.674,45.532,8.789,12.453,6.122,19.068,16.346,19.847,30.664,2.852,28.125,6.093,48.114,9.729,59.961,3.63,11.854,8.755,24.677,15.372,38.477,6.615,13.807,15.11,21.094,25.489,21.875,10.118-.519,18.874-8.068,26.269-22.656,7.394-14.581,13.426-31.445,18.096-50.586s9.206-43.683,13.62-73.633c1.034-9.631,10.246-18.097,27.63-25.391,17.379-7.287,37.554-12.237,60.515-14.844,22.96-2.6,43.391-1.69,61.292,2.734,17.9,4.432,28.019,13.544,30.354,27.344,3.369,38.281,5.06,81.445,5.06,129.492s-.65,97.461-1.946,148.242c-1.817,70.838-2.079,135.809-.778,194.922-1.039,8.594-9.212,17.254-24.517,25.977-15.311,8.729-33.146,15.625-53.509,20.703-20.37,5.078-38.526,6.189-54.482,3.32-15.955-2.863-24.845-11.848-26.657-26.953l-5.059-214.454c-7.005,12.244-13.298,22.266-18.874,30.079-5.582,7.812-11.809,14.715-18.68,20.703-6.877,5.994-13.814,9.375-20.819,10.156-7.005,0-14.144-2.6-21.404-7.812-7.266-5.207-14.076-11.328-20.431-18.359-6.36-7.031-13.425-16.016-21.208-26.954l-2.724,198.829c-1.04,4.949-9.474,11.133-25.295,18.555-15.828,7.422-34.185,13.477-55.066,18.164-20.887,4.688-39.438,5.664-55.649,2.93-16.217-2.734-25.362-11.652-27.436-26.758-6.488-67.707-11.352-146.418-14.593-236.133-3.247-89.709-4.475-162.305-3.697-217.773-.523-8.331,5.059-16.211,16.733-23.633Z" fill="#fff" stroke="#1f140f" stroke-dasharray="15" stroke-miterlimit="10" stroke-width="30"/><path d="M556.316,196.836c16.6-10.284,35.541-15.948,56.816-16.992,21.27-1.037,39.821,3.26,55.649,12.891,15.821,9.638,23.866,25.525,24.128,47.656l1.945,100.781v24.219c-.262,23.438-.194,48.768.194,75.977.39,27.215,1.752,53.711,4.087,79.493l4.67,81.641c.255,11.199-6.422,21.289-20.042,30.273s-29.965,14.648-49.033,16.992c-19.069,2.344-36.581-.977-52.536-9.961-15.956-8.984-26.141-25.842-30.549-50.586-8.823-60.156-15.372-119.465-19.652-177.93-4.281-58.459-5.388-115.948-3.309-172.461,1.812-17.706,11.024-31.701,27.631-41.992Z" fill="#fff" stroke="#1f140f" stroke-dasharray="15" stroke-miterlimit="10" stroke-width="30"/><path d="M885.542,170.859c38.138-2.081,65.634-2.734,82.501-1.953,15.306,1.825,25.49,8.789,30.549,20.898,5.06,12.109,6.743,25.977,5.06,41.602-1.69,15.625-5.06,29.755-10.118,42.383-5.06,12.635-9.924,20.508-14.594,23.633-14.788,2.606-30.293,3.778-46.504,3.516-16.217-.256-36.131-1.562-59.735-3.906v71.094c16.6-.256,30.609-.128,42.028.391,11.414.525,22.31,1.825,32.689,3.906,13.486,20.312,21.337,39.062,23.544,56.25,2.201,17.188.645,31.122-4.67,41.797-5.32,10.682-12.52,16.406-21.598,17.188-21.276,0-46.183.135-74.719.391v68.359c46.438-2.344,86.394-3.125,119.86-2.344,15.822,1.043,25.685,7.488,29.576,19.336,3.892,11.854,4.146,25.391.778,40.625-3.375,15.234-8.111,28.455-14.204,39.648-6.099,11.199-11.091,16.797-14.982,16.797-12.198.262-24.518.652-36.97,1.172-29.06,1.043-58.052,1.629-86.977,1.758-28.932.135-57.012-1.496-84.253-4.883-5.709.262-11.285-6.445-16.733-20.117s-10.641-32.227-15.566-55.664c-4.932-23.438-9.212-49.805-12.842-79.102-3.637-29.297-6.421-59.571-8.367-90.821-1.945-31.25-2.724-61.584-2.335-91.016.39-29.425,2.201-55.987,5.448-79.688,3.241-23.693,8.105-42.578,14.594-56.641,6.481-14.062,15.043-21.094,25.684-21.094,37.359-.256,74.974-1.428,112.855-3.516Z" fill="#fff" stroke="#1f140f" stroke-dasharray="15" stroke-miterlimit="10" stroke-width="30"/><path d="M1180.912,125.547c35.803.263,67.713,6.971,95.732,20.117,28.02,13.153,48.188,33.271,60.514,60.352,12.319,27.088,12.708,61.658,1.168,103.711-11.548,42.06-39.244,92.127-83.085,150.195l131.534,106.25c1.557,14.324-2.918,27.869-13.426,40.625-10.507,12.762-23.483,24.354-38.915,34.766-15.438,10.418-29.904,19.275-43.392,26.562l-117.524-96.094,22.182,123.828c-4.415,2.08-13.365,5.334-26.852,9.766-13.493,4.424-28.214,8.33-44.17,11.719-15.955,3.381-29.965,4.357-42.028,2.93-12.064-1.436-18.874-6.836-20.431-16.211-10.896-73.438-17.317-146.35-19.264-218.75-1.945-72.394-2.401-144.532-1.362-216.407.518-37.5.778-75,.778-112.5,44.364-20.831,90.54-31.115,138.54-30.859ZM1171.184,259.531c-8.823-.519-12.977,2.344-12.453,8.594l6.615,80.859c1.557,9.375,7.133,12.244,16.733,8.594,9.596-3.644,19.324-10.742,29.188-21.289,9.856-10.547,15.693-21.545,17.512-33.008.517-7.812-2.529-14.972-9.146-21.484-6.615-6.506-14.532-11.779-23.738-15.82-9.212-4.034-17.451-6.183-24.711-6.445Z" fill="#fff" stroke="#1f140f" stroke-dasharray="15" stroke-miterlimit="10" stroke-width="30"/><path d="M1632.723,177.109c28.798-1.3,57.206-.977,85.226.977,28.019,1.953,52.469,7.166,73.355,15.625,20.881,8.466,35.219,21.619,43.002,39.453,7.783,17.841,5.965,41.864-5.448,72.07-10.379,13.807-20.887,21.875-31.521,24.219-10.641,2.344-21.276,1.172-31.911-3.516-10.641-4.688-21.275-10.803-31.91-18.359-29.838-13.8-55.589-17.706-77.248-11.719-21.665,5.994-40.083,20.38-55.26,43.164-15.178,22.791-27.569,52.283-37.165,88.477-3.113,18.494-1.751,37.305,4.087,56.446,5.837,19.141,14.653,34.832,26.462,47.07,11.803,12.244,25.229,17.322,40.278,15.234,15.043-2.082,30.354-14.973,45.92-38.672,7.261-13.537,16.473-21.936,27.63-25.195,11.152-3.254,23.41-3.381,36.775-.391,13.359,2.996,27.174,7.098,41.445,12.305,14.01,5.213,23.088,12.891,27.241,23.047,4.146,10.156,5.253,20.184,3.308,30.078-1.945,9.9-4.998,17.059-9.146,21.484-1.301,2.088-2.596,4.297-3.892,6.641-10.641,19.531-23.094,37.371-37.358,53.516-14.271,16.15-34.246,27.344-59.931,33.594-25.684,6.25-60.97,4.297-105.85-5.859-47.478-13.281-84.253-32.031-110.326-56.25s-44.042-50.646-53.898-79.297c-9.862-28.645-14.398-56.25-13.62-82.813,10.373-55.987,23.994-100.714,40.861-134.18,16.861-33.459,34.957-58.722,54.287-75.781,19.324-17.053,37.876-28.839,55.649-35.352,17.768-6.506,32.622-10.675,44.559-12.5,5.965-1.3,10.763-2.472,14.398-3.516Z" fill="#fff" stroke="#1f140f" stroke-dasharray="15" stroke-miterlimit="10" stroke-width="30"/><path d="M2082.976,197.422c11.152.263,22.571,1.307,34.246,3.125,37.614,4.95,68.747,16.932,93.397,35.938,24.645,19.013,43.196,42.188,55.649,69.531s19.068,55.994,19.847,85.938c.778,29.95-3.764,58.203-13.62,84.766-4.67,10.938-13.231,24.939-25.685,41.992-12.453,17.059-28.67,34.57-48.645,52.539-19.98,17.969-43.585,33.729-70.826,47.266-27.241,13.543-57.856,22.4-91.841,26.562-32.434,5.994-62.398,3.582-89.896-7.227-27.502-10.803-50.462-31.701-68.88-62.695-18.425-30.988-30.488-73.828-36.192-128.516-.778-42.188,9.662-82.227,31.327-120.117,21.659-37.891,50.979-68.811,87.949-92.773,36.971-23.956,78.026-36.065,123.168-36.328ZM2127.729,350.938c-12.714-.519-30.487,7.422-53.314,23.828-35.802,32.812-59.674,60.352-71.604,82.617-11.936,22.266-13.882,37.5-5.837,45.704,8.038,8.203,23.866,7.557,47.477-1.953,23.605-9.504,53.053-29.621,88.339-60.352,9.595-12.756,16.017-25.977,19.263-39.648,3.241-13.672,2.919-25.323-.973-34.961-3.892-9.631-11.675-14.709-23.35-15.234Z" fill="#fff" stroke="#1f140f" stroke-dasharray="15" stroke-miterlimit="10" stroke-width="30"/><path d="M2319.583,497.032c-3.113-53.644-4.804-104.816-5.06-153.516.256-9.112.39-20.703.39-34.766.255-24.219.517-49.279.778-75.195.255-25.909.517-44.592.778-56.055.778-11.456,6.811-19.141,18.096-23.047s25.229-5.139,41.834-3.711c16.601,1.435,33.273,4.364,50.007,8.789,16.733,4.432,30.743,9.375,42.029,14.844,11.285,5.469,17.317,10.291,18.096,14.453-.262,23.438-1.04,54.041-2.335,91.797-1.302,35.419-2.274,71.552-2.919,108.398-.65,36.854-.523,68.945.389,96.29.906,27.344,3.309,44.666,7.2,51.953,7.783,7.557,22.182,10.742,43.196,9.57,21.014-1.172,43.975-3.711,68.88-7.617,17.379-2.6,33.596-4.688,48.645-6.25,5.704,0,11.931,6.316,18.68,18.945,6.743,12.635,11.803,27.801,15.178,45.508,3.368,17.713,2.852,33.984-1.557,48.828-4.415,14.844-14.788,24.354-31.133,28.516-49.557,13.025-118.692,19.402-207.42,19.141-21.538,0-39.372-2.668-53.51-8.008-14.143-5.334-25.361-12.109-33.662-20.312-8.306-8.203-14.398-16.34-18.29-24.414-3.892-8.068-6.877-17.834-8.95-29.297-3.113-22.912-6.227-61.193-9.34-114.844Z" fill="#fff" stroke="#1f140f" stroke-dasharray="15" stroke-miterlimit="10" stroke-width="30"/><path d="M2865.958,170.859c38.138-2.081,65.634-2.734,82.501-1.953,15.306,1.825,25.49,8.789,30.549,20.898,5.06,12.109,6.743,25.977,5.06,41.602-1.69,15.625-5.06,29.755-10.118,42.383-5.06,12.635-9.924,20.508-14.594,23.633-14.788,2.606-30.293,3.778-46.504,3.516-16.217-.256-36.131-1.562-59.735-3.906v71.094c16.6-.256,30.609-.128,42.028.391,11.414.525,22.31,1.825,32.689,3.906,13.486,20.312,21.337,39.062,23.544,56.25,2.201,17.188.645,31.122-4.67,41.797-5.32,10.682-12.52,16.406-21.598,17.188-21.276,0-46.183.135-74.719.391v68.359c46.438-2.344,86.394-3.125,119.86-2.344,15.822,1.043,25.685,7.488,29.576,19.336,3.892,11.854,4.146,25.391.778,40.625-3.375,15.234-8.111,28.455-14.204,39.648-6.099,11.199-11.091,16.797-14.982,16.797-12.198.262-24.518.652-36.97,1.172-29.06,1.043-58.052,1.629-86.977,1.758-28.932.135-57.012-1.496-84.253-4.883-5.709.262-11.285-6.445-16.733-20.117s-10.641-32.227-15.566-55.664c-4.932-23.438-9.212-49.805-12.842-79.102-3.637-29.297-6.421-59.571-8.367-90.821-1.945-31.25-2.724-61.584-2.335-91.016.39-29.425,2.201-55.987,5.448-79.688,3.241-23.693,8.105-42.578,14.594-56.641,6.481-14.062,15.043-21.094,25.684-21.094,37.359-.256,74.974-1.428,112.855-3.516Z" fill="#fff" stroke="#1f140f" stroke-dasharray="15" stroke-miterlimit="10" stroke-width="30"/><path d="M3342.48,252.695c-6.36,14.197-14.922,27.216-25.685,39.062-10.769,11.854-19.652,19.471-26.657,22.852-16.867-7.287-31.589-13.281-44.169-17.969-12.587-4.688-25.362-8.594-38.332-11.719-7.783-1.818-15.761-2.014-23.933-.586-8.173,1.435-13.171,4.755-14.983,9.961-1.817,7.812-.912,14.393,2.725,19.727,3.63,5.341,9.34,10.352,17.123,15.039,11.93,7.031,25.684,14.325,41.25,21.875,22.049,10.419,43.646,22.596,64.795,36.523,21.142,13.935,37.682,31.775,49.617,53.516,11.93,21.747,14.788,49.159,8.562,82.227-7.783,43.494-21.403,76.893-40.861,100.195-19.458,23.309-42.096,38.807-67.908,46.484-25.817,7.684-52.475,9.766-79.972,6.25-27.502-3.516-53.253-10.352-77.247-20.508-24-10.156-43.914-21.484-59.735-33.984-.262-6.77.389-16.211,1.945-28.32s4.214-24.475,7.979-37.109c3.758-12.629,8.883-22.912,15.371-30.859,6.482-7.941,14.526-10.871,24.128-8.789,18.418,12.762,34.635,22.852,48.645,30.273s28.603,13.152,43.78,17.188c15.177,4.041,29.119,4.102,41.834.195,12.708-3.906,22.182-14.191,28.408-30.859,5.448-16.145,4.214-29.553-3.697-40.234-7.916-10.676-19.98-19.66-36.191-26.954-16.217-7.287-33.796-14.19-52.73-20.703-21.015-7.031-40.539-14.776-58.567-23.242-18.035-8.459-31.072-19.336-39.11-32.617-13.231-19.269-19.981-43.42-20.236-72.461-.262-29.034,5.059-57.227,15.955-84.57s26.329-48.175,46.31-62.5c26.718-16.925,56.817-24.67,90.284-23.242,33.468,1.435,64.989,8.729,94.565,21.875,29.575,13.153,52.013,28.711,67.324,46.68,5.965,10.682,5.771,23.114-.584,37.305Z" fill="#fff" stroke="#1f140f" stroke-dasharray="15" stroke-miterlimit="10" stroke-width="30"/><path d="M39.906,191.758c11.675-7.422,26.329-13.537,43.975-18.359,17.64-4.815,35.413-7.354,53.314-7.617,17.901-.256,33.079,2.674,45.532,8.789,12.453,6.122,19.068,16.346,19.847,30.664,2.852,28.125,6.093,48.114,9.729,59.961,3.63,11.854,8.755,24.677,15.372,38.477,6.615,13.807,15.11,21.094,25.489,21.875,10.118-.519,18.874-8.068,26.269-22.656,7.394-14.581,13.426-31.445,18.096-50.586s9.206-43.683,13.62-73.633c1.034-9.631,10.246-18.097,27.63-25.391,17.379-7.287,37.554-12.237,60.515-14.844,22.96-2.6,43.391-1.69,61.292,2.734,17.9,4.432,28.019,13.544,30.354,27.344,3.369,38.281,5.06,81.445,5.06,129.492s-.65,97.461-1.946,148.242c-1.817,70.838-2.079,135.809-.778,194.922-1.039,8.594-9.212,17.254-24.517,25.977-15.311,8.729-33.146,15.625-53.509,20.703-20.37,5.078-38.526,6.189-54.482,3.32-15.955-2.863-24.845-11.848-26.657-26.953l-5.059-214.454c-7.005,12.244-13.298,22.266-18.874,30.079-5.582,7.812-11.809,14.715-18.68,20.703-6.877,5.994-13.814,9.375-20.819,10.156-7.005,0-14.144-2.6-21.404-7.812-7.266-5.207-14.076-11.328-20.431-18.359-6.36-7.031-13.425-16.016-21.208-26.954l-2.724,198.829c-1.04,4.949-9.474,11.133-25.295,18.555-15.828,7.422-34.185,13.477-55.066,18.164-20.887,4.688-39.438,5.664-55.649,2.93-16.217-2.734-25.362-11.652-27.436-26.758-6.488-67.707-11.352-146.418-14.593-236.133-3.247-89.709-4.475-162.305-3.697-217.773-.523-8.331,5.059-16.211,16.733-23.633Z" fill="#fff"/><path d="M556.316,196.836c16.6-10.284,35.541-15.948,56.816-16.992,21.27-1.037,39.821,3.26,55.649,12.891,15.821,9.638,23.866,25.525,24.128,47.656l1.945,100.781v24.219c-.262,23.438-.194,48.768.194,75.977.39,27.215,1.752,53.711,4.087,79.493l4.67,81.641c.255,11.199-6.422,21.289-20.042,30.273s-29.965,14.648-49.033,16.992c-19.069,2.344-36.581-.977-52.536-9.961-15.956-8.984-26.141-25.842-30.549-50.586-8.823-60.156-15.372-119.465-19.652-177.93-4.281-58.459-5.388-115.948-3.309-172.461,1.812-17.706,11.024-31.701,27.631-41.992Z" fill="#fff"/><path d="M885.542,170.859c38.138-2.081,65.634-2.734,82.501-1.953,15.306,1.825,25.49,8.789,30.549,20.898,5.06,12.109,6.743,25.977,5.06,41.602-1.69,15.625-5.06,29.755-10.118,42.383-5.06,12.635-9.924,20.508-14.594,23.633-14.788,2.606-30.293,3.778-46.504,3.516-16.217-.256-36.131-1.562-59.735-3.906v71.094c16.6-.256,30.609-.128,42.028.391,11.414.525,22.31,1.825,32.689,3.906,13.486,20.312,21.337,39.062,23.544,56.25,2.201,17.188.645,31.122-4.67,41.797-5.32,10.682-12.52,16.406-21.598,17.188-21.276,0-46.183.135-74.719.391v68.359c46.438-2.344,86.394-3.125,119.86-2.344,15.822,1.043,25.685,7.488,29.576,19.336,3.892,11.854,4.146,25.391.778,40.625-3.375,15.234-8.111,28.455-14.204,39.648-6.099,11.199-11.091,16.797-14.982,16.797-12.198.262-24.518.652-36.97,1.172-29.06,1.043-58.052,1.629-86.977,1.758-28.932.135-57.012-1.496-84.253-4.883-5.709.262-11.285-6.445-16.733-20.117s-10.641-32.227-15.566-55.664c-4.932-23.438-9.212-49.805-12.842-79.102-3.637-29.297-6.421-59.571-8.367-90.821-1.945-31.25-2.724-61.584-2.335-91.016.39-29.425,2.201-55.987,5.448-79.688,3.241-23.693,8.105-42.578,14.594-56.641,6.481-14.062,15.043-21.094,25.684-21.094,37.359-.256,74.974-1.428,112.855-3.516Z" fill="#fff"/><path d="M1180.912,125.547c35.803.263,67.713,6.971,95.732,20.117,28.02,13.153,48.188,33.271,60.514,60.352,12.319,27.088,12.708,61.658,1.168,103.711-11.548,42.06-39.244,92.127-83.085,150.195l131.534,106.25c1.557,14.324-2.918,27.869-13.426,40.625-10.507,12.762-23.483,24.354-38.915,34.766-15.438,10.418-29.904,19.275-43.392,26.562l-117.524-96.094,22.182,123.828c-4.415,2.08-13.365,5.334-26.852,9.766-13.493,4.424-28.214,8.33-44.17,11.719-15.955,3.381-29.965,4.357-42.028,2.93-12.064-1.436-18.874-6.836-20.431-16.211-10.896-73.438-17.317-146.35-19.264-218.75-1.945-72.394-2.401-144.532-1.362-216.407.518-37.5.778-75,.778-112.5,44.364-20.831,90.54-31.115,138.54-30.859ZM1171.184,259.531c-8.823-.519-12.977,2.344-12.453,8.594l6.615,80.859c1.557,9.375,7.133,12.244,16.733,8.594,9.596-3.644,19.324-10.742,29.188-21.289,9.856-10.547,15.693-21.545,17.512-33.008.517-7.812-2.529-14.972-9.146-21.484-6.615-6.506-14.532-11.779-23.738-15.82-9.212-4.034-17.451-6.183-24.711-6.445Z" fill="#fff"/><path d="M1632.723,177.109c28.798-1.3,57.206-.977,85.226.977,28.019,1.953,52.469,7.166,73.355,15.625,20.881,8.466,35.219,21.619,43.002,39.453,7.783,17.841,5.965,41.864-5.448,72.07-10.379,13.807-20.887,21.875-31.521,24.219-10.641,2.344-21.276,1.172-31.911-3.516-10.641-4.688-21.275-10.803-31.91-18.359-29.838-13.8-55.589-17.706-77.248-11.719-21.665,5.994-40.083,20.38-55.26,43.164-15.178,22.791-27.569,52.283-37.165,88.477-3.113,18.494-1.751,37.305,4.087,56.446,5.837,19.141,14.653,34.832,26.462,47.07,11.803,12.244,25.229,17.322,40.278,15.234,15.043-2.082,30.354-14.973,45.92-38.672,7.261-13.537,16.473-21.936,27.63-25.195,11.152-3.254,23.41-3.381,36.775-.391,13.359,2.996,27.174,7.098,41.445,12.305,14.01,5.213,23.088,12.891,27.241,23.047,4.146,10.156,5.253,20.184,3.308,30.078-1.945,9.9-4.998,17.059-9.146,21.484-1.301,2.088-2.596,4.297-3.892,6.641-10.641,19.531-23.094,37.371-37.358,53.516-14.271,16.15-34.246,27.344-59.931,33.594-25.684,6.25-60.97,4.297-105.85-5.859-47.478-13.281-84.253-32.031-110.326-56.25s-44.042-50.646-53.898-79.297c-9.862-28.645-14.398-56.25-13.62-82.813,10.373-55.987,23.994-100.714,40.861-134.18,16.861-33.459,34.957-58.722,54.287-75.781,19.324-17.053,37.876-28.839,55.649-35.352,17.768-6.506,32.622-10.675,44.559-12.5,5.965-1.3,10.763-2.472,14.398-3.516Z" fill="#fff"/><path d="M2082.976,197.422c11.152.263,22.571,1.307,34.246,3.125,37.614,4.95,68.747,16.932,93.397,35.938,24.645,19.013,43.196,42.188,55.649,69.531s19.068,55.994,19.847,85.938c.778,29.95-3.764,58.203-13.62,84.766-4.67,10.938-13.231,24.939-25.685,41.992-12.453,17.059-28.67,34.57-48.645,52.539-19.98,17.969-43.585,33.729-70.826,47.266-27.241,13.543-57.856,22.4-91.841,26.562-32.434,5.994-62.398,3.582-89.896-7.227-27.502-10.803-50.462-31.701-68.88-62.695-18.425-30.988-30.488-73.828-36.192-128.516-.778-42.188,9.662-82.227,31.327-120.117,21.659-37.891,50.979-68.811,87.949-92.773,36.971-23.956,78.026-36.065,123.168-36.328ZM2127.729,350.938c-12.714-.519-30.487,7.422-53.314,23.828-35.802,32.812-59.674,60.352-71.604,82.617-11.936,22.266-13.882,37.5-5.837,45.704,8.038,8.203,23.866,7.557,47.477-1.953,23.605-9.504,53.053-29.621,88.339-60.352,9.595-12.756,16.017-25.977,19.263-39.648,3.241-13.672,2.919-25.323-.973-34.961-3.892-9.631-11.675-14.709-23.35-15.234Z" fill="#fff"/><path d="M2319.583,497.032c-3.113-53.644-4.804-104.816-5.06-153.516.256-9.112.39-20.703.39-34.766.255-24.219.517-49.279.778-75.195.255-25.909.517-44.592.778-56.055.778-11.456,6.811-19.141,18.096-23.047s25.229-5.139,41.834-3.711c16.601,1.435,33.273,4.364,50.007,8.789,16.733,4.432,30.743,9.375,42.029,14.844,11.285,5.469,17.317,10.291,18.096,14.453-.262,23.438-1.04,54.041-2.335,91.797-1.302,35.419-2.274,71.552-2.919,108.398-.65,36.854-.523,68.945.389,96.29.906,27.344,3.309,44.666,7.2,51.953,7.783,7.557,22.182,10.742,43.196,9.57,21.014-1.172,43.975-3.711,68.88-7.617,17.379-2.6,33.596-4.688,48.645-6.25,5.704,0,11.931,6.316,18.68,18.945,6.743,12.635,11.803,27.801,15.178,45.508,3.368,17.713,2.852,33.984-1.557,48.828-4.415,14.844-14.788,24.354-31.133,28.516-49.557,13.025-118.692,19.402-207.42,19.141-21.538,0-39.372-2.668-53.51-8.008-14.143-5.334-25.361-12.109-33.662-20.312-8.306-8.203-14.398-16.34-18.29-24.414-3.892-8.068-6.877-17.834-8.95-29.297-3.113-22.912-6.227-61.193-9.34-114.844Z" fill="#fff"/><path d="M2865.958,170.859c38.138-2.081,65.634-2.734,82.501-1.953,15.306,1.825,25.49,8.789,30.549,20.898,5.06,12.109,6.743,25.977,5.06,41.602-1.69,15.625-5.06,29.755-10.118,42.383-5.06,12.635-9.924,20.508-14.594,23.633-14.788,2.606-30.293,3.778-46.504,3.516-16.217-.256-36.131-1.562-59.735-3.906v71.094c16.6-.256,30.609-.128,42.028.391,11.414.525,22.31,1.825,32.689,3.906,13.486,20.312,21.337,39.062,23.544,56.25,2.201,17.188.645,31.122-4.67,41.797-5.32,10.682-12.52,16.406-21.598,17.188-21.276,0-46.183.135-74.719.391v68.359c46.438-2.344,86.394-3.125,119.86-2.344,15.822,1.043,25.685,7.488,29.576,19.336,3.892,11.854,4.146,25.391.778,40.625-3.375,15.234-8.111,28.455-14.204,39.648-6.099,11.199-11.091,16.797-14.982,16.797-12.198.262-24.518.652-36.97,1.172-29.06,1.043-58.052,1.629-86.977,1.758-28.932.135-57.012-1.496-84.253-4.883-5.709.262-11.285-6.445-16.733-20.117s-10.641-32.227-15.566-55.664c-4.932-23.438-9.212-49.805-12.842-79.102-3.637-29.297-6.421-59.571-8.367-90.821-1.945-31.25-2.724-61.584-2.335-91.016.39-29.425,2.201-55.987,5.448-79.688,3.241-23.693,8.105-42.578,14.594-56.641,6.481-14.062,15.043-21.094,25.684-21.094,37.359-.256,74.974-1.428,112.855-3.516Z" fill="#fff"/><path d="M3342.48,252.695c-6.36,14.197-14.922,27.216-25.685,39.062-10.769,11.854-19.652,19.471-26.657,22.852-16.867-7.287-31.589-13.281-44.169-17.969-12.587-4.688-25.362-8.594-38.332-11.719-7.783-1.818-15.761-2.014-23.933-.586-8.173,1.435-13.171,4.755-14.983,9.961-1.817,7.812-.912,14.393,2.725,19.727,3.63,5.341,9.34,10.352,17.123,15.039,11.93,7.031,25.684,14.325,41.25,21.875,22.049,10.419,43.646,22.596,64.795,36.523,21.142,13.935,37.682,31.775,49.617,53.516,11.93,21.747,14.788,49.159,8.562,82.227-7.783,43.494-21.403,76.893-40.861,100.195-19.458,23.309-42.096,38.807-67.908,46.484-25.817,7.684-52.475,9.766-79.972,6.25-27.502-3.516-53.253-10.352-77.247-20.508-24-10.156-43.914-21.484-59.735-33.984-.262-6.77.389-16.211,1.945-28.32s4.214-24.475,7.979-37.109c3.758-12.629,8.883-22.912,15.371-30.859,6.482-7.941,14.526-10.871,24.128-8.789,18.418,12.762,34.635,22.852,48.645,30.273s28.603,13.152,43.78,17.188c15.177,4.041,29.119,4.102,41.834.195,12.708-3.906,22.182-14.191,28.408-30.859,5.448-16.145,4.214-29.553-3.697-40.234-7.916-10.676-19.98-19.66-36.191-26.954-16.217-7.287-33.796-14.19-52.73-20.703-21.015-7.031-40.539-14.776-58.567-23.242-18.035-8.459-31.072-19.336-39.11-32.617-13.231-19.269-19.981-43.42-20.236-72.461-.262-29.034,5.059-57.227,15.955-84.57s26.329-48.175,46.31-62.5c26.718-16.925,56.817-24.67,90.284-23.242,33.468,1.435,64.989,8.729,94.565,21.875,29.575,13.153,52.013,28.711,67.324,46.68,5.965,10.682,5.771,23.114-.584,37.305Z" fill="#fff"/></g></svg>