<?xml version="1.0" encoding="UTF-8"?><svg id="Capa_2" xmlns="http://www.w3.org/2000/svg" viewBox="0 0 2529.939 762.032"><g id="Sabado"><path d="M341.308,252.695c-6.36,14.197-14.922,27.216-25.685,39.062-10.769,11.854-19.652,19.471-26.657,22.852-16.867-7.287-31.589-13.281-44.169-17.969-12.587-4.688-25.362-8.594-38.332-11.719-7.783-1.818-15.761-2.014-23.933-.586-8.172,1.435-13.17,4.755-14.982,9.961-1.818,7.812-.912,14.393,2.724,19.727,3.63,5.341,9.34,10.352,17.123,15.039,11.93,7.031,25.685,14.325,41.25,21.875,22.048,10.419,43.646,22.596,64.795,36.523,21.142,13.935,37.681,31.775,49.617,53.516,11.93,21.747,14.788,49.159,8.562,82.227-7.783,43.494-21.403,76.893-40.861,100.195-19.458,23.309-42.096,38.807-67.908,46.484-25.818,7.684-52.475,9.766-79.971,6.25-27.502-3.516-53.253-10.352-77.248-20.508-24-10.156-43.914-21.484-59.735-33.984-.262-6.77.389-16.211,1.946-28.32s4.214-24.475,7.978-37.109c3.758-12.629,8.884-22.912,15.372-30.859,6.482-7.941,14.526-10.871,24.128-8.789,18.418,12.762,34.635,22.852,48.645,30.273,14.009,7.422,28.603,13.152,43.78,17.188,15.177,4.041,29.12,4.102,41.834.195,12.708-3.906,22.182-14.191,28.408-30.859,5.448-16.145,4.214-29.553-3.697-40.234-7.917-10.676-19.98-19.66-36.191-26.954-16.217-7.287-33.796-14.19-52.731-20.703-21.014-7.031-40.539-14.776-58.568-23.242-18.035-8.459-31.072-19.336-39.11-32.617-13.231-19.269-19.98-43.42-20.236-72.461-.262-29.034,5.059-57.227,15.955-84.57,10.896-27.344,26.329-48.175,46.31-62.5,26.718-16.925,56.817-24.67,90.285-23.242,33.467,1.435,64.989,8.729,94.565,21.875,29.575,13.153,52.013,28.711,67.323,46.68,5.966,10.682,5.771,23.114-.583,37.305Z" fill="#fff" stroke="#1f140f" stroke-dasharray="15" stroke-miterlimit="10" stroke-width="30"/><path d="M591.729,147.031c14.266,0,26.658,1.893,37.166,5.664,10.506,3.778,17.316,9.57,20.43,17.383,16.861,44.531,33.662,93.299,50.396,146.289,16.732,52.997,33.012,106.58,48.838,160.743,15.566,51.824,30.609,100.916,45.143,147.266,1.557,4.432-2.273,10.809-11.48,19.141-9.211,8.338-21.342,16.541-36.385,24.609-15.051,8.074-30.617,14.002-46.699,17.773-16.09,3.777-30.354,3.387-42.807-1.172-12.453-4.553-20.498-15.295-24.129-32.227l-17.123-97.656c-2.078-11.975-4.348-21.809-6.811-29.492-2.469-7.678-5.643-14.387-9.533-20.117-3.893-5.725-8.562-8.723-14.01-8.984-5.709.525-10.508,3.906-14.398,10.156-3.893,6.25-7.006,13.477-9.34,21.68-2.336,8.203-4.543,18.816-6.615,31.836l-12.844,87.891c-3.635,20.312-13.754,32.812-30.354,37.5-16.606,4.688-34.963,4.559-55.065-.391-20.108-4.943-37.231-11.652-51.369-20.117-14.144-8.459-20.692-15.82-19.652-22.07,16.345-63.02,31.911-127.863,46.699-194.532,10.118-46.094,20.559-91.339,31.327-135.742,10.763-44.396,22.242-86.523,34.44-126.367,3.892-12.5,15.237-22.198,34.052-29.102,18.807-6.896,38.848-10.217,60.123-9.961ZM587.059,306.797h-1.166c-5.711.781-10.186,4.041-13.426,9.766-3.248,5.731-5.643,12.635-7.199,20.703-1.557,8.075-2.598,16.211-3.113,24.414-.523,8.203-.652,17.773-.391,28.711l50.592-1.953c0-10.938-.33-20.44-.975-28.516-.65-8.068-1.816-16.144-3.502-24.219-1.689-8.068-4.219-14.844-7.588-20.312-3.375-5.469-7.783-8.331-13.232-8.594Z" fill="#fff" stroke="#1f140f" stroke-dasharray="15" stroke-miterlimit="10" stroke-width="30"/><path d="M980.107,139.609c29.314,0,53.897,2.997,73.745,8.984,19.847,5.994,36.902,13.672,51.174,23.047,19.458,14.588,33.334,33.203,41.64,55.859,8.3,22.656,9.662,44.336,4.086,65.039-5.582,20.703-19.524,41.083-41.834,61.133l-34.246,30.078c17.379,4.432,39.433,12.372,66.157,23.828,8.038,2.606,16.6,8.466,25.684,17.578,9.078,9.119,16.15,23.047,21.209,41.797,5.06,18.75,5.51,43.75,1.362,75-4.153,29.688-15.311,55.145-33.468,76.367-18.162,21.229-40.666,37.695-67.519,49.414-26.852,11.719-55.716,18.23-86.587,19.531-32.95-.256-63.043-4.748-90.284-13.477-27.241-8.723-45.403-20.703-54.481-35.938-9.085-15.234-17.901-41.857-26.463-79.883-5.972-45.312-9.602-94.336-10.896-147.071-1.302-52.734-1.04-109.045.778-168.945,1.812-54.688,5.509-83.398,11.091-86.133,5.576-2.734,14.138-5.401,25.685-8.008,11.541-2.6,40.667-4.815,87.365-6.641,12.709-1.037,24.645-1.562,35.803-1.562ZM997.23,454.062c-12.977,0-23.873,2.539-32.689,7.617-8.823,5.079-13.231,12.44-13.231,22.071l6.615,85.938c2.591,10.156,9.535,17.059,20.82,20.703,11.285,3.65,23.866,3.65,37.748,0,13.876-3.645,26.073-11.262,36.581-22.852,10.507-11.584,16.405-27.277,17.706-47.07.256-15.363-3.308-27.93-10.701-37.695-7.395-9.766-16.801-16.993-28.214-21.68-11.42-4.688-22.961-7.031-34.635-7.031ZM989.058,223.203h-2.335c-9.084.525-16.928,2.539-23.544,6.055-6.615,3.516-9.923,8.008-9.923,13.477v71.875c0,7.031,3.952,11.268,11.869,12.695,7.91,1.435,17.25.263,28.019-3.516,10.763-3.771,20.297-10.352,28.604-19.727,8.3-9.375,12.708-21.484,13.231-36.328-.523-15.881-5.448-27.276-14.788-34.18-9.34-6.896-19.72-10.352-31.133-10.352Z" fill="#fff" stroke="#1f140f" stroke-dasharray="15" stroke-miterlimit="10" stroke-width="30"/><path d="M1416.74,147.031c14.266,0,26.657,1.893,37.165,5.664,10.507,3.778,17.317,9.57,20.431,17.383,16.861,44.531,33.662,93.299,50.396,146.289,16.733,52.997,33.012,106.58,48.839,160.743,15.566,51.824,30.609,100.916,45.143,147.266,1.557,4.432-2.274,10.809-11.48,19.141-9.212,8.338-21.343,16.541-36.386,24.609-15.05,8.074-30.616,14.002-46.699,17.773-16.089,3.777-30.354,3.387-42.807-1.172-12.453-4.553-20.498-15.295-24.128-32.227l-17.123-97.656c-2.079-11.975-4.348-21.809-6.811-29.492-2.469-7.678-5.643-14.387-9.534-20.117-3.892-5.725-8.562-8.723-14.01-8.984-5.709.525-10.507,3.906-14.398,10.156s-7.005,13.477-9.34,21.68-4.542,18.816-6.615,31.836l-12.843,87.891c-3.636,20.312-13.754,32.812-30.354,37.5-16.606,4.688-34.964,4.559-55.066-.391-20.108-4.943-37.23-11.652-51.368-20.117-14.144-8.459-20.692-15.82-19.652-22.07,16.345-63.02,31.911-127.863,46.698-194.532,10.118-46.094,20.559-91.339,31.327-135.742,10.763-44.396,22.243-86.523,34.44-126.367,3.892-12.5,15.238-22.198,34.052-29.102,18.807-6.896,38.849-10.217,60.124-9.961ZM1412.07,306.797h-1.167c-5.71.781-10.185,4.041-13.426,9.766-3.247,5.731-5.643,12.635-7.199,20.703-1.557,8.075-2.597,16.211-3.113,24.414-.523,8.203-.651,17.773-.39,28.711l50.591-1.953c0-10.938-.329-20.44-.974-28.516-.65-8.068-1.817-16.144-3.502-24.219-1.69-8.068-4.22-14.844-7.589-20.312-3.374-5.469-7.783-8.331-13.231-8.594Z" fill="#fff" stroke="#1f140f" stroke-dasharray="15" stroke-miterlimit="10" stroke-width="30"/><path d="M1796.558,132.578c17.378,0,32.166,1.435,44.363,4.297,3.631-1.562,14.205,1.044,31.717,7.812,17.512,6.775,37.358,19.275,59.541,37.5,22.182,18.231,42.156,43.622,59.93,76.172,17.768,32.557,28.73,73.828,32.884,123.828,2.591,48.438-3.697,91.602-18.874,129.493s-35.158,69.988-59.93,96.289c-24.778,26.307-50.396,46.229-76.858,59.766-26.463,13.543-49.685,20.057-69.659,19.531-22.055-1.818-45.337-10.09-69.854-24.805-24.517-14.709-41.707-29.748-51.563-45.117-7.527-13.537-12.647-41.992-15.372-85.352-2.724-43.359-3.636-91.272-2.724-143.75.906-52.472,3.046-99.023,6.421-139.648,3.369-40.625,7.261-64.709,11.675-72.266,11.675-16.144,28.664-27.472,50.979-33.984,22.31-6.506,44.753-9.766,67.324-9.766ZM1817.961,311.094c-11.936.263-18.29,6.385-19.068,18.359l3.113,158.594c.517,11.463,5.12,18.164,13.814,20.117,8.689,1.953,18.68-.451,29.966-7.227,11.285-6.77,21.209-17.639,29.771-32.617,8.561-14.972,12.97-33.79,13.23-56.446-.261-22.912-4.348-41.857-12.258-56.836-7.917-14.972-17.317-26.104-28.214-33.398-10.896-7.287-21.015-10.803-30.354-10.547Z" fill="#fff" stroke="#1f140f" stroke-dasharray="15" stroke-miterlimit="10" stroke-width="30"/><path d="M2293.12,197.422c11.152.263,22.571,1.307,34.246,3.125,37.614,4.95,68.747,16.932,93.397,35.938,24.645,19.013,43.196,42.188,55.649,69.531s19.068,55.994,19.847,85.938c.778,29.95-3.764,58.203-13.62,84.766-4.67,10.938-13.231,24.939-25.685,41.992-12.453,17.059-28.67,34.57-48.645,52.539-19.98,17.969-43.585,33.729-70.826,47.266-27.241,13.543-57.856,22.4-91.841,26.562-32.434,5.994-62.398,3.582-89.896-7.227-27.502-10.803-50.462-31.701-68.88-62.695-18.425-30.988-30.488-73.828-36.192-128.516-.778-42.188,9.662-82.227,31.327-120.117,21.659-37.891,50.979-68.811,87.949-92.773,36.971-23.956,78.026-36.065,123.168-36.328ZM2337.873,350.938c-12.714-.519-30.487,7.422-53.314,23.828-35.802,32.812-59.674,60.352-71.604,82.617-11.936,22.266-13.882,37.5-5.837,45.704,8.038,8.203,23.866,7.557,47.477-1.953,23.605-9.504,53.053-29.621,88.339-60.352,9.595-12.756,16.017-25.977,19.263-39.648,3.241-13.672,2.919-25.323-.973-34.961-3.892-9.631-11.675-14.709-23.35-15.234Z" fill="#fff" stroke="#1f140f" stroke-dasharray="15" stroke-miterlimit="10" stroke-width="30"/><path d="M341.308,252.695c-6.36,14.197-14.922,27.216-25.685,39.062-10.769,11.854-19.652,19.471-26.657,22.852-16.867-7.287-31.589-13.281-44.169-17.969-12.587-4.688-25.362-8.594-38.332-11.719-7.783-1.818-15.761-2.014-23.933-.586-8.172,1.435-13.17,4.755-14.982,9.961-1.818,7.812-.912,14.393,2.724,19.727,3.63,5.341,9.34,10.352,17.123,15.039,11.93,7.031,25.685,14.325,41.25,21.875,22.048,10.419,43.646,22.596,64.795,36.523,21.142,13.935,37.681,31.775,49.617,53.516,11.93,21.747,14.788,49.159,8.562,82.227-7.783,43.494-21.403,76.893-40.861,100.195-19.458,23.309-42.096,38.807-67.908,46.484-25.818,7.684-52.475,9.766-79.971,6.25-27.502-3.516-53.253-10.352-77.248-20.508-24-10.156-43.914-21.484-59.735-33.984-.262-6.77.389-16.211,1.946-28.32s4.214-24.475,7.978-37.109c3.758-12.629,8.884-22.912,15.372-30.859,6.482-7.941,14.526-10.871,24.128-8.789,18.418,12.762,34.635,22.852,48.645,30.273,14.009,7.422,28.603,13.152,43.78,17.188,15.177,4.041,29.12,4.102,41.834.195,12.708-3.906,22.182-14.191,28.408-30.859,5.448-16.145,4.214-29.553-3.697-40.234-7.917-10.676-19.98-19.66-36.191-26.954-16.217-7.287-33.796-14.19-52.731-20.703-21.014-7.031-40.539-14.776-58.568-23.242-18.035-8.459-31.072-19.336-39.11-32.617-13.231-19.269-19.98-43.42-20.236-72.461-.262-29.034,5.059-57.227,15.955-84.57,10.896-27.344,26.329-48.175,46.31-62.5,26.718-16.925,56.817-24.67,90.285-23.242,33.467,1.435,64.989,8.729,94.565,21.875,29.575,13.153,52.013,28.711,67.323,46.68,5.966,10.682,5.771,23.114-.583,37.305Z" fill="#fff"/><path d="M591.729,147.031c14.266,0,26.658,1.893,37.166,5.664,10.506,3.778,17.316,9.57,20.43,17.383,16.861,44.531,33.662,93.299,50.396,146.289,16.732,52.997,33.012,106.58,48.838,160.743,15.566,51.824,30.609,100.916,45.143,147.266,1.557,4.432-2.273,10.809-11.48,19.141-9.211,8.338-21.342,16.541-36.385,24.609-15.051,8.074-30.617,14.002-46.699,17.773-16.09,3.777-30.354,3.387-42.807-1.172-12.453-4.553-20.498-15.295-24.129-32.227l-17.123-97.656c-2.078-11.975-4.348-21.809-6.811-29.492-2.469-7.678-5.643-14.387-9.533-20.117-3.893-5.725-8.562-8.723-14.01-8.984-5.709.525-10.508,3.906-14.398,10.156-3.893,6.25-7.006,13.477-9.34,21.68-2.336,8.203-4.543,18.816-6.615,31.836l-12.844,87.891c-3.635,20.312-13.754,32.812-30.354,37.5-16.606,4.688-34.963,4.559-55.065-.391-20.108-4.943-37.231-11.652-51.369-20.117-14.144-8.459-20.692-15.82-19.652-22.07,16.345-63.02,31.911-127.863,46.699-194.532,10.118-46.094,20.559-91.339,31.327-135.742,10.763-44.396,22.242-86.523,34.44-126.367,3.892-12.5,15.237-22.198,34.052-29.102,18.807-6.896,38.848-10.217,60.123-9.961ZM587.059,306.797h-1.166c-5.711.781-10.186,4.041-13.426,9.766-3.248,5.731-5.643,12.635-7.199,20.703-1.557,8.075-2.598,16.211-3.113,24.414-.523,8.203-.652,17.773-.391,28.711l50.592-1.953c0-10.938-.33-20.44-.975-28.516-.65-8.068-1.816-16.144-3.502-24.219-1.689-8.068-4.219-14.844-7.588-20.312-3.375-5.469-7.783-8.331-13.232-8.594Z" fill="#fff"/><path d="M980.107,139.609c29.314,0,53.897,2.997,73.745,8.984,19.847,5.994,36.902,13.672,51.174,23.047,19.458,14.588,33.334,33.203,41.64,55.859,8.3,22.656,9.662,44.336,4.086,65.039-5.582,20.703-19.524,41.083-41.834,61.133l-34.246,30.078c17.379,4.432,39.433,12.372,66.157,23.828,8.038,2.606,16.6,8.466,25.684,17.578,9.078,9.119,16.15,23.047,21.209,41.797,5.06,18.75,5.51,43.75,1.362,75-4.153,29.688-15.311,55.145-33.468,76.367-18.162,21.229-40.666,37.695-67.519,49.414-26.852,11.719-55.716,18.23-86.587,19.531-32.95-.256-63.043-4.748-90.284-13.477-27.241-8.723-45.403-20.703-54.481-35.938-9.085-15.234-17.901-41.857-26.463-79.883-5.972-45.312-9.602-94.336-10.896-147.071-1.302-52.734-1.04-109.045.778-168.945,1.812-54.688,5.509-83.398,11.091-86.133,5.576-2.734,14.138-5.401,25.685-8.008,11.541-2.6,40.667-4.815,87.365-6.641,12.709-1.037,24.645-1.562,35.803-1.562ZM997.23,454.062c-12.977,0-23.873,2.539-32.689,7.617-8.823,5.079-13.231,12.44-13.231,22.071l6.615,85.938c2.591,10.156,9.535,17.059,20.82,20.703,11.285,3.65,23.866,3.65,37.748,0,13.876-3.645,26.073-11.262,36.581-22.852,10.507-11.584,16.405-27.277,17.706-47.07.256-15.363-3.308-27.93-10.701-37.695-7.395-9.766-16.801-16.993-28.214-21.68-11.42-4.688-22.961-7.031-34.635-7.031ZM989.058,223.203h-2.335c-9.084.525-16.928,2.539-23.544,6.055-6.615,3.516-9.923,8.008-9.923,13.477v71.875c0,7.031,3.952,11.268,11.869,12.695,7.91,1.435,17.25.263,28.019-3.516,10.763-3.771,20.297-10.352,28.604-19.727,8.3-9.375,12.708-21.484,13.231-36.328-.523-15.881-5.448-27.276-14.788-34.18-9.34-6.896-19.72-10.352-31.133-10.352Z" fill="#fff"/><path d="M1416.74,147.031c14.266,0,26.657,1.893,37.165,5.664,10.507,3.778,17.317,9.57,20.431,17.383,16.861,44.531,33.662,93.299,50.396,146.289,16.733,52.997,33.012,106.58,48.839,160.743,15.566,51.824,30.609,100.916,45.143,147.266,1.557,4.432-2.274,10.809-11.48,19.141-9.212,8.338-21.343,16.541-36.386,24.609-15.05,8.074-30.616,14.002-46.699,17.773-16.089,3.777-30.354,3.387-42.807-1.172-12.453-4.553-20.498-15.295-24.128-32.227l-17.123-97.656c-2.079-11.975-4.348-21.809-6.811-29.492-2.469-7.678-5.643-14.387-9.534-20.117-3.892-5.725-8.562-8.723-14.01-8.984-5.709.525-10.507,3.906-14.398,10.156s-7.005,13.477-9.34,21.68-4.542,18.816-6.615,31.836l-12.843,87.891c-3.636,20.312-13.754,32.812-30.354,37.5-16.606,4.688-34.964,4.559-55.066-.391-20.108-4.943-37.23-11.652-51.368-20.117-14.144-8.459-20.692-15.82-19.652-22.07,16.345-63.02,31.911-127.863,46.698-194.532,10.118-46.094,20.559-91.339,31.327-135.742,10.763-44.396,22.243-86.523,34.44-126.367,3.892-12.5,15.238-22.198,34.052-29.102,18.807-6.896,38.849-10.217,60.124-9.961ZM1412.07,306.797h-1.167c-5.71.781-10.185,4.041-13.426,9.766-3.247,5.731-5.643,12.635-7.199,20.703-1.557,8.075-2.597,16.211-3.113,24.414-.523,8.203-.651,17.773-.39,28.711l50.591-1.953c0-10.938-.329-20.44-.974-28.516-.65-8.068-1.817-16.144-3.502-24.219-1.69-8.068-4.22-14.844-7.589-20.312-3.374-5.469-7.783-8.331-13.231-8.594Z" fill="#fff"/><path d="M1796.558,132.578c17.378,0,32.166,1.435,44.363,4.297,3.631-1.562,14.205,1.044,31.717,7.812,17.512,6.775,37.358,19.275,59.541,37.5,22.182,18.231,42.156,43.622,59.93,76.172,17.768,32.557,28.73,73.828,32.884,123.828,2.591,48.438-3.697,91.602-18.874,129.493s-35.158,69.988-59.93,96.289c-24.778,26.307-50.396,46.229-76.858,59.766-26.463,13.543-49.685,20.057-69.659,19.531-22.055-1.818-45.337-10.09-69.854-24.805-24.517-14.709-41.707-29.748-51.563-45.117-7.527-13.537-12.647-41.992-15.372-85.352-2.724-43.359-3.636-91.272-2.724-143.75.906-52.472,3.046-99.023,6.421-139.648,3.369-40.625,7.261-64.709,11.675-72.266,11.675-16.144,28.664-27.472,50.979-33.984,22.31-6.506,44.753-9.766,67.324-9.766ZM1817.961,311.094c-11.936.263-18.29,6.385-19.068,18.359l3.113,158.594c.517,11.463,5.12,18.164,13.814,20.117,8.689,1.953,18.68-.451,29.966-7.227,11.285-6.77,21.209-17.639,29.771-32.617,8.561-14.972,12.97-33.79,13.23-56.446-.261-22.912-4.348-41.857-12.258-56.836-7.917-14.972-17.317-26.104-28.214-33.398-10.896-7.287-21.015-10.803-30.354-10.547Z" fill="#fff"/><path d="M2293.12,197.422c11.152.263,22.571,1.307,34.246,3.125,37.614,4.95,68.747,16.932,93.397,35.938,24.645,19.013,43.196,42.188,55.649,69.531s19.068,55.994,19.847,85.938c.778,29.95-3.764,58.203-13.62,84.766-4.67,10.938-13.231,24.939-25.685,41.992-12.453,17.059-28.67,34.57-48.645,52.539-19.98,17.969-43.585,33.729-70.826,47.266-27.241,13.543-57.856,22.4-91.841,26.562-32.434,5.994-62.398,3.582-89.896-7.227-27.502-10.803-50.462-31.701-68.88-62.695-18.425-30.988-30.488-73.828-36.192-128.516-.778-42.188,9.662-82.227,31.327-120.117,21.659-37.891,50.979-68.811,87.949-92.773,36.971-23.956,78.026-36.065,123.168-36.328ZM2337.873,350.938c-12.714-.519-30.487,7.422-53.314,23.828-35.802,32.812-59.674,60.352-71.604,82.617-11.936,22.266-13.882,37.5-5.837,45.704,8.038,8.203,23.866,7.557,47.477-1.953,23.605-9.504,53.053-29.621,88.339-60.352,9.595-12.756,16.017-25.977,19.263-39.648,3.241-13.672,2.919-25.323-.973-34.961-3.892-9.631-11.675-14.709-23.35-15.234Z" fill="#fff"/></g></svg>