<?xml version="1.0" encoding="UTF-8"?><svg id="Capa_2" xmlns="http://www.w3.org/2000/svg" viewBox="0 0 2585.979 762.032"><g id="Viernes"><path d="M36.209,169.492c12.842-8.722,29.381-14.123,49.618-16.211,20.236-2.081,38.782-1.758,55.649.977,16.862,2.734,26.979,6.836,30.354,12.305l61.486,240.625c2.59,13.807,5.381,25.195,8.367,34.18,2.979,8.984,7.005,16.864,12.063,23.633,5.059,6.776,11.219,10.292,18.485,10.547,7.005-.256,13.292-4.035,18.874-11.329,5.575-7.287,10.312-15.753,14.204-25.391,3.892-9.631,7.783-22.003,11.675-37.109l62.653-225.781c2.335-5.206,10.763-9.112,25.296-11.719,14.526-2.6,31.582-3.32,51.174-2.148,19.586,1.172,38.198,4.627,55.844,10.352,17.64,5.731,30.744,14.258,39.305,25.586,8.562,11.328,8.817,25.977.778,43.945-18.162,62.244-41.901,124.158-71.216,185.742-29.32,61.59-62.265,122.852-98.846,183.79-15.565,22.918-34.963,41.15-58.179,54.688-23.222,13.543-47.026,19.141-71.41,16.797-24.389-4.162-45.275-14.123-62.654-29.883-17.384-15.754-29.187-31.701-35.413-47.852-1.818-4.426-9.212-26.496-22.182-66.211-12.976-39.709-27.825-85.022-44.559-135.938-16.734-50.909-37.943-115.686-63.627-194.336-4.67-17.443-.584-30.529,12.258-39.258Z" fill="#fff" stroke="#1f140f" stroke-dasharray="15" stroke-miterlimit="10" stroke-width="30"/><path d="M615.857,196.836c16.6-10.284,35.541-15.948,56.816-16.992,21.27-1.037,39.821,3.26,55.649,12.891,15.821,9.638,23.866,25.525,24.128,47.656l1.945,100.781v24.219c-.262,23.438-.194,48.768.194,75.977.39,27.215,1.752,53.711,4.087,79.493l4.67,81.641c.255,11.199-6.422,21.289-20.042,30.273s-29.965,14.648-49.033,16.992c-19.069,2.344-36.581-.977-52.536-9.961-15.956-8.984-26.141-25.842-30.549-50.586-8.823-60.156-15.372-119.465-19.652-177.93-4.281-58.459-5.388-115.948-3.309-172.461,1.812-17.706,11.024-31.701,27.631-41.992Z" fill="#fff" stroke="#1f140f" stroke-dasharray="15" stroke-miterlimit="10" stroke-width="30"/><path d="M945.083,170.859c38.138-2.081,65.634-2.734,82.501-1.953,15.306,1.825,25.49,8.789,30.549,20.898,5.06,12.109,6.743,25.977,5.06,41.602-1.69,15.625-5.06,29.755-10.118,42.383-5.06,12.635-9.924,20.508-14.594,23.633-14.788,2.606-30.293,3.778-46.504,3.516-16.217-.256-36.131-1.562-59.735-3.906v71.094c16.6-.256,30.609-.128,42.028.391,11.414.525,22.31,1.825,32.689,3.906,13.486,20.312,21.337,39.062,23.544,56.25,2.201,17.188.645,31.122-4.67,41.797-5.32,10.682-12.52,16.406-21.598,17.188-21.276,0-46.183.135-74.719.391v68.359c46.438-2.344,86.394-3.125,119.86-2.344,15.822,1.043,25.685,7.488,29.576,19.336,3.892,11.854,4.146,25.391.778,40.625-3.375,15.234-8.111,28.455-14.204,39.648-6.099,11.199-11.091,16.797-14.982,16.797-12.198.262-24.518.652-36.97,1.172-29.06,1.043-58.052,1.629-86.977,1.758-28.932.135-57.012-1.496-84.253-4.883-5.709.262-11.285-6.445-16.733-20.117s-10.641-32.227-15.566-55.664c-4.932-23.438-9.212-49.805-12.842-79.102-3.637-29.297-6.421-59.571-8.367-90.821-1.945-31.25-2.724-61.584-2.335-91.016.39-29.425,2.201-55.987,5.448-79.688,3.241-23.693,8.105-42.578,14.594-56.641,6.481-14.062,15.043-21.094,25.684-21.094,37.359-.256,74.974-1.428,112.855-3.516Z" fill="#fff" stroke="#1f140f" stroke-dasharray="15" stroke-miterlimit="10" stroke-width="30"/><path d="M1240.453,125.547c35.803.263,67.713,6.971,95.732,20.117,28.02,13.153,48.188,33.271,60.514,60.352,12.319,27.088,12.708,61.658,1.168,103.711-11.548,42.06-39.244,92.127-83.085,150.195l131.534,106.25c1.557,14.324-2.918,27.869-13.426,40.625-10.507,12.762-23.483,24.354-38.915,34.766-15.438,10.418-29.904,19.275-43.392,26.562l-117.524-96.094,22.182,123.828c-4.415,2.08-13.365,5.334-26.852,9.766-13.493,4.424-28.214,8.33-44.17,11.719-15.955,3.381-29.965,4.357-42.028,2.93-12.064-1.436-18.874-6.836-20.431-16.211-10.896-73.438-17.317-146.35-19.264-218.75-1.945-72.394-2.401-144.532-1.362-216.407.518-37.5.778-75,.778-112.5,44.364-20.831,90.54-31.115,138.54-30.859ZM1230.725,259.531c-8.823-.519-12.977,2.344-12.453,8.594l6.615,80.859c1.557,9.375,7.133,12.244,16.733,8.594,9.596-3.644,19.324-10.742,29.188-21.289,9.856-10.547,15.693-21.545,17.512-33.008.517-7.812-2.529-14.972-9.146-21.484-6.615-6.506-14.532-11.779-23.738-15.82-9.212-4.034-17.451-6.183-24.711-6.445Z" fill="#fff" stroke="#1f140f" stroke-dasharray="15" stroke-miterlimit="10" stroke-width="30"/><path d="M1491.458,639.61l-19.847-450.782c-.523-7.55,5.576-13.995,18.29-19.336,12.709-5.334,28.02-9.045,45.921-11.133,17.901-2.081,34.307-2.148,49.229-.195,14.915,1.953,24.188,6.189,27.824,12.695l49.812,139.844c3.631,7.031,6.744,14.453,9.34,22.266,3.631,12.5,8.951,23.377,15.956,32.617,7.005,9.247,18.807,13.611,35.413,13.086l-1.557-48.438-5.448-150.781c-.523-7.55,5.965-13.928,19.458-19.141,13.486-5.206,29.637-8.722,48.449-10.547,18.808-1.818,35.736-1.172,50.785,1.953,15.044,3.125,23.738,9.51,26.073,19.141,4.147,76.825,6.811,154.169,7.979,232.031,1.167,77.87-.329,156.512-4.476,235.938-.523,12.244-6.227,22.266-17.123,30.078s-24.389,12.371-40.473,13.672c-16.089,1.307-32.172-1.428-48.255-8.203-16.089-6.77-29.576-18.615-40.473-35.547l-89.506-148.828c1.034,31.25,1.946,57.422,2.725,78.516s1.489,40.76,2.141,58.984c.645,18.23,1.101,30.604,1.361,37.109-5.448,9.9-15.566,16.541-30.354,19.922-14.788,3.387-30.744,3.973-47.866,1.758-17.123-2.209-31.979-7.287-44.559-15.234-12.587-7.941-19.525-18.42-20.82-31.445Z" fill="#fff" stroke="#1f140f" stroke-dasharray="15" stroke-miterlimit="10" stroke-width="30"/><path d="M2054.567,170.859c38.138-2.081,65.634-2.734,82.501-1.953,15.306,1.825,25.49,8.789,30.549,20.898,5.06,12.109,6.743,25.977,5.06,41.602-1.69,15.625-5.06,29.755-10.118,42.383-5.06,12.635-9.924,20.508-14.594,23.633-14.788,2.606-30.293,3.778-46.504,3.516-16.217-.256-36.131-1.562-59.735-3.906v71.094c16.6-.256,30.609-.128,42.028.391,11.414.525,22.31,1.825,32.689,3.906,13.486,20.312,21.337,39.062,23.544,56.25,2.201,17.188.645,31.122-4.67,41.797-5.32,10.682-12.52,16.406-21.598,17.188-21.276,0-46.183.135-74.719.391v68.359c46.438-2.344,86.394-3.125,119.86-2.344,15.822,1.043,25.685,7.488,29.576,19.336,3.892,11.854,4.146,25.391.778,40.625-3.375,15.234-8.111,28.455-14.204,39.648-6.099,11.199-11.091,16.797-14.982,16.797-12.198.262-24.518.652-36.97,1.172-29.06,1.043-58.052,1.629-86.977,1.758-28.932.135-57.012-1.496-84.253-4.883-5.709.262-11.285-6.445-16.733-20.117s-10.641-32.227-15.566-55.664c-4.932-23.438-9.212-49.805-12.842-79.102-3.637-29.297-6.421-59.571-8.367-90.821-1.945-31.25-2.724-61.584-2.335-91.016.39-29.425,2.201-55.987,5.448-79.688,3.241-23.693,8.105-42.578,14.594-56.641,6.481-14.062,15.043-21.094,25.684-21.094,37.359-.256,74.974-1.428,112.855-3.516Z" fill="#fff" stroke="#1f140f" stroke-dasharray="15" stroke-miterlimit="10" stroke-width="30"/><path d="M2531.09,252.695c-6.36,14.197-14.922,27.216-25.685,39.062-10.769,11.854-19.652,19.471-26.657,22.852-16.867-7.287-31.589-13.281-44.169-17.969-12.587-4.688-25.362-8.594-38.332-11.719-7.783-1.818-15.761-2.014-23.933-.586-8.173,1.435-13.171,4.755-14.983,9.961-1.817,7.812-.912,14.393,2.725,19.727,3.63,5.341,9.34,10.352,17.123,15.039,11.93,7.031,25.684,14.325,41.25,21.875,22.049,10.419,43.646,22.596,64.795,36.523,21.142,13.935,37.682,31.775,49.617,53.516,11.93,21.747,14.788,49.159,8.562,82.227-7.783,43.494-21.403,76.893-40.861,100.195-19.458,23.309-42.096,38.807-67.908,46.484-25.817,7.684-52.475,9.766-79.972,6.25-27.502-3.516-53.253-10.352-77.247-20.508-24-10.156-43.914-21.484-59.735-33.984-.262-6.77.389-16.211,1.945-28.32s4.214-24.475,7.979-37.109c3.758-12.629,8.883-22.912,15.371-30.859,6.482-7.941,14.526-10.871,24.128-8.789,18.418,12.762,34.635,22.852,48.645,30.273s28.603,13.152,43.78,17.188c15.177,4.041,29.119,4.102,41.834.195,12.708-3.906,22.182-14.191,28.408-30.859,5.448-16.145,4.214-29.553-3.697-40.234-7.916-10.676-19.98-19.66-36.191-26.954-16.217-7.287-33.796-14.19-52.73-20.703-21.015-7.031-40.539-14.776-58.567-23.242-18.035-8.459-31.072-19.336-39.11-32.617-13.231-19.269-19.981-43.42-20.236-72.461-.262-29.034,5.059-57.227,15.955-84.57s26.329-48.175,46.31-62.5c26.718-16.925,56.817-24.67,90.284-23.242,33.468,1.435,64.989,8.729,94.565,21.875,29.575,13.153,52.013,28.711,67.324,46.68,5.965,10.682,5.771,23.114-.584,37.305Z" fill="#fff" stroke="#1f140f" stroke-dasharray="15" stroke-miterlimit="10" stroke-width="30"/><path d="M36.209,169.492c12.842-8.722,29.381-14.123,49.618-16.211,20.236-2.081,38.782-1.758,55.649.977,16.862,2.734,26.979,6.836,30.354,12.305l61.486,240.625c2.59,13.807,5.381,25.195,8.367,34.18,2.979,8.984,7.005,16.864,12.063,23.633,5.059,6.776,11.219,10.292,18.485,10.547,7.005-.256,13.292-4.035,18.874-11.329,5.575-7.287,10.312-15.753,14.204-25.391,3.892-9.631,7.783-22.003,11.675-37.109l62.653-225.781c2.335-5.206,10.763-9.112,25.296-11.719,14.526-2.6,31.582-3.32,51.174-2.148,19.586,1.172,38.198,4.627,55.844,10.352,17.64,5.731,30.744,14.258,39.305,25.586,8.562,11.328,8.817,25.977.778,43.945-18.162,62.244-41.901,124.158-71.216,185.742-29.32,61.59-62.265,122.852-98.846,183.79-15.565,22.918-34.963,41.15-58.179,54.688-23.222,13.543-47.026,19.141-71.41,16.797-24.389-4.162-45.275-14.123-62.654-29.883-17.384-15.754-29.187-31.701-35.413-47.852-1.818-4.426-9.212-26.496-22.182-66.211-12.976-39.709-27.825-85.022-44.559-135.938-16.734-50.909-37.943-115.686-63.627-194.336-4.67-17.443-.584-30.529,12.258-39.258Z" fill="#fff"/><path d="M615.857,196.836c16.6-10.284,35.541-15.948,56.816-16.992,21.27-1.037,39.821,3.26,55.649,12.891,15.821,9.638,23.866,25.525,24.128,47.656l1.945,100.781v24.219c-.262,23.438-.194,48.768.194,75.977.39,27.215,1.752,53.711,4.087,79.493l4.67,81.641c.255,11.199-6.422,21.289-20.042,30.273s-29.965,14.648-49.033,16.992c-19.069,2.344-36.581-.977-52.536-9.961-15.956-8.984-26.141-25.842-30.549-50.586-8.823-60.156-15.372-119.465-19.652-177.93-4.281-58.459-5.388-115.948-3.309-172.461,1.812-17.706,11.024-31.701,27.631-41.992Z" fill="#fff"/><path d="M945.083,170.859c38.138-2.081,65.634-2.734,82.501-1.953,15.306,1.825,25.49,8.789,30.549,20.898,5.06,12.109,6.743,25.977,5.06,41.602-1.69,15.625-5.06,29.755-10.118,42.383-5.06,12.635-9.924,20.508-14.594,23.633-14.788,2.606-30.293,3.778-46.504,3.516-16.217-.256-36.131-1.562-59.735-3.906v71.094c16.6-.256,30.609-.128,42.028.391,11.414.525,22.31,1.825,32.689,3.906,13.486,20.312,21.337,39.062,23.544,56.25,2.201,17.188.645,31.122-4.67,41.797-5.32,10.682-12.52,16.406-21.598,17.188-21.276,0-46.183.135-74.719.391v68.359c46.438-2.344,86.394-3.125,119.86-2.344,15.822,1.043,25.685,7.488,29.576,19.336,3.892,11.854,4.146,25.391.778,40.625-3.375,15.234-8.111,28.455-14.204,39.648-6.099,11.199-11.091,16.797-14.982,16.797-12.198.262-24.518.652-36.97,1.172-29.06,1.043-58.052,1.629-86.977,1.758-28.932.135-57.012-1.496-84.253-4.883-5.709.262-11.285-6.445-16.733-20.117s-10.641-32.227-15.566-55.664c-4.932-23.438-9.212-49.805-12.842-79.102-3.637-29.297-6.421-59.571-8.367-90.821-1.945-31.25-2.724-61.584-2.335-91.016.39-29.425,2.201-55.987,5.448-79.688,3.241-23.693,8.105-42.578,14.594-56.641,6.481-14.062,15.043-21.094,25.684-21.094,37.359-.256,74.974-1.428,112.855-3.516Z" fill="#fff"/><path d="M1240.453,125.547c35.803.263,67.713,6.971,95.732,20.117,28.02,13.153,48.188,33.271,60.514,60.352,12.319,27.088,12.708,61.658,1.168,103.711-11.548,42.06-39.244,92.127-83.085,150.195l131.534,106.25c1.557,14.324-2.918,27.869-13.426,40.625-10.507,12.762-23.483,24.354-38.915,34.766-15.438,10.418-29.904,19.275-43.392,26.562l-117.524-96.094,22.182,123.828c-4.415,2.08-13.365,5.334-26.852,9.766-13.493,4.424-28.214,8.33-44.17,11.719-15.955,3.381-29.965,4.357-42.028,2.93-12.064-1.436-18.874-6.836-20.431-16.211-10.896-73.438-17.317-146.35-19.264-218.75-1.945-72.394-2.401-144.532-1.362-216.407.518-37.5.778-75,.778-112.5,44.364-20.831,90.54-31.115,138.54-30.859ZM1230.725,259.531c-8.823-.519-12.977,2.344-12.453,8.594l6.615,80.859c1.557,9.375,7.133,12.244,16.733,8.594,9.596-3.644,19.324-10.742,29.188-21.289,9.856-10.547,15.693-21.545,17.512-33.008.517-7.812-2.529-14.972-9.146-21.484-6.615-6.506-14.532-11.779-23.738-15.82-9.212-4.034-17.451-6.183-24.711-6.445Z" fill="#fff"/><path d="M1491.458,639.61l-19.847-450.782c-.523-7.55,5.576-13.995,18.29-19.336,12.709-5.334,28.02-9.045,45.921-11.133,17.901-2.081,34.307-2.148,49.229-.195,14.915,1.953,24.188,6.189,27.824,12.695l49.812,139.844c3.631,7.031,6.744,14.453,9.34,22.266,3.631,12.5,8.951,23.377,15.956,32.617,7.005,9.247,18.807,13.611,35.413,13.086l-1.557-48.438-5.448-150.781c-.523-7.55,5.965-13.928,19.458-19.141,13.486-5.206,29.637-8.722,48.449-10.547,18.808-1.818,35.736-1.172,50.785,1.953,15.044,3.125,23.738,9.51,26.073,19.141,4.147,76.825,6.811,154.169,7.979,232.031,1.167,77.87-.329,156.512-4.476,235.938-.523,12.244-6.227,22.266-17.123,30.078s-24.389,12.371-40.473,13.672c-16.089,1.307-32.172-1.428-48.255-8.203-16.089-6.77-29.576-18.615-40.473-35.547l-89.506-148.828c1.034,31.25,1.946,57.422,2.725,78.516s1.489,40.76,2.141,58.984c.645,18.23,1.101,30.604,1.361,37.109-5.448,9.9-15.566,16.541-30.354,19.922-14.788,3.387-30.744,3.973-47.866,1.758-17.123-2.209-31.979-7.287-44.559-15.234-12.587-7.941-19.525-18.42-20.82-31.445Z" fill="#fff"/><path d="M2054.567,170.859c38.138-2.081,65.634-2.734,82.501-1.953,15.306,1.825,25.49,8.789,30.549,20.898,5.06,12.109,6.743,25.977,5.06,41.602-1.69,15.625-5.06,29.755-10.118,42.383-5.06,12.635-9.924,20.508-14.594,23.633-14.788,2.606-30.293,3.778-46.504,3.516-16.217-.256-36.131-1.562-59.735-3.906v71.094c16.6-.256,30.609-.128,42.028.391,11.414.525,22.31,1.825,32.689,3.906,13.486,20.312,21.337,39.062,23.544,56.25,2.201,17.188.645,31.122-4.67,41.797-5.32,10.682-12.52,16.406-21.598,17.188-21.276,0-46.183.135-74.719.391v68.359c46.438-2.344,86.394-3.125,119.86-2.344,15.822,1.043,25.685,7.488,29.576,19.336,3.892,11.854,4.146,25.391.778,40.625-3.375,15.234-8.111,28.455-14.204,39.648-6.099,11.199-11.091,16.797-14.982,16.797-12.198.262-24.518.652-36.97,1.172-29.06,1.043-58.052,1.629-86.977,1.758-28.932.135-57.012-1.496-84.253-4.883-5.709.262-11.285-6.445-16.733-20.117s-10.641-32.227-15.566-55.664c-4.932-23.438-9.212-49.805-12.842-79.102-3.637-29.297-6.421-59.571-8.367-90.821-1.945-31.25-2.724-61.584-2.335-91.016.39-29.425,2.201-55.987,5.448-79.688,3.241-23.693,8.105-42.578,14.594-56.641,6.481-14.062,15.043-21.094,25.684-21.094,37.359-.256,74.974-1.428,112.855-3.516Z" fill="#fff"/><path d="M2531.09,252.695c-6.36,14.197-14.922,27.216-25.685,39.062-10.769,11.854-19.652,19.471-26.657,22.852-16.867-7.287-31.589-13.281-44.169-17.969-12.587-4.688-25.362-8.594-38.332-11.719-7.783-1.818-15.761-2.014-23.933-.586-8.173,1.435-13.171,4.755-14.983,9.961-1.817,7.812-.912,14.393,2.725,19.727,3.63,5.341,9.34,10.352,17.123,15.039,11.93,7.031,25.684,14.325,41.25,21.875,22.049,10.419,43.646,22.596,64.795,36.523,21.142,13.935,37.682,31.775,49.617,53.516,11.93,21.747,14.788,49.159,8.562,82.227-7.783,43.494-21.403,76.893-40.861,100.195-19.458,23.309-42.096,38.807-67.908,46.484-25.817,7.684-52.475,9.766-79.972,6.25-27.502-3.516-53.253-10.352-77.247-20.508-24-10.156-43.914-21.484-59.735-33.984-.262-6.77.389-16.211,1.945-28.32s4.214-24.475,7.979-37.109c3.758-12.629,8.883-22.912,15.371-30.859,6.482-7.941,14.526-10.871,24.128-8.789,18.418,12.762,34.635,22.852,48.645,30.273s28.603,13.152,43.78,17.188c15.177,4.041,29.119,4.102,41.834.195,12.708-3.906,22.182-14.191,28.408-30.859,5.448-16.145,4.214-29.553-3.697-40.234-7.916-10.676-19.98-19.66-36.191-26.954-16.217-7.287-33.796-14.19-52.73-20.703-21.015-7.031-40.539-14.776-58.567-23.242-18.035-8.459-31.072-19.336-39.11-32.617-13.231-19.269-19.981-43.42-20.236-72.461-.262-29.034,5.059-57.227,15.955-84.57s26.329-48.175,46.31-62.5c26.718-16.925,56.817-24.67,90.284-23.242,33.468,1.435,64.989,8.729,94.565,21.875,29.575,13.153,52.013,28.711,67.324,46.68,5.965,10.682,5.771,23.114-.584,37.305Z" fill="#fff"/></g></svg>